<svg width="22" height="32" xmlns="http://www.w3.org/2000/svg" xmlns:xlink="http://www.w3.org/1999/xlink" xml:space="preserve" overflow="hidden"><g transform="translate(-1124 -688)"><g><g><g><g><path d="M9.64005 21.9821C9.56265 21.9356 9.36658 21.7172 9.25995 21.5572 9.09828 21.3147 9.0312 21.0843 9.01744 20.7076 8.99509 20.1555 9.17224 19.3695 9.49386 18.5939 9.52138 18.5233 9.54201 18.4631 9.53858 18.4597 9.52654 18.4459 8.89017 19.0789 8.73882 19.2543 8.43612 19.6052 8.22801 19.9044 8.08354 20.2002 7.91843 20.5391 7.85307 20.8194 7.89091 21.0378 7.91671 21.1909 7.91671 21.6432 7.88919 21.7224 7.84103 21.8617 7.73956 21.7791 7.59165 21.4799 7.45061 21.1943 7.42654 21.1015 7.41794 20.8108 7.41278 20.6147 7.41794 20.5287 7.44373 20.4118 7.46093 20.3275 7.47297 20.2604 7.47125 20.2604 7.46953 20.2604 7.4145 20.2845 7.34914 20.3138 7.2855 20.343 7.15479 20.3929 7.0602 20.4256 6.86069 20.4961 6.10393 20.7145 5.81155 20.7867L5.61204 20.8366 5.59484 20.9484C5.57076 21.1032 5.5312 21.1892 5.48649 21.1892 5.45037 21.1892 5.38329 21.0998 5.32654 20.9725L5.29558 20.9054 5.1941 20.9106C5.06511 20.9192 5.05651 20.8882 5.16658 20.8125L5.24054 20.7609 5.20958 20.6681C5.15971 20.5184 5.13735 20.3361 5.14939 20.1676 5.16315 19.999 5.2371 19.6912 5.3059 19.5209 5.39877 19.2973 5.59484 18.9327 5.75135 18.6953 5.84079 18.5629 5.90786 18.4563 5.90098 18.4597 5.89582 18.4614 5.79435 18.513 5.67568 18.5698 5.34717 18.7297 5.03587 18.8295 4.67985 18.8845 4.57838 18.9 4.55946 18.9086 4.47518 18.9912 4.2774 19.1855 4.10885 19.4641 4.07445 19.6516 4.06413 19.7066 4.02113 19.8631 3.97813 19.9973 3.90246 20.2398 3.8285 20.3808 3.77518 20.3808 3.73391 20.3808 3.69779 20.3069 3.66683 20.1607L3.63931 20.0231 3.68919 19.9509C3.79926 19.7978 3.79926 19.8133 3.69779 19.8133L3.60663 19.8133 3.61867 19.6533C3.63243 19.4521 3.67887 19.2818 3.7769 19.0754 3.81818 18.986 3.85086 18.912 3.84914 18.9103 3.8457 18.9086 3.73219 18.8983 3.59459 18.8862 3.19214 18.8536 2.58845 18.7848 2.35971 18.7452 1.75086 18.6437 1.94349 18.5646 2.98403 18.4889 3.45528 18.4545 3.77518 18.4098 4.11744 18.3307L4.33759 18.2791 4.54742 18.0865C4.8312 17.8268 4.9258 17.7477 5.1769 17.5568 5.53292 17.2885 5.83907 17.0958 6.01106 17.0305 6.19853 16.9617 6.49263 16.8206 6.55627 16.7708 6.64054 16.7037 6.89337 16.3133 7.03096 16.0381 7.11523 15.8695 7.24595 15.5634 7.23735 15.5548 7.23391 15.5514 7.14963 15.6511 7.04816 15.7767 6.14865 16.8998 5.14251 17.5929 4.10885 17.801 3.67371 17.887 3.21278 17.8853 2.75528 17.7924 2.26855 17.6926 0.746437 17.1423 0.620885 17.0184 0.52973 16.929 0.763636 16.9376 1.48772 17.0545 2.04152 17.1423 2.24275 17.1646 2.58845 17.1767 4.04865 17.2248 5.33685 16.6211 6.2312 15.4705 6.42383 15.2228 6.65086 14.8686 6.77641 14.6209 6.81081 14.5521 6.81081 14.5469 6.78157 14.559 6.11425 14.8273 5.48305 14.9993 4.81572 15.0956 4.50958 15.1386 3.71499 15.1386 3.457 15.0956 2.70713 14.9683 2.16708 14.7241 1.64595 14.2769 1.4344 14.0946 1.29853 13.9467 0.997543 13.5614 0.436855 12.8477 0.103194 12.3661 0.103194 12.2715 0.103194 12.2388 0.108354 12.2388 0.185749 12.2784 0.280344 12.3283 0.452334 12.471 0.822113 12.8081 1.00442 12.9732 1.24349 13.183 1.35528 13.2742 2.01572 13.8125 2.77764 14.16 3.5774 14.2855 3.85602 14.3302 4.51818 14.3302 4.79853 14.2872 5.19582 14.2253 5.60344 14.1084 5.99214 13.945 6.21229 13.8538 6.54251 13.6921 6.53219 13.6818 6.53047 13.6784 6.42555 13.7059 6.30344 13.7437 5.80811 13.8934 5.28354 14.0052 4.81572 14.0619 4.50958 14.098 3.83882 14.1032 3.58599 14.0705 2.5317 13.9381 1.7285 13.5081 1.1317 12.76 0.806634 12.3523 0.106634 11.2808 0.0240786 11.0641-0.0515971 10.8646 0.0756757 10.9644 0.713759 11.5921 1.02678 11.9 1.36216 12.2165 1.46192 12.2973 1.99165 12.7187 2.59877 13.0214 3.21794 13.1727 3.96093 13.3533 4.72801 13.3292 5.50713 13.0988 5.686 13.0455 6.01278 12.9302 6.06781 12.8993 6.08157 12.8924 5.96978 12.8821 5.81843 12.8769 4.8742 12.8373 4.14152 12.6722 3.48452 12.3523 2.86364 12.0479 2.4199 11.6695 2.0656 11.1415 1.83857 10.801 1.66658 10.3916 1.32948 9.39926 1.16609 8.91597 1.0973 8.61671 1.15061 8.61671 1.20049 8.61671 1.3656 8.86093 1.6769 9.40098 1.79558 9.60909 1.94005 9.84988 1.99681 9.93931 2.25995 10.3521 2.63661 10.7821 2.98747 11.071 3.76314 11.7091 4.74177 12.0565 5.77027 12.0565 5.9285 12.0565 6.51327 12.0101 6.53735 11.9963 6.54423 11.9912 6.41007 11.9155 6.23808 11.826 4.9688 11.1759 4.08993 10.371 3.63759 9.45086 3.4226 9.01572 3.31253 8.60639 3.28673 8.14889 3.26781 7.82039 3.28845 7.55037 3.37101 7.0172 3.5258 6.02826 3.63415 5.55528 3.70295 5.57764 3.74767 5.5914 3.76658 5.79951 3.78378 6.43243 3.79238 6.78673 3.80786 7.16683 3.81818 7.27518 3.9231 8.37076 4.34963 9.31671 5.06339 10.0356 5.24054 10.2111 5.58968 10.5103 5.58968 10.4845 5.58968 10.4794 5.53636 10.4088 5.47101 10.328 4.78649 9.47494 4.44251 8.54447 4.4769 7.64496 4.49582 7.16167 4.56462 6.87445 4.82776 6.19165 5.15799 5.33342 5.39533 4.81572 5.46069 4.81572 5.51916 4.81572 5.47961 5.15455 5.35749 5.73931 5.26462 6.17789 5.21302 6.52187 5.19238 6.84693 5.13735 7.6484 5.31622 8.50663 5.67912 9.18427 6.01794 9.8172 6.52875 10.3762 7.17199 10.8165L7.35258 10.9403 7.35774 10.8612 7.3629 10.7803 7.05676 10.469C6.52703 9.92727 6.20369 9.4887 5.92334 8.92629 5.46585 8.00786 5.37985 7.09975 5.6688 6.19165 5.75823 5.90614 6.12973 5.04275 6.34988 4.60074 6.67322 3.95577 6.70762 4.10713 6.46511 5.10811 6.32236 5.69631 6.2742 5.97838 6.24324 6.38943 6.20197 6.93464 6.27764 7.54349 6.45307 8.07322 6.52187 8.28133 6.7059 8.7113 6.71966 8.69582 6.72482 8.69238 6.71622 8.63219 6.70074 8.56167 6.6371 8.26241 6.61474 8.02678 6.61474 7.63636 6.61302 7.21327 6.63194 7.03784 6.70762 6.72482 6.79877 6.35848 6.914 6.07297 7.10147 5.76339 7.22531 5.55872 7.22187 5.62064 7.13759 5.15971 6.98624 4.32899 6.77125 3.58599 6.50123 2.96339 6.33956 2.58845 6.23808 2.42162 6.06265 2.23587 5.54324 1.69066 5.2973 1.18501 5.36609 0.810074 5.42973 0.455774 5.72039 0.259705 6.17445 0.257985 6.60442 0.257985 7.11523 0.426536 7.68796 0.756757 8.13686 1.01646 8.17641 1.0371 8.37592 1.1317 8.75602 1.31057 9.06904 1.39656 9.36486 1.4 9.56781 1.40172 9.66757 1.3828 9.81032 1.31057 9.98575 1.22457 10.1543 0.999263 10.1767 0.822113 10.1904 0.715479 10.2231 0.662162 10.3194 0.586486 10.6857 0.297543 11.5835 0.111794 13.0369 0.0257985 14.1359-0.0378378 14.6759 0.0257985 14.8221 0.240786 14.8565 0.290663 14.8617 0.318182 14.8565 0.395577 14.8445 0.569287 14.7447 0.736118 14.3199 1.30713 13.7437 2.07764 13.5047 2.52998 13.3998 3.05283 13.3327 3.39165 13.257 4.09681 13.2002 4.94816L13.1727 5.34889 13.2914 5.51572C13.6457 6.0145 13.8504 6.56486 13.9157 7.18747 13.9553 7.57445 13.9192 8.1403 13.8263 8.58231 13.7059 9.1516 13.4445 9.88084 13.1744 10.3968 13.0369 10.6565 13.0369 10.6582 13.0369 10.7889 13.0369 10.9334 13.0369 10.9334 13.1383 10.9042 13.2708 10.8663 13.7334 10.5017 14.043 10.1904 14.7585 9.47666 15.1627 8.68894 15.3088 7.72064 15.3587 7.39558 15.3622 6.81941 15.3192 6.50983 15.2658 6.14521 15.2022 5.85799 15.0921 5.49509 14.8393 4.66437 14.7774 4.37371 14.8548 4.38919 14.9219 4.40123 15.1816 4.85528 15.5651 5.6258 15.6958 5.88894 15.8334 6.18477 15.873 6.28452 16.2273 7.20295 16.1843 8.16953 15.7474 9.13268 15.6649 9.31327 15.6098 9.4199 15.4447 9.70885 15.4052 9.77592 15.4069 9.77592 15.5118 9.67445 15.6803 9.5145 15.8988 9.24791 16.0553 9.01229 16.499 8.34668 16.7415 7.62088 16.8378 6.66462 16.9204 5.84595 16.9685 5.56388 17.027 5.56388 17.0597 5.56388 17.0889 5.66192 17.1199 5.88378 17.1801 6.30688 17.2506 7.25971 17.2506 7.64324 17.2489 8.99681 16.5042 10.1509 15.0767 11.0125 14.8015 11.1794 14.2494 11.4511 13.9192 11.5835 13.785 11.6369 13.6612 11.6971 13.644 11.716 13.6147 11.7486 13.6147 11.7486 13.656 11.74 13.6801 11.7349 13.7489 11.7211 13.8108 11.7108 14.1496 11.6541 14.6432 11.5079 14.9717 11.3686 15.7663 11.0314 16.4285 10.4914 16.8877 9.80344 17.1767 9.37346 17.3813 8.91081 17.5172 8.38452 17.5894 8.10074 17.6307 7.87199 17.7064 7.33538 17.8096 6.61474 17.8681 6.41007 17.9283 6.55627 18.0022 6.73342 18.0813 8.24005 18.0418 8.71818 17.9799 9.4715 17.7081 10.1371 17.2283 10.7081 16.9376 11.0538 16.4853 11.4408 16.0725 11.6971 15.9744 11.7572 15.8971 11.8088 15.9005 11.8123 15.9022 11.8157 15.9624 11.7985 16.0312 11.7762 17.1233 11.4081 18.0057 10.6307 18.5423 9.56265 18.6747 9.29607 18.7693 9.07248 18.9275 8.64251 19.3265 7.55897 19.428 7.52973 19.2698 8.54447 19.1993 9.00541 19.0599 9.72776 19.0049 9.92727 18.6592 11.1776 17.7115 12.0737 16.2273 12.5536 15.7612 12.7049 15.2607 12.815 14.7516 12.8769 14.6123 12.8941 14.4988 12.913 14.4988 12.9182 14.4988 12.9319 14.8376 13.0902 15.044 13.171 16.2617 13.6543 17.4914 13.5993 18.6523 13.0111 19.0909 12.7909 19.3799 12.5845 19.9835 12.0668 20.3241 11.7744 20.4771 11.6523 20.5821 11.5853 20.8418 11.4236 20.699 11.6816 20.1504 12.3661 19.4796 13.202 19.2491 13.441 18.8501 13.7111 18.427 13.9966 17.9351 14.1823 17.371 14.2683 17.1268 14.3061 16.4182 14.3113 16.1671 14.2769 15.7079 14.215 15.3484 14.1359 14.9287 14.0052 14.7912 13.9622 14.6639 13.9226 14.6467 13.9174 14.5676 13.8951 14.9752 14.2253 15.2727 14.4231 16.4371 15.1971 17.7803 15.3673 19.1459 14.9098 19.3953 14.8273 19.6912 14.6966 20.1882 14.4506 20.398 14.3457 20.6509 14.2287 20.7489 14.1909 21.0361 14.0774 21.0688 14.0998 20.8848 14.2803 20.6749 14.485 19.7324 15.1988 19.3575 15.4361 18.6747 15.8678 17.8698 16.0432 17.0528 15.9418 16.1069 15.8248 15.0956 15.3708 14.0774 14.6037L13.9054 14.4747 14.0224 14.6054C14.2666 14.8806 14.626 15.1867 14.9735 15.4189 15.9091 16.0432 16.984 16.2703 18.1106 16.0794 18.5388 16.0071 18.9705 15.8695 19.5811 15.6081 20.1194 15.3776 20.4359 15.2693 20.4703 15.3037 20.5219 15.3553 20.085 15.6821 19.2371 16.2221 18.8639 16.4612 18.728 16.5386 18.5199 16.6332 17.7649 16.9754 16.9514 17.0322 16.0811 16.8017 15.1403 16.5541 14.055 15.8885 13.1332 14.9975 12.9904 14.86 12.9337 14.8135 12.9423 14.8428 12.9663 14.9236 13.2226 15.443 13.3138 15.5943 14.0722 16.8602 15.1145 17.574 16.5283 17.7958 16.6865 17.8199 16.8241 17.8268 17.2248 17.8251 17.6565 17.8251 17.7769 17.8182 18.1192 17.7769 18.5612 17.7236 19.0324 17.7012 19.0737 17.7305 19.1115 17.758 19.0462 17.8027 18.8587 17.8767 18.4924 18.0194 17.4209 18.3376 17.0528 18.4115 15.7939 18.6627 14.5848 18.231 13.4926 17.1388 13.1469 16.7931 12.8597 16.4423 12.5518 15.9899 12.3713 15.7233 12.1408 15.3432 12.0376 15.1472 12.0066 15.0835 11.974 15.0319 11.9688 15.0319 11.955 15.0319 11.9052 15.4103 11.8828 15.6941 11.857 16.0123 11.8725 16.5541 11.9189 16.855 12.0582 17.7889 12.4383 18.5749 13.0627 19.2268 13.312 19.4865 13.5408 19.6774 13.8452 19.8803 14.1445 20.0799 14.43 20.226 15.0199 20.4909 15.4585 20.6853 15.6855 20.8022 15.756 20.8676 15.7904 20.9002 15.7904 20.9037 15.7629 20.9192 15.6958 20.9553 15.2951 20.8813 14.4902 20.6818 13.7936 20.5098 13.601 20.4479 13.2983 20.3017 12.514 19.9251 11.9516 19.3265 11.5474 18.4356 11.4459 18.212 11.2705 17.7029 11.2206 17.4862L11.1897 17.3504 11.0882 17.5533 10.9867 17.7563 11.016 17.9111C11.1622 18.6644 11.5595 19.428 12.1098 20.0093 12.44 20.3585 12.7187 20.5821 13.3464 21 13.5494 21.1359 13.7627 21.2803 13.8194 21.3233 13.9364 21.4111 14.0688 21.5332 14.0688 21.5538 14.0688 21.583 13.9501 21.5658 13.7953 21.516 13.4875 21.4162 12.5862 21.0327 12.1769 20.828 11.3479 20.4118 10.7339 19.7066 10.4278 18.8209 10.402 18.7418 10.3762 18.6781 10.371 18.6781 10.3607 18.6781 10.2128 18.9189 10.0821 19.1511 9.86364 19.5398 9.63489 20.1211 9.57297 20.4479 9.50934 20.785 9.52138 21.0757 9.60737 21.2752 9.70885 21.5091 9.78968 21.8943 9.75528 21.9717 9.7312 22.0233 9.70885 22.0251 9.64005 21.9821ZM5.95258 20.3998C6.7231 20.0265 7.14619 19.7428 7.58649 19.2956 8.1403 18.7366 8.52039 18.0624 8.69926 17.3194 8.75602 17.0889 8.83513 16.5971 8.81622 16.5971 8.81278 16.5971 8.77322 16.6641 8.7285 16.7467 8.6855 16.8292 8.60467 16.9582 8.55135 17.0339 8.40688 17.2369 8.05946 17.5774 7.81007 17.758 7.18575 18.212 6.80909 18.5268 6.47199 18.8725 5.96462 19.3936 5.67052 19.8803 5.61548 20.2914 5.60516 20.3654 5.6172 20.5528 5.63096 20.5528 5.6344 20.5528 5.77887 20.484 5.95258 20.3998ZM9.66757 16.9531C9.76388 16.7656 9.84988 16.4956 9.88256 16.284 9.92899 15.9848 9.89115 15.6563 9.77592 15.3192 9.74152 15.2228 9.70885 15.1386 9.70369 15.1317 9.69681 15.1248 9.69165 15.345 9.68993 15.6219 9.68993 15.8988 9.67961 16.2256 9.66757 16.3477 9.64693 16.5747 9.58501 17.0425 9.56953 17.1044 9.55577 17.1577 9.58845 17.1079 9.66757 16.9531ZM13.1074 7.35258 13.0919 7.26658 13.0902 7.3457C13.0902 7.3887 13.0936 7.42998 13.1005 7.43513 13.1194 7.45577 13.1211 7.44029 13.1074 7.35258Z" fill="#A40000" fill-rule="nonzero" fill-opacity="1" transform="matrix(1 0 0 -1.36246 1125 718.997)"/></g></g></g></g></g></svg>