<?xml version="1.0" encoding="UTF-8" standalone="no"?>
<svg
   width="591"
   height="454"
   xml:space="preserve"
   overflow="hidden"
   version="1.1"
   id="svg32"
   sodipodi:docname="Bateau.svg"
   xmlns:inkscape="http://www.inkscape.org/namespaces/inkscape"
   xmlns:sodipodi="http://sodipodi.sourceforge.net/DTD/sodipodi-0.dtd"
   xmlns="http://www.w3.org/2000/svg"
   xmlns:svg="http://www.w3.org/2000/svg"><defs
     id="defs32" /><sodipodi:namedview
     id="namedview32"
     pagecolor="#505050"
     bordercolor="#eeeeee"
     borderopacity="1"
     inkscape:showpageshadow="0"
     inkscape:pageopacity="0"
     inkscape:pagecheckerboard="0"
     inkscape:deskcolor="#505050" /><g
     id="g31"
     transform="translate(-42.823529,-28.470588)"
     style="stroke:none;stroke-opacity:1;fill:#000000;fill-opacity:1"><g
       id="g29"
       style="stroke:none;stroke-opacity:1;fill:#000000;fill-opacity:1"><g
         id="g28"
         style="stroke:none;stroke-opacity:1;fill:#000000;fill-opacity:1"><g
           id="g27"
           style="stroke:none;stroke-opacity:1;fill:#000000;fill-opacity:1"><g
             id="g26"
             style="stroke:none;stroke-opacity:1;fill:#000000;fill-opacity:1"><path
               d="m 4449.58,1215.75 38.82,104.78 443.85,16.76 24.47,-25.14 4.21,-60.36 -117.3,0.84 -76.78,-1.67 -26.16,-2.52 -13.49,-46.1 8.44,-28.5 -5.91,-7.55 -40.51,-5.03 -0.84,-25.14 -27,-0.84 -28.71,10.89 -0.84,13.42 -20.24,-3.36 -45.56,15.09 7.6,39.4 -110.54,-0.84 z"
               stroke="#53749f"
               stroke-width="2.41117"
               stroke-linecap="butt"
               stroke-linejoin="miter"
               stroke-miterlimit="8"
               stroke-opacity="1"
               fill="#53749f"
               fill-rule="evenodd"
               fill-opacity="1"
               transform="matrix(1,0,0,1.06266,-4382.42,-947.448)"
               id="path1"
               style="stroke:none;stroke-opacity:1;fill:#000000;fill-opacity:1" /><path
               d="m 4845.19,1248.99 9.11,-11.55 2.51,-16.5 -4.15,-13.21 v -19.8 l 4.97,-9.9 8.29,-9.08 h 23.21 l 5.81,11.55 4.96,16.5 -0.82,11.56 -0.84,7.43 -9.11,8.25 -9.96,5.78 -9.95,6.6 v 16.5 z"
               stroke="#53749f"
               stroke-width="2.41117"
               stroke-linecap="butt"
               stroke-linejoin="miter"
               stroke-miterlimit="8"
               stroke-opacity="1"
               fill="#53749f"
               fill-rule="evenodd"
               fill-opacity="1"
               transform="matrix(1,0,0,1.06266,-4382.42,-947.448)"
               id="path2"
               style="stroke:none;stroke-opacity:1;fill:#000000;fill-opacity:1" /><path
               d="m 4906.47,1255.65 1.74,-33.67 10.48,-6.74 4.36,-15.15 v -11.78 l -1.75,-11.79 -6.1,-10.94 -12.23,-0.84 -6.96,2.52 -2.63,5.05 -6.1,4.21 6.98,40.41 6.1,8.41 -0.88,36.2 z"
               stroke="#53749f"
               stroke-width="2.41117"
               stroke-linecap="butt"
               stroke-linejoin="miter"
               stroke-miterlimit="8"
               stroke-opacity="1"
               fill="#53749f"
               fill-rule="evenodd"
               fill-opacity="1"
               transform="matrix(1,0,0,1.06266,-4382.42,-947.448)"
               id="path3"
               style="stroke:none;stroke-opacity:1;fill:#000000;fill-opacity:1" /><path
               d="m 4923.28,1204.56 v 0 l 25.65,-0.97 c 6.9,-0.29 13.79,-0.97 20.69,-0.97 4.44,0 8.84,0.71 13.25,0.97 1.1,0.06 2.21,0 3.31,0 v 3.88 5.83 l -73.65,1.94 z"
               stroke="#53749f"
               stroke-width="2.41117"
               stroke-linecap="butt"
               stroke-linejoin="miter"
               stroke-miterlimit="8"
               stroke-opacity="1"
               fill="#53749f"
               fill-rule="evenodd"
               fill-opacity="1"
               transform="matrix(1,0,0,1.06266,-4382.42,-947.448)"
               id="path4"
               style="stroke:none;stroke-opacity:1;fill:#000000;fill-opacity:1" /><path
               d="m 4908.32,1167.72 97.98,-186.93 16.89,-7.544 5.07,10.059 -5.07,12.573 -15.19,-8.381 -91.24,187.763 z"
               stroke="#53749f"
               stroke-width="2.41117"
               stroke-linecap="butt"
               stroke-linejoin="miter"
               stroke-miterlimit="8"
               stroke-opacity="1"
               fill="#53749f"
               fill-rule="evenodd"
               fill-opacity="1"
               transform="matrix(1,0,0,1.06266,-4382.42,-947.448)"
               id="path5"
               style="stroke:none;stroke-opacity:1;fill:#000000;fill-opacity:1" /><path
               d="m 4702.1,1175.26 25.08,-249.577 6.48,-0.836 -25.08,248.743 z"
               stroke="#53749f"
               stroke-width="2.41117"
               stroke-linecap="butt"
               stroke-linejoin="miter"
               stroke-miterlimit="8"
               stroke-opacity="1"
               fill="#53749f"
               fill-rule="evenodd"
               fill-opacity="1"
               transform="matrix(1,0,0,1.06266,-4382.42,-947.448)"
               id="path6"
               style="stroke:none;stroke-opacity:1;fill:#000000;fill-opacity:1" /><path
               d="m 4745.17,931.996 -5.2,331.644 13.01,-0.83 c 0.57,-110.55 1.16,-221.1 1.72,-331.65 z"
               stroke="#53749f"
               stroke-width="2.41117"
               stroke-linecap="butt"
               stroke-linejoin="miter"
               stroke-miterlimit="8"
               stroke-opacity="1"
               fill="#53749f"
               fill-rule="evenodd"
               fill-opacity="1"
               transform="matrix(1,0,0,1.06266,-4382.42,-947.448)"
               id="path7"
               style="stroke:none;stroke-opacity:1;fill:#000000;fill-opacity:1" /><path
               d="m 4571.63,945.89 v 0 l 5.66,235.68 4.86,-3.33 -6.48,-227.352 z"
               stroke="#53749f"
               stroke-width="2.41117"
               stroke-linecap="butt"
               stroke-linejoin="miter"
               stroke-miterlimit="8"
               stroke-opacity="1"
               fill="#53749f"
               fill-rule="evenodd"
               fill-opacity="1"
               transform="matrix(1,0,0,1.06266,-4382.42,-947.448)"
               id="path8"
               style="stroke:none;stroke-opacity:1;fill:#000000;fill-opacity:1" /><path
               d="m 4555.21,1032.17 -2.52,10.12 36.19,4.61 1.69,-7.37 z"
               stroke="#53749f"
               stroke-width="2.41117"
               stroke-linecap="butt"
               stroke-linejoin="miter"
               stroke-miterlimit="8"
               stroke-opacity="1"
               fill="#53749f"
               fill-rule="evenodd"
               fill-opacity="1"
               transform="matrix(1,0,0,1.06266,-4382.42,-947.448)"
               id="path9"
               style="stroke:none;stroke-opacity:1;fill:#000000;fill-opacity:1" /><path
               d="m 4458,1211.03 265.14,-199.91"
               stroke="#53749f"
               stroke-width="2.41117"
               stroke-linecap="butt"
               stroke-linejoin="miter"
               stroke-miterlimit="8"
               stroke-opacity="1"
               fill="#53749f"
               fill-rule="evenodd"
               fill-opacity="1"
               transform="matrix(1,0,0,1.06266,-4382.42,-947.448)"
               id="path10"
               style="stroke:none;stroke-opacity:1;fill:#000000;fill-opacity:1" /><path
               d="m 4725.24,1160.53 c 28.54,-5.99 57.09,-11.97 86.91,-30.91 29.8,-18.94 60.88,-50.83 91.96,-82.72"
               stroke="#53749f"
               stroke-width="2.41117"
               stroke-linecap="butt"
               stroke-linejoin="miter"
               stroke-miterlimit="8"
               stroke-opacity="1"
               fill="#53749f"
               fill-rule="evenodd"
               fill-opacity="1"
               transform="matrix(1,0,0,1.06266,-4382.42,-947.448)"
               id="path11"
               style="stroke:none;stroke-opacity:1;fill:#000000;fill-opacity:1" /><path
               d="m 4750.5,1177.37 c 36.34,-12.98 72.66,-25.96 103.53,-42.09 30.87,-16.13 56.25,-35.42 81.64,-54.71"
               stroke="#53749f"
               stroke-width="2.41117"
               stroke-linecap="butt"
               stroke-linejoin="miter"
               stroke-miterlimit="8"
               stroke-opacity="1"
               fill="#53749f"
               fill-rule="evenodd"
               fill-opacity="1"
               transform="matrix(1,0,0,1.06266,-4382.42,-947.448)"
               id="path12"
               style="stroke:none;stroke-opacity:1;fill:#000000;fill-opacity:1" /><path
               d="m 4885.17,1171.05 c 25.06,-44.77 50.13,-89.54 70.12,-120.41 19.99,-30.86 34.91,-47.81 49.83,-64.768"
               stroke="#53749f"
               stroke-width="2.41117"
               stroke-linecap="butt"
               stroke-linejoin="miter"
               stroke-miterlimit="8"
               stroke-opacity="1"
               fill="#53749f"
               fill-rule="evenodd"
               fill-opacity="1"
               transform="matrix(1,0,0,1.06266,-4382.42,-947.448)"
               id="path13"
               style="stroke:none;stroke-opacity:1;fill:#000000;fill-opacity:1" /><path
               d="m 4729.45,937.473 c 23.8,55.154 47.6,110.307 68.64,157.307 21.05,46.99 39.33,85.83 57.62,124.67"
               stroke="#53749f"
               stroke-width="2.41117"
               stroke-linecap="butt"
               stroke-linejoin="miter"
               stroke-miterlimit="8"
               stroke-opacity="1"
               fill="#53749f"
               fill-rule="evenodd"
               fill-opacity="1"
               transform="matrix(1,0,0,1.06266,-4382.42,-947.448)"
               id="path14"
               style="stroke:none;stroke-opacity:1;fill:#000000;fill-opacity:1" /><path
               d="m 4752.6,947.995 75.75,156.305 37.88,81.48"
               stroke="#53749f"
               stroke-width="2.41117"
               stroke-linecap="butt"
               stroke-linejoin="miter"
               stroke-miterlimit="8"
               stroke-opacity="1"
               fill="#53749f"
               fill-rule="evenodd"
               fill-opacity="1"
               transform="matrix(1,0,0,1.06266,-4382.42,-947.448)"
               id="path15"
               style="stroke:none;stroke-opacity:1;fill:#000000;fill-opacity:1" /><path
               d="m 4750.75,966.934 c -0.72,9.24 -1.41,18.48 21.15,22.827 22.58,4.348 74.34,5.842 114.26,3.262 39.92,-2.582 82.59,-10.667 125.27,-18.752"
               stroke="#53749f"
               stroke-width="2.41117"
               stroke-linecap="butt"
               stroke-linejoin="miter"
               stroke-miterlimit="8"
               stroke-opacity="1"
               fill="#53749f"
               fill-rule="evenodd"
               fill-opacity="1"
               transform="matrix(1,0,0,1.06266,-4382.42,-947.448)"
               id="path16"
               style="stroke:none;stroke-opacity:1;fill:#000000;fill-opacity:1" /><path
               d="m 4750.5,991.693 c 10.62,3.419 21.25,6.839 43.07,8.377 21.8,1.53 51.51,4.6 87.81,0.83 36.32,-3.765 83.19,-13.605 130.05,-23.445"
               stroke="#53749f"
               stroke-width="2.41117"
               stroke-linecap="butt"
               stroke-linejoin="miter"
               stroke-miterlimit="8"
               stroke-opacity="1"
               fill="#53749f"
               fill-rule="evenodd"
               fill-opacity="1"
               transform="matrix(1,0,0,1.06266,-4382.42,-947.448)"
               id="path17"
               style="stroke:none;stroke-opacity:1;fill:#000000;fill-opacity:1" /><path
               d="M 4548.48,1211.03 4729.45,933.264"
               stroke="#53749f"
               stroke-width="2.41117"
               stroke-linecap="butt"
               stroke-linejoin="miter"
               stroke-miterlimit="8"
               stroke-opacity="1"
               fill="#53749f"
               fill-rule="evenodd"
               fill-opacity="1"
               transform="matrix(1,0,0,1.06266,-4382.42,-947.448)"
               id="path18"
               style="stroke:none;stroke-opacity:1;fill:#000000;fill-opacity:1" /><path
               d="M 4609.51,1158.43 4729.45,952.203"
               stroke="#53749f"
               stroke-width="2.41117"
               stroke-linecap="butt"
               stroke-linejoin="miter"
               stroke-miterlimit="8"
               stroke-opacity="1"
               fill="#53749f"
               fill-rule="evenodd"
               fill-opacity="1"
               transform="matrix(1,0,0,1.06266,-4382.42,-947.448)"
               id="path19"
               style="stroke:none;stroke-opacity:1;fill:#000000;fill-opacity:1" /><path
               d="m 4636.86,1145.8 86.28,-166.241"
               stroke="#53749f"
               stroke-width="2.41117"
               stroke-linecap="butt"
               stroke-linejoin="miter"
               stroke-miterlimit="8"
               stroke-opacity="1"
               fill="#53749f"
               fill-rule="evenodd"
               fill-opacity="1"
               transform="matrix(1,0,0,1.06266,-4382.42,-947.448)"
               id="path20"
               style="stroke:none;stroke-opacity:1;fill:#000000;fill-opacity:1" /><path
               d="m 4714.72,999.439 3.43,7.481 42.87,-23.264 v -8.305 l -27.44,9.137 z"
               stroke="#53749f"
               stroke-width="2.41117"
               stroke-linecap="butt"
               stroke-linejoin="miter"
               stroke-miterlimit="8"
               stroke-opacity="1"
               fill="#53749f"
               fill-rule="evenodd"
               fill-opacity="1"
               transform="matrix(1,0,0,1.06266,-4382.42,-947.448)"
               id="path21"
               style="stroke:none;stroke-opacity:1;fill:#000000;fill-opacity:1" /><path
               d="m 4872.55,1042.69 8.5,8.42 35.69,-8.42 -6.8,-4.21 z"
               stroke="#53749f"
               stroke-width="2.41117"
               stroke-linecap="butt"
               stroke-linejoin="miter"
               stroke-miterlimit="8"
               stroke-opacity="1"
               fill="#53749f"
               fill-rule="evenodd"
               fill-opacity="1"
               transform="matrix(1,0,0,1.06266,-4382.42,-947.448)"
               id="path22"
               style="stroke:none;stroke-opacity:1;fill:#000000;fill-opacity:1" /><path
               d="m 4866.23,1173.16 25.25,-115.74"
               stroke="#53749f"
               stroke-width="2.41117"
               stroke-linecap="butt"
               stroke-linejoin="miter"
               stroke-miterlimit="8"
               stroke-opacity="1"
               fill="#53749f"
               fill-rule="evenodd"
               fill-opacity="1"
               transform="matrix(1,0,0,1.06266,-4382.42,-947.448)"
               id="path23"
               style="stroke:none;stroke-opacity:1;fill:#000000;fill-opacity:1" /><path
               d="m 4874.65,1171.05 21.04,-111.53"
               stroke="#53749f"
               stroke-width="2.41117"
               stroke-linecap="butt"
               stroke-linejoin="miter"
               stroke-miterlimit="8"
               stroke-opacity="1"
               fill="#53749f"
               fill-rule="evenodd"
               fill-opacity="1"
               transform="matrix(1,0,0,1.06266,-4382.42,-947.448)"
               id="path24"
               style="stroke:none;stroke-opacity:1;fill:#000000;fill-opacity:1" /><path
               d="m 4891.48,1181.57 96.8,-162.03"
               stroke="#53749f"
               stroke-width="2.41117"
               stroke-linecap="butt"
               stroke-linejoin="miter"
               stroke-miterlimit="8"
               stroke-opacity="1"
               fill="#53749f"
               fill-rule="evenodd"
               fill-opacity="1"
               transform="matrix(1,0,0,1.06266,-4382.42,-947.448)"
               id="path25"
               style="stroke:none;stroke-opacity:1;fill:#000000;fill-opacity:1" /><path
               d="m 4750.5,1002.71 140.98,61.02"
               stroke="#53749f"
               stroke-width="2.41117"
               stroke-linecap="butt"
               stroke-linejoin="miter"
               stroke-miterlimit="8"
               stroke-opacity="1"
               fill="#53749f"
               fill-rule="evenodd"
               fill-opacity="1"
               transform="matrix(1,0,0,1.06266,-4382.42,-947.448)"
               id="path26"
               style="stroke:none;stroke-opacity:1;fill:#000000;fill-opacity:1" /></g></g></g></g><path
       d="m 512,297.868 6.889,11.774 2.583,15.396 0.861,10.868 -8.611,12.679 6.889,4.528 -5.167,29.887 12.056,-1.811 -2.583,-29.887 8.611,-8.151 4.305,-7.245 4.306,-7.246 L 543,312.358 537.833,299.679 528.361,287 Z"
       fill="#415a7b"
       fill-rule="evenodd"
       fill-opacity="1"
       id="path29"
       style="stroke:none;stroke-opacity:1;fill:#000000;fill-opacity:1" /><path
       d="M 360,369.836 363.385,43.7101 371,40.9999 370.154,43.7101 C 369.872,158.14 369.59,272.57 369.308,387 Z"
       fill="#415a7b"
       fill-rule="evenodd"
       fill-opacity="1"
       id="path30"
       style="stroke:none;stroke-opacity:1;fill:#000000;fill-opacity:1" /><path
       d="M 83.9999,381 110.252,449.353 547,464 v -31.735 h -59.665 -64.438 l -59.665,-4.883 -59.665,-7.323 -47.732,-12.206 -73.985,-14.647 -64.438,-7.324 z"
       fill="#415a7b"
       fill-rule="evenodd"
       fill-opacity="1"
       id="path31"
       style="stroke:none;stroke-opacity:1;fill:#000000;fill-opacity:1" /></g></svg>
