<svg width="591" height="454" xmlns="http://www.w3.org/2000/svg" xmlns:xlink="http://www.w3.org/1999/xlink" xml:space="preserve" overflow="hidden"><g transform="translate(-59 -27)"><g><g><g><g><g><path d="M4449.58 1215.75 4488.4 1320.53 4932.25 1337.29 4956.72 1312.15 4960.93 1251.79 4843.63 1252.63 4766.85 1250.96 4740.69 1248.44 4727.2 1202.34 4735.64 1173.84 4729.73 1166.29 4689.22 1161.26 4688.38 1136.12 4661.38 1135.28 4632.67 1146.17 4631.83 1159.59 4611.59 1156.23 4566.03 1171.32 4573.63 1210.72 4463.09 1209.88 4449.58 1215.75Z" stroke="#53749F" stroke-width="2.41117" stroke-linecap="butt" stroke-linejoin="miter" stroke-miterlimit="8" stroke-opacity="1" fill="#53749F" fill-rule="evenodd" fill-opacity="1" transform="matrix(1 0 0 1.06266 -4382.42 -947.448)"/><path d="M4845.19 1248.99 4854.3 1237.44 4856.81 1220.94 4852.66 1207.73 4852.66 1187.93 4857.63 1178.03 4865.92 1168.95 4889.13 1168.95 4894.94 1180.5 4899.9 1197 4899.08 1208.56 4898.24 1215.99 4889.13 1224.24 4879.17 1230.02 4869.22 1236.62 4869.22 1253.12 4845.19 1248.99Z" stroke="#53749F" stroke-width="2.41117" stroke-linecap="butt" stroke-linejoin="miter" stroke-miterlimit="8" stroke-opacity="1" fill="#53749F" fill-rule="evenodd" fill-opacity="1" transform="matrix(1 0 0 1.06266 -4382.42 -947.448)"/><path d="M4906.47 1255.65 4908.21 1221.98 4918.69 1215.24 4923.05 1200.09 4923.05 1188.31 4921.3 1176.52 4915.2 1165.58 4902.97 1164.74 4896.01 1167.26 4893.38 1172.31 4887.28 1176.52 4894.26 1216.93 4900.36 1225.34 4899.48 1261.54 4906.47 1255.65Z" stroke="#53749F" stroke-width="2.41117" stroke-linecap="butt" stroke-linejoin="miter" stroke-miterlimit="8" stroke-opacity="1" fill="#53749F" fill-rule="evenodd" fill-opacity="1" transform="matrix(1 0 0 1.06266 -4382.42 -947.448)"/><path d="M4923.28 1204.56 4923.28 1204.56 4948.93 1203.59C4955.83 1203.3 4962.72 1202.62 4969.62 1202.62 4974.06 1202.62 4978.46 1203.33 4982.87 1203.59 4983.97 1203.65 4985.08 1203.59 4986.18 1203.59L4986.18 1207.47 4986.18 1213.3 4912.53 1215.24 4923.28 1204.56Z" stroke="#53749F" stroke-width="2.41117" stroke-linecap="butt" stroke-linejoin="miter" stroke-miterlimit="8" stroke-opacity="1" fill="#53749F" fill-rule="evenodd" fill-opacity="1" transform="matrix(1 0 0 1.06266 -4382.42 -947.448)"/><path d="M4908.32 1167.72 5006.3 980.79 5023.19 973.246 5028.26 983.305 5023.19 995.878 5008 987.497 4916.76 1175.26 4908.32 1167.72Z" stroke="#53749F" stroke-width="2.41117" stroke-linecap="butt" stroke-linejoin="miter" stroke-miterlimit="8" stroke-opacity="1" fill="#53749F" fill-rule="evenodd" fill-opacity="1" transform="matrix(1 0 0 1.06266 -4382.42 -947.448)"/><path d="M4702.1 1175.26 4727.18 925.683 4733.66 924.847 4708.58 1173.59 4702.1 1175.26Z" stroke="#53749F" stroke-width="2.41117" stroke-linecap="butt" stroke-linejoin="miter" stroke-miterlimit="8" stroke-opacity="1" fill="#53749F" fill-rule="evenodd" fill-opacity="1" transform="matrix(1 0 0 1.06266 -4382.42 -947.448)"/><path d="M4745.17 931.996 4739.97 1263.64 4752.98 1262.81C4753.55 1152.26 4754.14 1041.71 4754.7 931.16L4745.17 931.996Z" stroke="#53749F" stroke-width="2.41117" stroke-linecap="butt" stroke-linejoin="miter" stroke-miterlimit="8" stroke-opacity="1" fill="#53749F" fill-rule="evenodd" fill-opacity="1" transform="matrix(1 0 0 1.06266 -4382.42 -947.448)"/><path d="M4571.63 945.89 4571.63 945.89 4577.29 1181.57 4582.15 1178.24 4575.67 950.888 4571.63 945.89Z" stroke="#53749F" stroke-width="2.41117" stroke-linecap="butt" stroke-linejoin="miter" stroke-miterlimit="8" stroke-opacity="1" fill="#53749F" fill-rule="evenodd" fill-opacity="1" transform="matrix(1 0 0 1.06266 -4382.42 -947.448)"/><path d="M4555.21 1032.17 4552.69 1042.29 4588.88 1046.9 4590.57 1039.53 4555.21 1032.17Z" stroke="#53749F" stroke-width="2.41117" stroke-linecap="butt" stroke-linejoin="miter" stroke-miterlimit="8" stroke-opacity="1" fill="#53749F" fill-rule="evenodd" fill-opacity="1" transform="matrix(1 0 0 1.06266 -4382.42 -947.448)"/><path d="M4458 1211.03 4723.14 1011.12" stroke="#53749F" stroke-width="2.41117" stroke-linecap="butt" stroke-linejoin="miter" stroke-miterlimit="8" stroke-opacity="1" fill="#53749F" fill-rule="evenodd" fill-opacity="1" transform="matrix(1 0 0 1.06266 -4382.42 -947.448)"/><path d="M4725.24 1160.53C4753.78 1154.54 4782.33 1148.56 4812.15 1129.62 4841.95 1110.68 4873.03 1078.79 4904.11 1046.9" stroke="#53749F" stroke-width="2.41117" stroke-linecap="butt" stroke-linejoin="miter" stroke-miterlimit="8" stroke-opacity="1" fill="#53749F" fill-rule="evenodd" fill-opacity="1" transform="matrix(1 0 0 1.06266 -4382.42 -947.448)"/><path d="M4750.5 1177.37C4786.84 1164.39 4823.16 1151.41 4854.03 1135.28 4884.9 1119.15 4910.28 1099.86 4935.67 1080.57" stroke="#53749F" stroke-width="2.41117" stroke-linecap="butt" stroke-linejoin="miter" stroke-miterlimit="8" stroke-opacity="1" fill="#53749F" fill-rule="evenodd" fill-opacity="1" transform="matrix(1 0 0 1.06266 -4382.42 -947.448)"/><path d="M4885.17 1171.05C4910.23 1126.28 4935.3 1081.51 4955.29 1050.64 4975.28 1019.78 4990.2 1002.83 5005.12 985.872" stroke="#53749F" stroke-width="2.41117" stroke-linecap="butt" stroke-linejoin="miter" stroke-miterlimit="8" stroke-opacity="1" fill="#53749F" fill-rule="evenodd" fill-opacity="1" transform="matrix(1 0 0 1.06266 -4382.42 -947.448)"/><path d="M4729.45 937.473C4753.25 992.627 4777.05 1047.78 4798.09 1094.78 4819.14 1141.77 4837.42 1180.61 4855.71 1219.45" stroke="#53749F" stroke-width="2.41117" stroke-linecap="butt" stroke-linejoin="miter" stroke-miterlimit="8" stroke-opacity="1" fill="#53749F" fill-rule="evenodd" fill-opacity="1" transform="matrix(1 0 0 1.06266 -4382.42 -947.448)"/><path d="M4752.6 947.995 4828.35 1104.3 4866.23 1185.78" stroke="#53749F" stroke-width="2.41117" stroke-linecap="butt" stroke-linejoin="miter" stroke-miterlimit="8" stroke-opacity="1" fill="#53749F" fill-rule="evenodd" fill-opacity="1" transform="matrix(1 0 0 1.06266 -4382.42 -947.448)"/><path d="M4750.75 966.934C4750.03 976.174 4749.34 985.414 4771.9 989.761 4794.48 994.109 4846.24 995.603 4886.16 993.023 4926.08 990.441 4968.75 982.356 5011.43 974.271" stroke="#53749F" stroke-width="2.41117" stroke-linecap="butt" stroke-linejoin="miter" stroke-miterlimit="8" stroke-opacity="1" fill="#53749F" fill-rule="evenodd" fill-opacity="1" transform="matrix(1 0 0 1.06266 -4382.42 -947.448)"/><path d="M4750.5 991.693C4761.12 995.112 4771.75 998.532 4793.57 1000.07 4815.37 1001.6 4845.08 1004.67 4881.38 1000.9 4917.7 997.135 4964.57 987.295 5011.43 977.455" stroke="#53749F" stroke-width="2.41117" stroke-linecap="butt" stroke-linejoin="miter" stroke-miterlimit="8" stroke-opacity="1" fill="#53749F" fill-rule="evenodd" fill-opacity="1" transform="matrix(1 0 0 1.06266 -4382.42 -947.448)"/><path d="M4548.48 1211.03 4729.45 933.264" stroke="#53749F" stroke-width="2.41117" stroke-linecap="butt" stroke-linejoin="miter" stroke-miterlimit="8" stroke-opacity="1" fill="#53749F" fill-rule="evenodd" fill-opacity="1" transform="matrix(1 0 0 1.06266 -4382.42 -947.448)"/><path d="M4609.51 1158.43 4729.45 952.203" stroke="#53749F" stroke-width="2.41117" stroke-linecap="butt" stroke-linejoin="miter" stroke-miterlimit="8" stroke-opacity="1" fill="#53749F" fill-rule="evenodd" fill-opacity="1" transform="matrix(1 0 0 1.06266 -4382.42 -947.448)"/><path d="M4636.86 1145.8 4723.14 979.559" stroke="#53749F" stroke-width="2.41117" stroke-linecap="butt" stroke-linejoin="miter" stroke-miterlimit="8" stroke-opacity="1" fill="#53749F" fill-rule="evenodd" fill-opacity="1" transform="matrix(1 0 0 1.06266 -4382.42 -947.448)"/><path d="M4714.72 999.439 4718.15 1006.92 4761.02 983.656 4761.02 975.351 4733.58 984.488 4714.72 999.439Z" stroke="#53749F" stroke-width="2.41117" stroke-linecap="butt" stroke-linejoin="miter" stroke-miterlimit="8" stroke-opacity="1" fill="#53749F" fill-rule="evenodd" fill-opacity="1" transform="matrix(1 0 0 1.06266 -4382.42 -947.448)"/><path d="M4872.55 1042.69 4881.05 1051.11 4916.74 1042.69 4909.94 1038.48 4872.55 1042.69Z" stroke="#53749F" stroke-width="2.41117" stroke-linecap="butt" stroke-linejoin="miter" stroke-miterlimit="8" stroke-opacity="1" fill="#53749F" fill-rule="evenodd" fill-opacity="1" transform="matrix(1 0 0 1.06266 -4382.42 -947.448)"/><path d="M4866.23 1173.16 4891.48 1057.42" stroke="#53749F" stroke-width="2.41117" stroke-linecap="butt" stroke-linejoin="miter" stroke-miterlimit="8" stroke-opacity="1" fill="#53749F" fill-rule="evenodd" fill-opacity="1" transform="matrix(1 0 0 1.06266 -4382.42 -947.448)"/><path d="M4874.65 1171.05 4895.69 1059.52" stroke="#53749F" stroke-width="2.41117" stroke-linecap="butt" stroke-linejoin="miter" stroke-miterlimit="8" stroke-opacity="1" fill="#53749F" fill-rule="evenodd" fill-opacity="1" transform="matrix(1 0 0 1.06266 -4382.42 -947.448)"/><path d="M4891.48 1181.57 4988.28 1019.54" stroke="#53749F" stroke-width="2.41117" stroke-linecap="butt" stroke-linejoin="miter" stroke-miterlimit="8" stroke-opacity="1" fill="#53749F" fill-rule="evenodd" fill-opacity="1" transform="matrix(1 0 0 1.06266 -4382.42 -947.448)"/><path d="M4750.5 1002.71 4891.48 1063.73" stroke="#53749F" stroke-width="2.41117" stroke-linecap="butt" stroke-linejoin="miter" stroke-miterlimit="8" stroke-opacity="1" fill="#53749F" fill-rule="evenodd" fill-opacity="1" transform="matrix(1 0 0 1.06266 -4382.42 -947.448)"/></g></g></g></g><path d="M512 297.868 518.889 309.642 521.472 325.038 522.333 335.906 513.722 348.585 520.611 353.113 515.444 383 527.5 381.189 524.917 351.302 533.528 343.151 537.833 335.906 542.139 328.66 543 312.358 537.833 299.679 528.361 287 512 297.868Z" fill="#415A7B" fill-rule="evenodd" fill-opacity="1"/><path d="M360 369.836 363.385 43.7101 371 40.9999 370.154 43.7101C369.872 158.14 369.59 272.57 369.308 387L360 369.836Z" fill="#415A7B" fill-rule="evenodd" fill-opacity="1"/><path d="M83.9999 381 110.252 449.353 547 464 547 432.265 487.335 432.265 422.897 432.265 363.232 427.382 303.567 420.059 255.835 407.853 181.85 393.206 117.412 385.882 83.9999 381Z" fill="#415A7B" fill-rule="evenodd" fill-opacity="1"/></g></g></svg>