<svg width="518" height="202" xmlns="http://www.w3.org/2000/svg" xmlns:xlink="http://www.w3.org/1999/xlink" xml:space="preserve" overflow="hidden"><g transform="translate(-1549 -925)"><g><path d="M2062.94 1035.13C2057.82 1030.01 2051.72 1036.01 2045.86 1034.51 2043.1 1034.89 2040.86 1034.89 2038.13 1034.51 2038.62 1030.39 2043.1 1028.65 2046.22 1026.15 2049.97 1023.27 2059.21 1024.02 2056.96 1016.54 2043.86 1010.91 2029.39 1008.43 2015.94 1003.68 1990.5 993.813 1964.18 988.949 1936.99 983.585L1930.01 982.326C1926.75 976.783 1923.39 971.188 1919.9 965.608L1919.22 964.442 1918.57 963.47C1912 953.094 1904.91 942.768 1897.07 932.903 1894.46 930.54 1891.95 925.538 1888.1 926.034L1887.83 927.962C1887.71 928.28 1887.55 928.581 1887.37 928.827L1884.86 929.645C1882.47 935.266 1881.36 941.387 1877.62 946.373 1877.74 948.491 1874.38 949.238 1875.62 952.117 1872.62 955.492 1872.87 960.724 1871.38 964.36L1871.14 964.36C1871.38 966.969 1870.14 970.466 1869.26 973.336 1867.39 973.837 1869.15 976.338 1867.76 977.202 1867.93 977.202 1868.08 977.218 1868.23 977.248L1867.72 978.475C1863.99 978.522 1860.27 978.337 1856.42 978.215 1847.8 965.47 1838.34 952.741 1825.6 943.131 1802.16 952.741 1780.59 968.85 1759.14 983.201 1753.65 984.945 1750.29 990.31 1745.03 992.811 1741.79 997.311 1737.55 997.311 1733.07 998.815 1724.95 992.432 1716.23 986.07 1706.75 982.086L1703.51 982.086C1686.8 991.317 1669.84 998.175 1653.13 1007.55 1653.51 1009.67 1656.23 1009.91 1657.63 1011.41 1658.37 1012.8 1660.23 1013.79 1660.61 1015.29 1651.63 1018.02 1641.15 1017.15 1632.55 1020.64 1619.96 1015.42 1608.99 1006.55 1596.02 1002.43 1583.55 996.815 1570.2 993.578 1557.1 989.573L1554.99 989.829C1558.96 1001.3 1568.32 1010.41 1573.56 1021.28 1573.68 1027.88 1579.44 1032.38 1578.67 1038.99 1574.93 1040.61 1578.43 1044.49 1575.68 1046.74 1574.68 1051.23 1572.44 1055.48 1569.08 1059.09L1569.08 1060.85C1563.72 1067.6 1559.97 1076.2 1552 1080.32 1555.73 1081.57 1559.72 1079.57 1563.72 1079.45 1587.4 1071.58 1611.85 1065.09 1632.18 1049.12 1641.28 1050.61 1649.75 1050.72 1658.63 1052.74 1657.63 1054.1 1657 1055.84 1655 1055.73 1653 1058.35 1649.76 1059.09 1647.52 1061.47L1647.76 1062.35C1660.87 1068.45 1673.59 1075.32 1686.68 1081.19 1689.8 1080.57 1691.43 1083.69 1694.54 1083.05 1705.27 1077.32 1715 1069.22 1725.96 1063.84 1728.35 1063.95 1731.32 1064.59 1733.72 1065.6L1733.08 1066.21C1733.08 1067.21 1735.95 1066.83 1733.96 1068.09 1736.19 1067.21 1737.95 1069.08 1739.68 1070.08 1751.53 1079.95 1764.14 1087.81 1776.23 1097.04 1782.21 1099.16 1787.2 1103.66 1792.69 1107.03L1807.27 1116.26C1809.4 1118.39 1811.52 1122.26 1815.39 1121.64 1816.01 1122.5 1816.27 1123.38 1817.26 1124 1825.37 1123.12 1831.35 1114.52 1838.21 1110.03 1843.57 1103.67 1850.81 1098.17 1855.17 1091.42 1858.17 1090.68 1860.79 1091.68 1863.65 1090.55 1866.51 1091.18 1869.27 1090.55 1872.63 1090.55 1902.31 1089.19 1929.75 1082.56 1956.06 1073.08L1956.06 1074.32C1952.33 1080.82 1946.82 1087.19 1940.47 1091.42L1940.47 1092.94 1943.47 1092.94C1950.08 1087.68 1957.68 1080.69 1959.69 1072.59 1973.15 1068.72 1985.75 1063.1 2000.1 1061.47 2003.46 1061.1 2005.7 1056.97 2009.06 1057.59 2012.94 1055.23 2018.06 1055.99 2022.3 1054.61 2032.02 1051.36 2040.5 1045.24 2050.72 1043.12 2054.34 1040.13 2063.82 1042.62 2062.94 1035.13ZM1876.11 950.005C1876.18 949.974 1876.21 949.913 1876.23 949.887L1876.14 950.245C1876.14 950.173 1876.14 950.082 1876.11 950.005Z" fill="#000000" fill-rule="evenodd" fill-opacity="1"/></g></g></svg>