<svg width="85" height="59" xmlns="http://www.w3.org/2000/svg" xmlns:xlink="http://www.w3.org/1999/xlink" xml:space="preserve" overflow="hidden"><defs><clipPath id="clip0"><path d="M483.216 470.063 556.842 493.909 545.979 527.449 472.353 503.603Z" fill-rule="nonzero" clip-rule="nonzero"/></clipPath><clipPath id="clip1"><path d="M483.216 470.063 556.842 493.909 545.979 527.449 472.353 503.603Z" fill-rule="evenodd" clip-rule="evenodd"/></clipPath><clipPath id="clip2"><path d="M483.216 470.063 556.842 493.909 545.979 527.449 472.353 503.603Z" fill-rule="evenodd" clip-rule="evenodd"/></clipPath></defs><g transform="translate(-472 -469)"><g><g clip-path="url(#clip0)"><g clip-path="url(#clip1)"><g clip-path="url(#clip2)"><path d="M24.6047 29.3107C23.9943 28.3067 23.7643 27.8555 23.4238 26.9842 22.6719 25.0735 22.1367 22.7824 21.9288 20.5975L21.8757 20.0358 21.7209 19.996C20.9646 19.8014 18.7045 19.3193 18.678 19.3458 18.6205 19.3989 18.6382 20.655 18.7001 21.0088 18.9301 22.3048 19.4829 23.8174 20.6992 26.449 21.3583 27.8821 21.9023 29.1382 21.8846 29.2001 21.858 29.2797 21.5352 28.8905 21.23 28.3995 21.0575 28.1209 20.7744 27.7361 20.6019 27.5371 19.8102 26.6259 18.877 25.2725 18.2401 24.1049 17.7359 23.1893 17.5324 22.6674 17.2051 21.4998 16.7628 19.9208 16.6036 19.5051 16.2675 19.1291 16.0994 18.9345 15.7987 18.8416 15.3564 18.8416L15.0291 18.8416 15.0556 19.0097C15.0733 19.0981 15.2414 19.8191 15.436 20.6108 16.095 23.3309 16.2631 24.472 16.1481 25.361 15.9844 26.5906 15.5598 26.8648 13.7995 26.8648 13.0343 26.8648 12.8751 26.8515 12.3709 26.7454 10.8361 26.4225 9.53138 25.7591 8.61142 24.8391 7.93029 24.1624 7.49684 23.4326 7.26685 22.5657 7.14301 22.1146 7.14301 22.1102 7.17839 20.2127 7.18281 19.8324 7.12532 19.6687 6.71841 18.9522 6.21862 18.0676 6.01516 17.559 6.01516 17.2096 6.01516 17.0592 6.03286 17.0415 6.40438 16.8115 6.90417 16.4975 8.42123 15.4227 9.04928 14.9318 9.64638 14.4674 10.2523 13.8526 10.3894 13.5695 10.5929 13.1493 10.5088 12.5478 10.1285 11.7207 9.55792 10.4735 9.06698 9.87195 8.3372 9.52254 8.0099 9.36773 7.5278 9.24389 7.24474 9.24389 7.02801 9.24389 7.02801 9.1687 7.23589 8.81929 7.69587 8.05413 8.40796 7.72683 9.40754 7.82856 10.1639 7.90817 10.8008 8.11605 12.1851 8.73526 12.5876 8.91217 12.9768 9.05371 13.1759 9.09351 13.3572 9.1289 13.9808 9.17755 14.5647 9.19966 16.179 9.26601 16.67 9.381 16.7982 9.72157 16.953 10.1329 16.8955 10.3983 16.4886 11.1059 15.896 12.1365 15.4404 13.313 15.2812 14.2108 15.1352 15.0246 15.2591 15.834 15.5421 15.9048 15.719 15.949 15.9667 15.8385 16.1702 15.6262 16.4577 15.3342 16.7275 14.746 17.0813 13.6491 17.5767 12.1144 17.9305 11.2873 18.4966 10.3452 19.076 9.38543 19.9518 8.30181 20.8585 7.4305 21.3361 6.97051 22.7338 5.7321 22.7338 5.7719 22.7338 5.78517 22.1986 6.65649 21.544 7.70914 20.8894 8.75737 20.2746 9.78349 20.1729 9.98252 19.5935 11.1413 19.0805 12.8663 18.8195 14.5337 18.7045 15.2723 18.5895 16.3913 18.6249 16.4267 18.6337 16.44 19.2706 16.5505 20.0358 16.6788 21.2654 16.8778 21.4511 16.9 21.6192 16.8557 21.9598 16.7628 22.0394 16.5196 22.1102 15.3696 22.1544 14.6487 22.3534 13.4501 22.5834 12.539 22.8753 11.389 23.3928 10.0135 23.9943 8.81045 24.6843 7.4305 25.3743 6.4088 26.2323 5.51095 26.48 5.25 26.6879 5.04655 26.6967 5.05539 26.7056 5.06424 26.4313 5.6746 26.0908 6.41765 24.4189 10.0267 24.1845 10.7521 23.9059 13.1405 23.4901 16.6479 23.4813 16.7363 23.5564 16.7938 23.7555 16.9398 24.671 17.0415 25.5423 17.015 26.3871 16.9884 26.7011 16.9309 26.7586 16.7894 26.7763 16.7319 26.8957 16.064 27.0196 15.2989 27.5194 12.2338 27.7671 11.1856 28.2182 10.239 28.4438 9.77464 28.917 9.06255 29.3726 8.51411 29.7618 8.04528 31.0002 6.7936 31.0356 6.82898 31.071 6.86436 30.8498 7.3155 30.527 7.86837 30.3589 8.15143 30.1731 8.47431 30.1068 8.5893 29.7751 9.16428 29.2576 10.6548 28.948 11.9198 28.7622 12.6805 28.2978 14.9848 28.174 15.7677 28.0678 16.4488 28.0192 16.984 28.0678 16.984 28.0899 16.984 28.9214 17.0636 29.921 17.1609 30.9162 17.2582 31.7433 17.3201 31.7565 17.3024 31.7742 17.2848 31.8185 17.0326 31.8627 16.7407 32.0131 15.666 32.3802 13.8658 32.5438 13.3793 32.9905 12.048 33.9901 10.4602 34.9233 9.60215 35.5116 9.06255 35.5116 9.06698 35.1356 9.84983 33.7955 12.6274 33.3488 13.857 33.1055 15.3917 33.0392 15.8296 32.9419 17.2494 32.9773 17.2892 32.9949 17.3113 35.5779 17.5546 35.8079 17.559L35.9406 17.559 36.0379 16.5948C36.0954 16.0552 36.175 15.489 36.2281 15.3077 36.5465 14.1887 37.2454 13.0034 37.8911 12.4947 38.0326 12.3842 38.1609 12.2957 38.1786 12.2957 38.2273 12.2957 38.1919 12.3797 37.6611 13.4899 36.7367 15.4139 36.6129 15.9225 36.7633 17.1963L36.8163 17.6474 38.2803 17.6474 39.7487 17.6474 39.8726 17.1742C40.1247 16.1879 40.4829 15.4581 40.9208 15.0291 41.3719 14.5824 41.3719 14.6929 40.912 15.6571 40.5272 16.4709 40.4254 16.7805 40.3945 17.2582L40.3679 17.6474 40.5272 17.7138C40.7218 17.7934 40.9562 17.7978 41.5887 17.727 41.9912 17.6828 42.084 17.6563 42.1327 17.5811 42.1637 17.5324 42.4202 16.9751 42.7032 16.3471 43.3534 14.8964 43.4065 14.7947 43.7824 14.2374 44.9368 12.5168 46.7104 11.3005 48.6167 10.9069 49.2182 10.7831 50.2885 10.699 50.2885 10.7786 50.2885 10.7919 49.603 11.4863 48.7671 12.3134 46.905 14.1622 46.2018 14.9583 45.5251 15.98 45.043 16.7098 44.7422 17.4351 44.7068 17.9349 44.6936 18.0897 44.7466 18.2003 45.1049 18.7974 45.6843 19.766 46.1443 20.3631 46.8342 21.0531 47.6259 21.8404 48.2275 22.2826 50.1735 23.5078L50.5937 23.7776 50.5141 23.9147C50.3284 24.2155 49.6295 24.4145 48.7494 24.4145 48.0948 24.4145 47.7896 24.3393 47.1615 24.0385 45.6356 23.3088 44.2468 21.8846 43.0615 19.85 42.8227 19.4387 42.6148 19.107 42.6015 19.107 42.5838 19.107 42.46 19.1468 42.3273 19.1999 41.9646 19.337 41.4869 19.4166 41.0181 19.4166 40.651 19.4166 40.6024 19.4254 40.6024 19.4962 40.6024 19.536 40.7306 20.0447 40.881 20.6241 41.0358 21.199 41.142 21.6723 41.1198 21.6723 41.0402 21.6723 40.7837 21.3494 40.6466 21.0708 40.4829 20.739 40.3149 20.257 40.2706 19.996 40.2264 19.7174 40.1335 19.6908 39.5497 19.7837 39.1295 19.8545 37.1481 20.08 36.9844 20.08 36.7854 20.08 37.1348 21.7784 37.6611 23.3751 37.6788 23.4238 37.5815 23.3486 37.4444 23.207 37.0154 22.7647 36.5687 21.7121 36.4404 20.8585 36.4139 20.686 36.3873 20.4781 36.3741 20.4029L36.3519 20.257 34.7597 20.257 33.163 20.257 33.194 20.6019C33.309 21.9288 33.4505 23.2513 33.508 23.5476 33.5478 23.7422 33.7734 24.5118 34.0122 25.2637 34.2466 26.0112 34.4147 26.6038 34.3793 26.5773 34.3484 26.5463 34.2334 26.3827 34.1228 26.2102 33.4063 25.0558 32.5305 22.4861 32.305 20.854 32.2607 20.54 32.2165 20.2702 32.2077 20.257 32.1856 20.2304 28.0722 20.08 28.0457 20.1066 28.0324 20.1154 28.4084 22.0261 28.8772 24.3526 29.346 26.679 29.7176 28.5897 29.7087 28.5986 29.6733 28.634 28.4792 26.5021 28.3022 26.0996 28.0811 25.5866 27.913 24.9364 27.683 23.7289 27.5857 23.1938 27.3955 22.3401 27.2673 21.8271 27.139 21.3185 27.0107 20.7258 26.9798 20.5135L26.9223 20.1331 26.4535 20.1066C26.1969 20.0933 25.5689 20.0712 25.0558 20.0579 24.5472 20.0447 23.9324 20.0225 23.698 20.0093L23.2645 19.9827 23.2645 20.4162C23.2645 20.6594 23.3043 21.1017 23.353 21.4069 23.4061 21.7121 23.552 22.7072 23.6847 23.6184 24.0784 26.3473 24.2376 27.0948 24.7462 28.6605 24.9275 29.2089 25.0956 29.7441 25.1222 29.8547 25.1487 29.9653 25.1797 30.0891 25.1929 30.1333 25.2593 30.35 25.0956 30.1201 24.6047 29.3107Z" fill="#000000" fill-rule="nonzero" fill-opacity="1" transform="matrix(1.3005 0.421216 0.30813 -0.951344 472.354 503.601)"/></g></g></g></g></g></svg>