<svg width="174" height="137" xmlns="http://www.w3.org/2000/svg" xmlns:xlink="http://www.w3.org/1999/xlink" xml:space="preserve" overflow="hidden"><g transform="translate(-4198 -2310)"><g><g><g><g><path d="M106.66 101.182C105.222 100.984 101.143 99.5322 100.271 98.9118 99.6246 98.4498 99.1494 97.7105 99.4002 97.5521 99.651 97.3937 101.525 97.5389 103.03 97.8161 103.756 97.9613 104.958 98.1461 105.684 98.2253 106.991 98.3838 107.043 98.3838 107.994 98.0405 108.535 97.8425 109.208 97.6313 109.499 97.5653 109.789 97.4993 111.069 97.1429 112.337 96.7733 114.752 96.0605 115.28 95.7964 116.125 94.8592 116.693 94.2388 116.601 94.1596 115.531 94.3576 115.016 94.45 114.713 94.4236 114.145 94.252 113.406 94.0276 113.393 94.0276 112.772 94.3312 112.02 94.7008 111.677 94.714 111.135 94.4368 110.871 94.3048 110.436 94.252 109.802 94.2652 109.103 94.2916 108.825 94.2388 108.72 94.0936 108.641 93.988 108.403 93.7108 108.205 93.4599L107.835 93.0243 107.4 93.4467C107.175 93.6712 106.898 93.856 106.806 93.856 106.713 93.856 106.383 93.6448 106.053 93.3807L105.472 92.9055 104.852 93.1167C104.007 93.4071 103.796 93.3807 103.572 92.9715 103.426 92.6811 103.294 92.6019 102.898 92.5887 102.502 92.5755 102.318 92.4831 102.027 92.1267 101.684 91.6911 101.631 91.6779 100.865 91.7175 100.087 91.7571 100.06 91.7571 100.06 91.4271 100.06 91.2422 100.126 91.0574 100.205 91.0046 100.417 90.8858 102.252 90.7142 105.01 90.569 106.621 90.4898 107.875 90.3446 108.905 90.1202 109.736 89.9354 110.779 89.7506 111.215 89.6978 112.416 89.5526 114.766 88.8397 117.485 87.7705 124.098 85.1964 123.729 85.368 125.537 84.0743 126.316 83.5199 127.715 82.7411 129.233 82.0151 131.649 80.8534 133.774 79.6126 134.896 78.7017 135.504 78.2001 135.9 77.4873 136.045 76.6028 136.164 75.8108 135.847 75.6392 134.316 75.6392 133.378 75.6392 133.035 75.5864 132.705 75.3884 131.874 74.8736 132.032 74.2795 133.207 73.4347 133.84 72.9859 133.854 72.9595 133.642 72.7219 133.431 72.4843 132.204 72.0486 130.725 71.679 130.422 71.5998 130.078 71.415 129.973 71.2566 129.854 71.0982 129.748 70.9926 129.709 71.0322 129.682 71.0586 129.418 71.5734 129.115 72.1806 128.811 72.7747 128.547 73.2631 128.521 73.2631 128.494 73.2631 128.217 73.0519 127.913 72.8011 127.319 72.3127 126.989 72.2467 126.171 72.4711 125.511 72.6559 125.379 72.9463 125.484 73.9759 125.564 74.702 125.524 74.9132 125.234 75.5468 125.036 75.9692 124.745 76.3784 124.521 76.5104 124.323 76.6292 123.848 76.9328 123.491 77.1837 122.699 77.7117 122.554 77.7117 121.92 77.2893 121.656 77.1045 121.392 76.9592 121.353 76.9592 121.313 76.9592 120.97 77.2497 120.587 77.6061 120.204 77.9625 119.425 78.4905 118.858 78.7809 118.29 79.0713 117.696 79.4014 117.551 79.507 117.313 79.6918 117.234 79.6522 116.416 78.8865 115.294 77.8305 114.686 77.6193 113.591 77.9493 111.664 78.5037 110.977 79.0185 110.819 80.035 110.7 80.761 110.277 81.7114 110.079 81.7114 109.987 81.7114 109.485 81.2626 108.971 80.7082 107.73 79.3881 107.532 79.4014 107.479 80.827 107.453 81.3814 107.4 81.8435 107.347 81.8435 107.281 81.8435 107.004 81.355 106.727 80.7742 105.908 79.1109 105.393 78.8733 104.245 79.5994 103.294 80.1934 103.096 80.6158 103.083 82.1075 103.057 84.0875 102.859 84.4572 102.238 83.6255 101.922 83.2295 101.855 82.9655 101.763 81.9095 101.697 81.223 101.578 80.5102 101.512 80.3254 101.367 79.9426 100.575 79.5466 100.192 79.6654 99.783 79.7974 99.6246 80.8138 99.783 82.2791 99.9546 83.7971 99.9546 83.6915 99.8094 83.6915 99.5982 83.6915 98.8986 82.4507 98.6742 81.6454 98.3573 80.5366 98.0009 79.903 97.5785 79.6918 96.8657 79.3485 93.6315 78.5037 93.3147 78.5829 93.1167 78.6357 92.8263 78.9261 92.5491 79.4014 92.3115 79.7974 92.0211 80.1274 91.9023 80.1274 91.4139 80.1274 90.8198 79.573 90.437 78.7413 89.9882 77.7909 89.4734 77.3421 88.4305 76.9725 88.0345 76.8404 87.3877 76.5632 86.9917 76.3784 86.0676 75.9428 85.6188 75.9428 85.2228 76.3652 84.9324 76.6688 84.6156 77.4873 84.6156 77.9229 84.6156 78.0417 84.5628 78.2793 84.4836 78.4773L84.3516 78.8205 83.7971 78.5301C82.8995 78.0813 82.1735 77.4345 81.0646 76.0616 80.497 75.362 79.903 74.6623 79.7446 74.5303 79.4674 74.2795 79.4674 74.2795 79.4674 74.5963 79.4674 74.768 79.5202 75.1112 79.5994 75.362L79.7182 75.7976 79.0053 75.7448C78.0945 75.6656 77.3817 75.1904 76.9064 74.3323 76.7216 73.9759 76.286 72.8935 75.956 71.9298 75.3092 70.0158 74.8868 69.0389 74.7151 69.0389 74.5831 69.0389 74.5303 69.2237 74.3191 70.2534 74.2399 70.6758 74.0683 71.1378 73.9363 71.2962 73.7251 71.5602 73.6591 71.5734 73.2367 71.4282 72.9727 71.349 72.6823 71.1774 72.5767 71.0454 72.2862 70.7154 71.8242 68.6825 71.6526 67.006 71.5074 65.5804 71.4942 65.554 71.3226 66.0028 71.0454 66.7156 70.9662 66.8344 70.3722 67.2964 69.8573 67.6793 69.7253 67.7189 68.8541 67.7189 68.3261 67.7189 67.8641 67.7585 67.8113 67.7981 67.7717 67.8377 67.8113 68.0885 67.9037 68.3525 68.1017 68.9069 67.9961 70.0686 67.7189 70.6626 67.6133 70.887 67.1908 71.2434 66.676 71.547 66.2008 71.8242 65.7256 72.1806 65.6332 72.3259 65.488 72.5635 65.5276 72.6691 65.9632 73.1311 66.5836 73.8307 67.1248 74.1475 69.4349 75.1112 71.3886 75.9428 73.8439 77.1837 75.626 78.2529 77.0385 79.0977 81.8963 81.553 82.7543 81.8567 83.1371 81.9887 84.0083 82.1999 84.6684 82.3055 85.8432 82.5167 89.3678 83.1635 90.8198 83.4407 91.2422 83.5199 91.9023 83.8103 92.3775 84.1007 92.8395 84.378 93.3279 84.6156 93.4863 84.6156 93.6315 84.6156 94.5424 84.7872 95.4928 84.9984 96.4433 85.2096 97.5257 85.434 97.8821 85.4868 98.2517 85.5264 98.6874 85.632 98.8722 85.698 99.3342 85.8696 99.9282 86.4636 99.9282 86.7541 99.9282 86.9521 99.8226 86.9917 99.3738 86.9917 98.5686 86.9917 97.8425 87.2161 97.1693 87.6913 96.6017 88.0741 96.5753 88.0873 95.9417 87.9289 95.3212 87.7573 95.2948 87.7705 95.0308 88.1005 94.7272 88.4965 94.1332 88.5493 93.5919 88.2457 93.1431 87.9817 92.7207 88.0081 92.5095 88.2853 92.2323 88.6813 92.0343 88.7341 91.7043 88.5097 91.4007 88.3117 91.3743 88.3249 91.163 88.6417 90.9914 88.9058 90.833 88.9718 90.4238 88.9718 90.0014 88.9718 89.8562 88.8925 89.579 88.5493 89.2754 88.1665 89.2358 88.1533 89.2358 88.3909 89.2358 88.5361 89.117 88.7737 88.9718 88.9058 88.6681 89.183 87.9289 89.1302 87.2425 88.7869 86.8201 88.5757 86.8069 88.5757 86.4636 88.9058 86.1204 89.2358 86.1072 89.2358 85.5396 89.0378 85.2096 88.919 84.6552 88.6945 84.2856 88.5097 83.6915 88.2193 83.2559 88.1269 82.8071 88.1665 82.7147 88.1797 82.5827 88.2985 82.5035 88.4437 82.3847 88.6681 82.4507 88.7869 82.9259 89.2754 83.2427 89.5922 83.7047 90.0938 83.9687 90.3842 84.6288 91.1234 87.4405 92.5359 89.381 93.0903 90.8726 93.5259 90.9122 93.5259 93.3939 93.4995 95.7832 93.4731 95.9548 93.4599 97.0901 93.0771 97.7501 92.8659 98.6346 92.5359 99.0702 92.3511 99.8226 92.0343 100.984 91.8891 100.984 92.1135 100.984 92.3907 99.2946 94.5028 98.8986 94.6876 98.3838 94.9516 97.1033 95.3608 94.978 95.9284 93.1827 96.4037 93.0639 96.4169 90.4634 96.4697 88.4173 96.4961 87.6253 96.4565 87.0313 96.3113 86.6089 96.2057 85.4604 95.9548 84.4836 95.77 81.9491 95.2816 81.3022 95.0836 80.9722 94.6744 80.8138 94.4896 80.2462 94.1464 79.7182 93.922 78.8997 93.5788 78.7281 93.4599 78.6225 93.1299 78.4377 92.4699 78.3321 92.3511 77.9097 92.2191 77.5401 92.1135 77.4081 92.1663 76.8008 92.5887 76.418 92.8527 76.0088 93.0639 75.89 93.0639 75.4148 93.0639 72.8011 92.1135 71.4018 91.4271 69.9366 90.7142 68.2205 89.4866 66.0424 87.5989 65.5936 87.2029 64.7619 86.6353 64.1943 86.3184 63.5607 85.9752 62.8611 85.4472 62.3726 84.9456 61.6466 84.1932 61.5146 84.1139 60.881 84.0347 59.9173 83.9159 59.8381 83.8631 59.7457 83.3747 59.6269 82.7543 59.2441 82.4639 57.6864 81.7906 56.1024 81.1042 55.2839 80.3914 55.0727 79.5202 55.0067 79.2297 54.8483 78.5565 54.7163 78.0153 54.4523 76.88 54.3467 76.6952 53.9111 76.6952 53.5679 76.6952 53.1982 76.1276 53.1982 75.5996 53.1982 75.428 53.4623 74.7284 53.7791 74.0419 54.0959 73.3555 54.4523 72.4711 54.5579 72.075 54.7163 71.5602 54.9275 71.1906 55.3103 70.821 55.6139 70.5306 56.1288 69.9233 56.4588 69.4745 56.7888 69.0257 57.2376 68.5901 57.4356 68.5109 57.7392 68.3789 57.858 68.1809 58.0956 67.468 58.2409 66.9928 58.5841 66.2272 58.8217 65.7652 59.0725 65.3032 59.2441 64.8675 59.1913 64.8015 59.1517 64.7223 59.2309 64.5771 59.3629 64.4847 60.1021 63.9699 61.8842 62.3594 63.4155 60.815 65.1183 59.0989 65.1712 59.0593 66.3988 58.5709 67.0852 58.2937 68.0357 57.858 68.5109 57.6072L69.3689 57.1452 68.7617 57.2244C68.4185 57.264 67.6925 57.4356 67.138 57.6072L66.1348 57.924 66.1348 57.6336C66.1348 57.4884 66.3196 57.0924 66.5308 56.7624 66.9532 56.1156 67.0192 55.8516 66.7684 55.6007 66.5572 55.3895 65.7124 55.4027 65.4088 55.6271 65.2635 55.7327 65.0787 55.7856 64.9863 55.746 64.7091 55.6403 63.1647 56.208 61.871 56.8812 61.211 57.2376 60.0361 57.726 59.2705 57.9636 57.594 58.4653 57.3828 58.5709 55.9968 59.5477 55.4027 59.9833 54.8351 60.3265 54.7295 60.3265 54.6371 60.3265 54.3995 60.2077 54.2015 60.0493 53.7131 59.6665 53.1718 59.8117 52.6306 60.4982 52.4062 60.7886 51.7462 61.4882 51.1786 62.0294 50.5977 62.5838 50.0169 63.2571 49.8849 63.5343 49.7397 63.8115 49.3569 64.2207 49.0269 64.4583 48.314 64.9599 47.9576 65.5936 47.456 67.2568 47.258 67.9169 46.7432 69.1181 46.3208 69.9366 45.8851 70.755 45.5419 71.5206 45.5419 71.6262 45.5419 71.745 44.9083 73.0255 44.1295 74.4775 42.9018 76.7876 42.7038 77.2365 42.5586 78.1473 42.387 79.2693 42.2946 79.507 41.6346 80.4046 41.2649 80.9062 41.0933 81.0382 40.6577 81.1042 40.1693 81.1834 40.1297 81.2098 40.1297 81.6322 40.1297 81.8699 40.2221 82.3319 40.3277 82.6355 40.4333 82.9391 40.5257 83.4407 40.5257 83.7443 40.5257 84.0347 40.6181 84.576 40.7237 84.9324 40.8293 85.2888 40.9217 85.8696 40.9217 86.226 40.9217 86.5693 41.0933 87.4009 41.3177 88.0741 41.5422 88.7473 41.8986 90.371 42.123 91.6779 42.5454 94.2388 42.7302 94.7404 43.7598 96.2717 44.0899 96.7601 44.3539 97.1957 44.3539 97.2221 44.3539 97.3805 43.8258 97.2617 43.5486 97.0373 42.915 96.5357 41.0801 93.8032 40.6709 92.7471 40.4597 92.1927 40.1033 91.4535 39.8921 91.1102 39.3905 90.3182 39.2981 90.0278 38.7568 87.3217 38.506 86.094 38.1496 84.3648 37.9648 83.4935 37.78 82.6223 37.6216 81.6322 37.6216 81.289 37.6216 80.9458 37.5424 80.6026 37.4632 80.5234 37.3708 80.4574 37.1332 80.2726 36.9352 80.1142 36.3807 79.705 36.3543 79.1637 36.7635 76.9725 37.4236 73.3819 37.8196 72.0618 38.7832 70.161 39.2717 69.1841 39.5885 68.7617 40.5653 67.8113L41.7402 66.6628 41.529 66.1216C41.3045 65.5804 41.3309 65.4616 41.7138 65.0127 41.8458 64.8675 42.0174 64.4583 42.0966 64.1019 42.321 63.1779 42.5322 62.8347 43.9051 61.0262 45.3835 59.1121 46.6376 58.0428 48.446 57.1716 49.6473 56.604 49.7529 56.5776 50.7297 56.604 51.2974 56.6172 51.8518 56.5776 51.9706 56.5248 52.0762 56.4588 52.327 56.0892 52.525 55.6931 52.8022 55.1123 53.0398 54.8747 53.8187 54.3467 55.0463 53.5283 61.1846 50.6505 62.9403 50.0829 63.6795 49.8321 64.6035 49.4757 64.9863 49.2777 65.62 48.9477 65.8048 48.9213 67.3228 48.9081 69.0653 48.8949 69.2501 48.8421 70.095 48.182 70.4382 47.9048 70.9002 47.7464 71.9562 47.5352 73.5271 47.2184 74.0683 47.192 74.2795 47.4032 74.4775 47.6012 76.3652 45.7003 77.2233 44.4199 77.6061 43.8391 78.1209 43.113 78.3717 42.8094L78.8205 42.2418 78.5169 42.123C78.3453 42.057 77.9229 41.8722 77.5797 41.727 76.7744 41.3837 76.1672 41.3705 75.5072 41.7138 75.23 41.859 74.5567 42.0438 74.0287 42.123 73.5007 42.2022 72.3522 42.387 71.481 42.519 70.3194 42.7038 69.0389 42.7962 66.7948 42.8226 65.0919 42.849 63.1251 42.9414 62.4254 43.0206 61.5146 43.1394 60.3397 43.1394 58.1353 43.047 56.472 42.9678 53.9375 42.8622 52.4986 42.8226 50.8749 42.7566 49.8585 42.6774 49.7793 42.585 49.7265 42.5058 49.6077 42.0306 49.5285 41.529 49.4493 41.0273 49.3173 40.5521 49.2513 40.4861 49.1589 40.3937 48.8421 40.4597 48.2876 40.6709 47.1524 41.0933 46.1359 41.0537 44.3143 40.5389 42.7566 40.0901 42.1626 39.8261 41.0537 39.0736 40.6577 38.8096 39.9581 38.3872 39.5093 38.1496 39.034 37.8988 38.572 37.5424 38.4268 37.3048 38.1628 36.8956 38.1628 36.8956 38.44 36.6051L38.7172 36.3015 37.4368 35.7075C36.5919 35.3115 35.8527 34.8363 35.2059 34.2818 34.6779 33.833 33.767 33.0542 33.1598 32.5526 31.8793 31.4965 30.6121 30.0445 30.1369 29.1072 29.9521 28.7508 29.6617 28.2624 29.49 28.0248 29.094 27.4968 29.094 27.4836 29.5296 27.0347 29.8465 26.7047 29.8597 26.6519 29.6617 26.4935 29.226 26.1635 29.0016 25.0019 29.358 24.9227 29.5164 24.8962 29.5032 24.7642 29.2788 24.157 29.1336 23.761 28.8696 23.0482 28.698 22.573 28.5264 22.0977 28.3812 21.4509 28.3812 21.1209 28.3812 20.7909 28.3284 20.3157 28.2624 20.0516 28.1964 19.7348 28.2096 19.22 28.3284 18.5996 28.434 17.9396 28.4736 17.0551 28.4208 15.8935 28.3548 14.3754 28.3812 14.0586 28.6188 13.2534 28.7772 12.7517 28.9356 12.0785 28.9752 11.7485 29.0412 11.2733 29.1732 11.0621 29.6088 10.666 29.9125 10.402 30.1765 10.1908 30.1897 10.2172 30.2161 10.2436 30.1369 10.4812 30.0181 10.7717 29.8597 11.1413 29.7673 12.0521 29.6749 14.1246 29.5428 16.7383 29.556 17.1343 29.8201 19.1936 29.9785 20.4213 30.2293 21.7545 30.3745 22.1637 30.5197 22.573 30.7705 23.3386 30.9025 23.8798 31.3249 25.4507 31.3777 25.5167 32.4998 25.7939 33.635 26.0843 34.0442 26.2955 35.3643 27.3252 37.714 29.1468 41.1857 31.6813 42.0438 32.2094 43.1922 32.909 43.4166 33.0938 44.4859 34.2554 44.9479 34.7703 45.5419 35.2719 45.7927 35.3907 46.0567 35.5095 46.5716 35.8659 46.928 36.1959 47.2976 36.5259 47.9576 36.988 48.4196 37.2124L49.2513 37.6348 49.6473 37.2916C49.9773 37.0276 50.1885 36.9616 50.8221 36.9616L51.601 36.9616 51.403 36.6051C51.3106 36.3939 51.2182 36.0111 51.2182 35.7471 51.2182 35.1663 50.9277 34.9287 49.8981 34.6515 49.1193 34.4403 48.8421 34.229 48.2744 33.3974 48.05 33.0674 47.4824 32.381 47.0072 31.8793 45.6343 30.4273 45.6079 30.3217 45.6475 27.6156 45.6739 26.3615 45.7399 25.1603 45.8059 24.9491 45.8983 24.619 45.8323 24.4342 45.3835 23.7478 44.9347 23.035 44.8423 22.7842 44.7499 21.8469 44.6839 21.2265 44.4595 20.2629 44.2219 19.5896 43.8126 18.4544 43.7598 18.1112 43.443 14.7186 43.3638 13.9926 43.245 13.2006 43.1658 12.9629 43.0734 12.7253 43.0338 12.4085 43.0866 12.2369 43.1922 11.8013 43.641 11.3657 43.9183 11.4317 44.3143 11.5373 45.0799 10.6132 45.3439 9.70241 45.5947 8.80477 45.8059 8.52756 46.466 8.18435 46.7168 8.05234 47.2844 7.64312 47.72 7.27351 48.1424 6.90389 48.5516 6.60028 48.6045 6.60028 48.6573 6.60028 49.2249 6.12506 49.8585 5.53103 50.9013 4.56739 51.2578 4.34298 53.3567 3.31334 54.6371 2.66651 56.0892 2.03289 56.5908 1.87448 57.5016 1.59727 58.7425 1.41246 58.7425 1.57087 58.7425 1.72927 57.6072 2.3497 56.4984 2.77212 55.4819 3.16813 55.2443 3.33974 54.0563 4.48819 53.3302 5.18782 52.2082 6.12506 51.5482 6.57388 50.2017 7.48472 49.6209 8.05234 47.984 10.0324L46.8488 11.4185 46.9016 12.1445C46.9412 12.7121 47.1656 13.3458 47.9576 14.9826 48.5384 16.2103 49.0137 17.4247 49.1061 17.8868 49.1853 18.3224 49.4229 19.22 49.6341 19.8668 50.2809 21.9393 51.0598 24.6058 51.1522 25.0811 51.205 25.3319 51.3898 25.8071 51.5746 26.1239 51.865 26.6255 51.931 26.9159 51.9706 28.104 51.997 28.8696 52.0234 29.7805 52.0234 30.1369L52.0102 30.7573 52.8418 30.7573C53.2906 30.7573 54.0167 30.6913 54.4523 30.5989 54.9407 30.5065 56.736 30.4405 59.2045 30.4273 61.3826 30.4141 63.7587 30.3349 64.4847 30.2557 65.5936 30.1237 69.4745 29.7937 73.5403 29.4768 74.6888 29.3976 75.2564 29.5824 76.3388 30.4141L76.9856 30.9025 77.5269 30.5593C78.4905 29.9125 78.8337 29.9521 80.299 30.9421 81.5398 31.7737 81.6454 31.8133 82.3847 31.8133 83.2691 31.8133 84.0875 32.1038 85.6452 32.9882 86.424 33.437 86.6485 33.5162 86.8597 33.3974 87.0049 33.3182 87.1237 33.2126 87.1237 33.1598 87.1105 32.9882 84.6552 31.9453 84.444 32.0246 84.3252 32.0642 83.9951 31.9981 83.6915 31.8661 83.2163 31.6549 83.1371 31.5493 82.9523 30.9025 82.7543 30.2293 82.7675 28.8036 82.9787 28.0908 83.0711 27.7872 82.6223 27.774 81.8435 28.0512 81.0646 28.3284 80.959 28.302 80.7082 27.8268 80.5894 27.5892 80.4706 27.3648 80.4442 27.3384 80.431 27.3252 79.8634 27.576 79.1901 27.906 78.2265 28.3944 77.7513 28.5528 76.9064 28.6584 76.3124 28.7244 75.2168 28.9092 74.4511 29.0412 71.0454 29.6749 70.0554 29.7145 68.3525 29.2656 67.0984 28.9224 66.6628 28.6452 66.6628 28.1568 66.6628 27.8136 66.6496 27.8136 65.554 27.8004L64.7619 27.7872 64.4055 26.8235C63.9171 25.5035 63.7587 24.7906 63.7191 23.695 63.6927 22.8238 63.7323 22.6786 64.3395 21.4245 64.6959 20.6721 64.9599 20.0384 64.9203 19.9988 64.8807 19.9592 64.4979 19.8668 64.0755 19.7876 63.6531 19.7084 63.2043 19.6028 63.0987 19.55 62.9931 19.4972 62.6894 19.0484 62.4386 18.5468 61.9898 17.6491 61.9766 17.5831 61.9898 16.1047 61.9898 14.2962 62.1482 13.8474 63.0195 13.1214L63.6267 12.6197 63.5475 11.7485C63.4683 10.9169 63.4815 10.8509 63.8379 10.4152 64.0491 10.1644 64.4583 9.62321 64.7355 9.20079 65.3692 8.25035 66.2008 7.52432 67.3228 6.94349 69.0257 6.05906 71.9826 5.10862 74.2003 4.739 74.9924 4.60699 75.4808 4.60699 76.4708 4.7258 77.1705 4.8182 78.0021 4.88421 78.3189 4.88421 78.6357 4.88421 79.0977 4.95021 79.3485 5.04261 79.9294 5.24062 81.9227 6.58708 82.4243 7.1019 82.7543 7.45831 82.7939 7.56392 82.7015 8.01274 82.5431 8.91038 81.4738 10.7717 80.6554 11.6033 79.2561 13.0289 78.0417 13.7154 75.0056 14.7846 72.4579 15.6823 72.141 15.9727 72.5899 17.0155 73.0123 18.0188 72.9727 18.098 70.0686 21.2793 68.9729 22.4937 68.1281 23.6818 68.2733 23.827 68.3789 23.9458 71.7318 23.0746 72.6691 22.6918L73.7251 22.2561 76.1012 22.2429C78.2397 22.2429 78.5697 22.2693 79.3354 22.5466 79.8106 22.705 80.4574 23.0218 80.7874 23.233 81.487 23.7082 81.5662 23.7082 82.2527 23.365 82.6355 23.1538 82.8995 23.1142 83.2691 23.1802 84.1139 23.3386 84.4308 23.5894 85.3944 24.8566 86.3844 26.1899 86.5164 26.2559 87.7837 26.2691 88.0345 26.2691 88.6021 26.4275 89.0378 26.6123 89.4734 26.8103 90.1862 27.0875 90.6218 27.2459 91.0574 27.4176 91.6119 27.6552 91.8627 27.774L92.3115 28.0116 92.2191 27.6948C92.1663 27.5364 92.0871 27.2988 92.0475 27.1799 91.9947 27.0083 92.1663 26.8895 92.7603 26.6651 93.4995 26.3747 93.6183 26.3747 96.2321 26.4803 97.7237 26.5463 100.007 26.5991 101.314 26.5991 105.063 26.5991 108.033 26.8763 109.829 27.3912 110.225 27.4968 110.885 27.5892 111.307 27.5892 112.192 27.5892 113.3 27.8004 113.855 28.0908 114.238 28.2888 114.238 28.2888 113.947 28.3944 113.617 28.5264 113.578 28.6848 113.828 28.896 113.974 29.0016 114.066 28.9752 114.264 28.764 114.396 28.6056 114.871 28.302 115.307 28.104 115.98 27.774 116.271 27.7212 117.168 27.7212L118.237 27.7212 119.386 26.4011C121.115 24.4342 121.366 24.2494 122.026 24.355 123.24 24.553 123.597 24.5002 124.415 23.9986 125.418 23.3914 126.013 23.2594 126.118 23.5894 126.184 23.7874 126.356 23.827 127.293 23.8402 128.283 23.8534 128.507 23.9062 129.577 24.3946 131.28 25.1603 131.9 25.2659 134.078 25.0811 135.821 24.9359 137.55 24.619 137.55 24.4342 137.55 24.2758 136.626 23.7346 135.029 22.9558 132.692 21.8073 130.857 20.2497 130.25 18.89 129.88 18.032 129.986 16.7779 130.54 15.6427 131.042 14.6262 131.332 14.4018 132.771 13.9398 133.365 13.7418 133.854 13.5306 133.854 13.4778 133.854 13.425 133.629 13.3062 133.365 13.2138 132.639 12.9497 132.058 12.4877 131.042 11.3657 128.785 8.87077 127.676 6.32307 126.857 1.82168 126.607 0.409217 126.646 0.290412 127.359 0.0660028 127.755-0.0528022 131.148 0.250811 131.808 0.46202 132.098 0.554423 132.547 0.673228 132.798 0.726031 133.048 0.778833 133.801 0.990042 134.448 1.20125 135.821 1.63687 136.217 1.95368 137.061 3.24734 137.378 3.74896 138.078 4.6598 138.606 5.26702 139.543 6.36267 139.701 6.62668 140.969 9.4516 141.668 10.9961 141.695 11.7749 141.114 12.9365 140.639 13.8738 140.639 13.9134 140.995 15.2598 141.404 16.8175 141.312 17.3851 140.401 18.9692 139.332 20.8701 139.305 20.9625 139.847 22.1637 140.098 22.7182 140.335 23.4046 140.375 23.695 140.428 23.9854 140.586 24.7378 140.744 25.3847 141.114 26.9027 140.969 27.6816 140.19 28.4472 139.9 28.7376 139.477 29.2788 139.239 29.6485 138.843 30.3217 138.804 30.3481 138.025 30.4801 136.718 30.7177 133.233 31.1401 131.874 31.2325 129.656 31.3777 125.669 30.8101 123.267 29.9917 122.224 29.6353 121.802 29.556 121.696 29.6617 121.617 29.7409 121.445 30.2821 121.313 30.8497 121.168 31.4437 120.719 32.6054 120.257 33.569 119.808 34.4931 119.491 35.2983 119.531 35.3775 119.584 35.4567 119.967 35.2191 120.455 34.8231 121.274 34.1366 125.669 31.8133 126.131 31.8133 126.25 31.8133 126.448 32.051 126.607 32.4074 126.752 32.7374 126.91 33.0014 126.963 33.0014 127.029 33.0014 127.306 32.7638 127.583 32.4734 127.913 32.1302 128.217 31.9453 128.441 31.9453 128.626 31.9453 128.983 31.8793 129.233 31.8001 129.497 31.7077 131.372 31.6021 133.59 31.5493 135.913 31.4833 138.091 31.3645 139.002 31.2325 139.833 31.1137 141.378 30.9289 142.434 30.8233 144.084 30.6517 146.223 30.2425 149.232 29.5032 150.592 29.1732 151.001 29.1336 151.41 29.3052 152.057 29.5692 152.163 29.3712 152.229 27.7476 152.282 26.4275 152.334 26.2427 152.902 24.8698 153.509 23.4574 155.239 20.2629 155.833 19.4708 155.991 19.2596 156.255 18.824 156.413 18.5204 156.572 18.2036 156.994 17.7151 157.364 17.4247 158.143 16.8175 159.793 14.3754 159.687 14.019 159.648 13.887 159.41 13.3062 159.159 12.7121 158.631 11.4581 154.909 5.97985 153.562 4.46179 152.387 3.14173 152.282 2.90412 152.519 2.3101 152.757 1.75567 152.849 1.74247 153.272 2.19129 153.443 2.3893 154.05 2.89092 154.618 3.32654 156.017 4.39579 158.855 7.1679 159.859 8.43516 160.308 9.00278 160.849 9.5968 161.06 9.75521 161.535 10.0984 161.905 11.2997 162.09 13.0289 162.169 13.7022 162.34 14.5338 162.486 14.8638 163.119 16.2763 162.684 18.2828 161.258 20.5929L160.413 21.9789 160.981 22.573C161.852 23.497 162.433 24.3286 163.106 25.6223 163.581 26.5331 163.911 26.9687 164.505 27.4968 164.928 27.8796 165.522 28.5264 165.812 28.9356 166.103 29.358 166.591 29.9917 166.908 30.3613 167.462 31.0081 167.502 31.1137 167.779 32.645 167.951 33.5294 168.254 34.6515 168.452 35.1399 169.073 36.6447 169.073 36.7371 168.307 38.1496 167.951 38.836 167.317 40.0241 166.934 40.7897 165.865 42.849 165.443 43.377 164.057 44.3539 163.37 44.8423 162.736 45.3967 162.631 45.6079 161.918 46.9676 160.836 48.6309 160.387 49.0137 160.096 49.2645 159.476 49.6605 159.001 49.8981 158.209 50.2941 158.103 50.3205 157.298 50.2281 156.532 50.1489 156.387 50.1753 156.017 50.4393L155.608 50.7297 154.579 50.4393C153.192 50.0301 153.087 50.0697 152.981 50.9277 152.928 51.3106 152.849 51.667 152.81 51.7066 152.77 51.7594 152.414 51.7198 152.044 51.6406 151.661 51.5482 150.605 51.3898 149.694 51.2842 147.859 51.0466 146.223 50.6901 143.516 49.9113 142.526 49.6209 140.494 49.0797 139.002 48.7233 137.51 48.3536 135.557 47.7728 134.646 47.4428 132.468 46.6376 128.23 45.1987 127.649 45.0799L127.187 44.9875 127.465 45.2911C129.946 48.116 130.778 49.3701 131.742 51.7858 132.085 52.6702 132.124 52.6966 133.774 53.0002 135.187 53.2642 137.669 54.1355 138.249 54.5711 139.147 55.2443 142.46 57.1452 143.437 57.5544 145.668 58.4785 146.143 58.7821 146.487 59.5081 146.632 59.7985 147.133 60.2737 147.925 60.8678 148.585 61.3562 149.179 61.8182 149.219 61.8842 149.259 61.9634 149.061 62.3066 148.77 62.6498 148.189 63.3495 148.163 63.4287 148.414 63.5343 148.783 63.6795 151.806 66.016 151.991 66.2932 152.757 67.4944 153.285 71.349 153.153 74.6096 153.047 76.9592 153.008 77.0517 152.031 77.2893 151.582 77.3949 151.49 77.4741 151.516 77.6853 151.542 77.8305 151.569 78.8469 151.569 79.9294 151.569 81.4738 151.503 82.1603 151.292 83.0843 151.133 83.7179 150.922 84.8136 150.803 85.5132 150.579 86.9521 150.038 88.4305 149.351 89.579 149.087 90.0014 148.81 90.6218 148.757 90.9386 148.599 91.7043 148.48 91.8231 147.675 92.0079 147.292 92.1003 146.592 92.3247 146.091 92.4963 145.602 92.6679 144.718 92.8923 144.11 92.9979 142.711 93.2355 135.636 93.3807 134.052 93.2223L132.864 93.0903 132.098 93.5655C131.676 93.8428 130.791 94.4104 130.118 94.8328 127.28 96.6545 125.445 97.3805 120.785 98.5554 118.647 99.0834 115.558 99.9282 113.921 100.403 111.149 101.222 110.845 101.275 109.433 101.327 108.575 101.354 107.373 101.288 106.66 101.182ZM142.843 88.6945C143.318 88.5625 143.807 88.3381 143.926 88.2193 144.19 87.9157 144.52 86.7013 144.559 85.9356 144.599 85.0116 144.52 83.2031 144.454 83.4935 144.282 84.246 144.084 84.6684 143.662 85.17 143.398 85.4868 143.054 85.962 142.87 86.2392 142.698 86.5033 142.487 86.7277 142.394 86.7277 141.814 86.7277 141.206 87.0709 140.546 87.7573 139.794 88.5229 139.015 89.4866 139.002 89.6582 139.002 89.7374 140.969 89.249 142.843 88.6945ZM145.206 75.8372C145.365 74.9264 145.404 74.834 145.721 74.768 146.896 74.5171 146.975 74.3059 146.869 71.745 146.803 70.2006 146.83 69.4745 147.001 68.4317 147.16 67.4812 147.186 66.94 147.094 66.5836 146.988 66.1216 146.935 66.0688 146.447 65.9896 145.351 65.7916 143.78 65.1712 142.566 64.4319 139.886 62.795 136.613 61.0922 135.834 60.9206 135.161 60.7754 135.134 60.7358 135.53 60.4057L135.887 60.1021 134.949 59.8777C134.434 59.7457 133.827 59.6665 133.576 59.6929 133.088 59.7325 133.088 59.7193 133.273 61.1582 133.339 61.6598 133.418 61.8182 133.708 61.9766 134.17 62.201 137.167 65.5012 138.513 67.2436 139.094 67.9697 139.781 68.8145 140.058 69.1049 140.335 69.3953 140.718 69.963 140.916 70.359 141.8 72.1278 142.909 73.9099 143.569 74.5831 144.216 75.2564 144.81 76.3124 144.81 76.7744 144.81 76.8932 144.863 76.946 144.929 76.9064 144.982 76.8668 145.114 76.3916 145.206 75.8372ZM155.107 46.3076C155.635 45.2119 155.885 44.8819 157.43 43.2978 158.38 42.321 159.397 41.1461 159.7 40.6973 160.268 39.8525 161.35 38.704 161.905 38.3344 162.09 38.2156 162.499 37.714 162.829 37.2256 163.555 36.1035 165.047 34.7835 165.707 34.6647 165.971 34.6119 166.221 34.5195 166.261 34.4535 166.433 34.1762 165.759 32.1302 165.258 31.3909 164.967 30.9817 164.281 29.7937 163.74 28.7508 163.198 27.708 162.433 26.3879 162.05 25.8071 161.654 25.2263 161.086 24.289 160.783 23.7346 160.466 23.167 160.176 22.705 160.136 22.705 160.096 22.7182 159.766 23.1406 159.397 23.6554 159.04 24.1834 158.486 24.8566 158.169 25.1603 157.601 25.7147 157.601 25.7147 157.799 26.1239 157.918 26.3351 158.011 26.6651 158.011 26.8367 158.011 27.642 156.427 31.4965 155.885 32.0246 155.582 32.315 155.107 32.513 154.011 32.8166L152.532 33.2258 152.493 33.767C152.453 34.2158 152.361 34.3875 151.965 34.7175 151.701 34.9287 151.424 35.1135 151.358 35.1135 151.278 35.1135 150.566 35.4435 149.747 35.8395 148.717 36.3675 147.978 36.6315 147.239 36.7635 144.322 37.3048 142.262 37.648 140.916 37.8196 140.098 37.9252 139.213 38.11 138.962 38.2156 138.698 38.3212 137.721 38.6248 136.797 38.8756 134.804 39.4169 134.038 39.4565 131.53 39.0868 129.418 38.77 128.666 38.5192 127.333 37.648 126.065 36.8032 125.537 36.7635 124.125 37.3444 123.069 37.78 122.092 38.308 122.145 38.4268 122.158 38.4664 122.541 38.9152 122.99 39.4037L123.821 40.2881 124.31 40.0505C124.666 39.8921 125.128 39.8261 125.867 39.8261 127.61 39.8261 130.171 40.1033 131.016 40.3805 131.451 40.5257 132.283 40.7633 132.877 40.9085 134.038 41.1989 134.395 41.3441 136.151 42.1362 136.797 42.4398 138.038 42.849 138.909 43.0602 139.781 43.2582 141.061 43.6806 141.761 43.9711 143.437 44.6839 147.793 45.6871 150.948 46.0699 152.717 46.2944 153.39 46.5188 153.918 47.06 154.156 47.3108 154.407 47.522 154.447 47.522 154.486 47.522 154.79 46.9676 155.107 46.3076ZM82.6355 38.1364C82.6355 38.0704 82.5167 38.0176 82.3715 38.0176 81.9227 38.0176 80.8138 37.384 80.2594 36.8032 79.7446 36.2751 79.6918 36.1827 79.6786 35.5095 79.6654 35.1927 79.639 35.1795 78.7149 35.2059 77.8173 35.2323 77.7777 35.2191 77.6985 34.9023 77.6457 34.7307 77.5665 34.5855 77.5137 34.5855 77.4609 34.5855 77.1969 34.8495 76.9196 35.1663 76.4312 35.7471 76.0484 35.9187 74.7151 36.0771 74.4379 36.1167 74.4643 36.1431 74.9264 36.2751 75.2168 36.3543 75.5996 36.5787 75.7844 36.7768 76.0616 37.0804 76.1672 37.1068 76.6952 37.0276 78.2265 36.79 80.0482 37.1596 81.8435 38.0704 82.4243 38.3608 82.6355 38.3872 82.6355 38.1364Z" fill="#581E2A" fill-rule="nonzero" fill-opacity="1" transform="matrix(1 0 0 -1.29216 4202.02 2445)"/></g></g></g></g></g></svg>