<svg width="40" height="108" xmlns="http://www.w3.org/2000/svg" xmlns:xlink="http://www.w3.org/1999/xlink" xml:space="preserve" overflow="hidden"><g transform="translate(-1020 -616)"><g><g><g><g><g><path d="M151.647 173.851 151.647 173.851C151.549 173.265 151.23 170.419 150.681 169.504 150.44 169.102 150.167 168.716 149.957 168.296 149.313 167.008 150.237 168.113 149.233 166.606 149.107 166.416 148.911 166.284 148.751 166.123 148.68 164.31 149.247 160.775 148.027 158.636 147.913 158.438 147.705 158.314 147.543 158.153 147.463 157.67 147.484 157.159 147.302 156.704 146.914 155.733 146.203 155.513 145.371 155.014 144.284 152.839 145.527 155.521 144.405 151.874 144.23 151.305 143.769 150.678 143.44 150.184 143.359 149.7 143.526 149.098 143.199 148.735 142.717 148.199 141.267 147.768 141.267 147.768 141.027 147.447 140.828 147.087 140.543 146.803 140.041 146.299 138.945 145.698 138.371 145.353 138.532 145.112 138.585 144.737 138.854 144.629 139.09 144.534 139.344 144.77 139.578 144.871 139.909 145.013 140.221 145.193 140.543 145.353 142.238 147.614 141.203 147.128 143.199 147.527 143.648 147.976 143.797 148.189 144.405 148.493 144.633 148.607 144.889 148.654 145.129 148.735L146.337 149.942 146.819 150.425C146.9 150.667 146.947 150.922 147.061 151.149 147.191 151.409 147.444 151.601 147.543 151.874 147.77 152.498 147.557 153.337 148.027 153.806 148.187 153.967 148.367 154.112 148.509 154.289 148.69 154.516 148.786 154.808 148.991 155.014 149.197 155.219 149.475 155.335 149.716 155.497 149.877 155.738 150.013 155.998 150.199 156.221 150.417 156.483 150.77 156.64 150.923 156.946 151.264 157.629 151.647 159.119 151.647 159.119 152.21 159.039 153.118 159.403 153.337 158.878 153.682 158.047 153.06 157.097 152.853 156.221 152.456 154.53 152.686 154.93 151.405 154.289 149.902 152.785 152.079 154.819 150.199 153.565 149.915 153.375 149.748 153.045 149.475 152.84 149.099 152.558 148.658 152.376 148.267 152.116 147.933 151.892 147.624 151.633 147.302 151.391 147.141 151.069 146.961 150.756 146.819 150.425 146.502 149.683 146.715 149.468 145.854 148.976 145.566 148.812 145.21 148.815 144.889 148.735 144.727 148.574 144.6 148.368 144.405 148.252 144.187 148.12 143.915 148.11 143.681 148.01 143.351 147.868 143.038 147.688 142.716 147.527 141.888 145.04 141.849 145.208 142.716 140.523 142.777 140.197 143.359 140.363 143.681 140.282 143.923 140.121 144.217 140.019 144.405 139.799 145.281 138.778 145.158 138.422 145.371 137.142 145.693 137.304 146.082 137.371 146.337 137.626 146.747 138.036 147.302 139.074 147.302 139.074 147.909 140.895 147.09 138.651 148.027 140.523 148.901 142.275 147.328 139.963 148.751 142.455 148.863 142.653 149.091 142.761 149.233 142.939 150.577 144.62 148.72 142.666 150.44 144.387 150.852 146.036 150.443 144.696 151.164 146.32 151.34 146.715 151.432 147.15 151.647 147.527 151.759 147.725 152.003 147.821 152.129 148.01 152.329 148.31 152.387 148.695 152.613 148.976 153.039 149.509 154.061 150.425 154.061 150.425 154.85 154.373 155.083 155.242 154.543 153.081 154.211 149.759 153.966 148.428 154.543 144.387 154.584 144.1 155.026 144.066 155.267 143.904 155.187 143.26 155.528 142.384 155.026 141.972 154.401 141.46 153.4 141.913 152.613 141.731 152.329 141.665 152.129 141.409 151.889 141.248 151.727 140.926 151.347 140.637 151.405 140.282 151.461 139.951 152.627 139.633 152.853 139.558 152.934 139.316 153.05 139.083 153.095 138.833 153.211 138.194 153.068 137.491 153.337 136.901 153.503 136.534 153.98 136.418 154.302 136.177 154.383 135.935 154.543 135.706 154.543 135.452 154.543 135.041 154.41 134.64 154.302 134.245 153.904 132.785 154.001 133.067 153.337 132.071 153.256 131.749 153.16 131.43 153.095 131.105 152.999 130.625 153.181 130.02 152.853 129.656 152.372 129.121 151.521 129.089 150.923 128.69 150.681 128.529 150.464 128.324 150.199 128.207 149.733 128 149.233 127.885 148.751 127.724 148.509 127.643 148.254 127.596 148.027 127.482L147.061 126.999C146.9 126.597 146.617 126.223 146.578 125.791 146.284 122.556 149.323 124.457 152.129 124.584 153.635 125.588 151.937 124.599 154.302 125.309 154.646 125.412 154.945 125.631 155.267 125.791 155.429 125.55 155.726 125.356 155.751 125.067 155.811 124.34 155.779 123.571 155.509 122.894 155.414 122.657 155.039 122.671 154.785 122.652 152.938 122.51 151.083 122.491 149.233 122.411 148.01 121.187 149.593 122.626 148.027 121.686 147.831 121.569 147.725 121.339 147.543 121.203 147.079 120.855 146.578 120.559 146.095 120.237 145.028 118.636 146.282 120.415 144.889 118.788 144.626 118.483 144.405 118.144 144.165 117.822 144.131 117.556 144.034 115.753 143.681 115.165 142.334 112.919 144.165 116.858 142.716 113.958 142.032 112.59 142.598 112.934 141.509 112.026 141.286 111.84 141.07 111.6 140.785 111.543 139.835 111.353 138.854 111.382 137.889 111.301 137.567 111.141 137.153 111.095 136.923 110.818 136.711 110.564 136.681 110.184 136.681 109.852 136.681 108.401 136.638 106.928 136.923 105.505 136.98 105.22 137.388 105.152 137.647 105.023 137.993 104.849 139.027 104.617 139.337 104.539 139.981 104.781 140.718 104.851 141.267 105.264 141.49 105.431 142.746 107.568 142.957 107.92 143.038 108.242 143.093 108.571 143.199 108.887 143.569 109.997 143.881 110.584 144.647 111.543 144.969 111.946 145.228 112.408 145.613 112.75 145.963 113.062 146.456 113.177 146.819 113.475 147.348 113.907 147.62 114.708 148.267 114.924 149.333 115.279 148.764 115.051 149.957 115.649 151.095 117.356 149.667 115.241 151.164 117.339 151.333 117.575 151.476 117.829 151.647 118.064 152.12 118.715 152.648 119.326 153.095 119.995 153.479 120.571 154.104 121.715 154.785 122.169 154.996 122.31 155.267 122.33 155.509 122.411 156.215 120.998 156.389 121.143 155.509 119.03 155.397 118.761 155.008 118.732 154.785 118.546 154.522 118.328 154.302 118.064 154.061 117.822 154.141 117.5 154.154 117.153 154.302 116.856 154.679 116.102 155.533 116.249 156.233 116.132 156.153 115.568 156.246 114.95 155.991 114.441 155.878 114.213 155.475 114.347 155.267 114.2 154.897 113.934 154.624 113.555 154.302 113.233 154.624 113.073 154.93 112.877 155.267 112.75 155.578 112.634 156.085 112.806 156.233 112.509 156.417 112.141 156.219 111.643 155.991 111.301 155.85 111.09 155.516 111.115 155.267 111.06 154.79 110.954 154.302 110.899 153.819 110.818 153.497 110.657 153.108 110.59 152.853 110.336 152.354 109.835 152.252 108.773 152.129 108.162 152.21 107.437 152.046 106.641 152.371 105.988 152.519 105.691 153.077 105.955 153.337 105.747 153.535 105.588 153.497 105.264 153.578 105.023 153.497 103.654 153.545 102.272 153.337 100.917 153.221 100.162 152.853 99.4679 152.613 98.7431 152.532 98.5015 152.582 98.1603 152.371 98.019 152.129 97.8577 151.873 97.7172 151.647 97.5359 151.469 97.3932 151.359 97.1702 151.164 97.0527 150.946 96.9215 150.674 96.9114 150.44 96.8111 149.582 96.4433 149.478 96.33 148.751 95.8454 148.589 95.6038 148.397 95.3801 148.267 95.1206 148.074 94.7327 147.933 94.3205 147.785 93.9133 147.611 93.4344 147.53 92.9197 147.302 92.4644L146.819 91.498C146.981 90.7739 146.857 89.9187 147.302 89.3243 147.501 89.0591 147.986 89.3903 148.267 89.5659 148.654 89.8075 149.233 90.5323 149.233 90.5323 149.487 91.8006 149.342 91.6285 149.957 92.7053 150.101 92.9576 150.217 93.2444 150.44 93.4301 150.838 93.762 151.627 93.9871 152.129 94.1549 152.451 94.7987 152.696 95.4876 153.095 96.087 153.256 96.3286 153.326 96.667 153.578 96.8111 153.934 97.0146 154.383 96.9724 154.785 97.0527 154.463 96.7308 154.072 96.4655 153.819 96.087 153.42 95.4876 152.853 94.1549 152.853 94.1549 152.542 92.5963 152.306 92.1855 153.095 90.2907 153.193 90.0556 153.575 90.1194 153.819 90.0491 154.138 89.9581 154.474 89.9244 154.785 89.8075 155.122 89.6814 155.419 89.4663 155.751 89.3243 155.984 89.2247 156.233 89.1637 156.475 89.0835 156.394 88.3587 156.336 87.631 156.233 86.9098 156.102 85.9893 155.972 85.1992 155.267 84.4945 154.936 84.1626 154.463 84.0113 154.061 83.7697 152.407 81.2885 152.589 81.8369 153.337 76.0421 153.392 75.612 154.141 75.7202 154.543 75.5589 155.026 75.6392 155.537 75.6184 155.991 75.8005 156.365 75.9496 156.563 76.6042 156.957 76.5246 157.283 76.4601 157.014 75.8349 157.199 75.5589 157.359 75.3173 157.681 75.237 157.923 75.0757 158.245 75.3173 158.626 75.4951 158.888 75.8005 159.122 76.0737 159.192 76.4536 159.371 76.7662 159.515 77.0186 159.693 77.2494 159.853 77.491 159.644 76.2335 159.332 75.1725 159.853 73.8684 159.948 73.6319 160.337 73.7071 160.577 73.6268 160.819 73.3852 161.043 73.125 161.302 72.902 161.608 72.6404 161.983 72.4626 162.267 72.178 162.472 71.9729 162.589 71.6948 162.75 71.4534 162.911 70.9703 162.741 70.1339 163.233 70.0044 166.384 69.1746 166.648 69.9167 168.543 70.9703 168.858 71.1452 169.2 71.2681 169.509 71.4534 170.006 71.7521 170.957 72.4196 170.957 72.4196 170.715 72.5801 170.505 72.8002 170.233 72.902 169.849 73.0461 169.426 73.0547 169.026 73.1436 168.702 73.216 168.38 73.2978 168.061 73.3852 167.414 73.5616 165.595 74.0706 164.923 74.3516 164.424 74.5588 163.923 74.7761 163.475 75.0757 162.686 75.6019 162.695 76.0966 162.026 76.7662 161.742 77.0508 161.366 77.2293 161.061 77.491 160.338 78.1111 160.35 78.195 159.853 78.9399 159.595 80.4898 159.371 81.5939 159.371 83.2872 159.371 85.1878 159.498 85.4867 159.853 86.9098 159.773 88.0368 159.808 89.1781 159.613 90.2907 159.562 90.5768 159.259 90.7553 159.129 91.0148 158.936 91.4027 158.807 91.8199 158.647 92.2228 158.727 92.9469 158.769 93.6774 158.888 94.3965 158.93 94.6474 158.902 95.0066 159.129 95.1206 159.357 95.2346 159.613 94.96 159.853 94.879 160.095 94.5571 160.378 94.2624 160.577 93.9133 160.732 93.6437 161.008 92.4322 161.061 92.2228 161.463 92.4644 162.007 92.5569 162.267 92.9469 162.408 93.1591 162.14 93.4437 162.026 93.6717 161.623 94.4768 161.543 94.3965 160.819 94.879 160.658 95.2009 160.478 95.5142 160.337 95.8454 159.889 96.8906 160.34 96.3709 159.613 97.5359 159.058 98.4227 158.102 99.288 159.853 97.5359 160.015 97.214 160.106 96.8462 160.337 96.5695 160.522 96.3465 160.899 96.3286 161.061 96.087 161.244 95.8102 161.206 95.4389 161.302 95.1206 161.448 94.6331 161.557 94.1269 161.785 93.6717 163.121 90.9969 162.492 92.0056 163.475 90.5323 163.555 90.2104 163.644 89.89 163.715 89.5659 163.804 89.1652 163.849 88.7544 163.957 88.3587 164.091 87.8676 164.158 87.3335 164.439 86.9098 164.663 86.575 165.078 86.4187 165.405 86.185 166.582 85.3448 165.726 86.1054 166.853 84.9777 167.015 84.2529 167.005 83.4679 167.337 82.804 167.725 82.0255 168.413 82.1445 169.026 81.8383 169.285 81.7079 169.532 81.5458 169.75 81.3551 170.178 80.9802 170.448 80.4024 170.957 80.1471L171.923 79.6647C172.163 79.3428 172.467 79.0582 172.647 78.6983 173.275 77.4408 172.217 77.3297 174.095 78.4567 174.255 78.8596 174.363 79.2883 174.577 79.6647 174.691 79.8618 174.98 79.9342 175.061 80.1471 175.232 80.606 175.221 81.1136 175.301 81.5967 175.048 84.1396 175.927 85.6358 174.336 86.9098 174.11 87.0912 173.853 87.2317 173.612 87.3923 173.136 88.5831 172.987 88.7056 172.888 90.0491 172.485 95.4883 174.316 94.7033 171.681 95.3622 169.743 97.3007 173.032 93.8445 170.957 96.8111 170.234 97.8448 169.682 98.1452 168.785 98.7431 168.543 99.146 168.229 99.5124 168.061 99.9511 167.823 100.571 168.171 101.586 167.577 101.882 167.256 102.044 166.917 102.175 166.612 102.366 164.105 103.934 167.127 102.349 164.681 103.574 164.521 103.815 164.404 104.093 164.199 104.298 163.994 104.503 163.582 104.511 163.475 104.781 162.483 107.26 164.311 106.497 162.026 106.955 161.704 107.277 161.325 107.55 161.061 107.92 160.913 108.128 160.924 108.413 160.819 108.645 160.522 109.3 160.253 109.978 159.853 110.577L158.888 112.026C158.969 112.268 159.129 112.496 159.129 112.75 159.129 113.24 158.976 113.718 158.888 114.2 158.655 115.482 158.741 115.126 158.405 116.132 158.888 116.614 160.019 116.918 159.853 117.581 159.638 118.444 159.375 119.869 158.888 120.72 158.775 120.918 158.567 121.042 158.405 121.203 158.283 122.794 158.263 124.257 157.923 125.791 157.868 126.04 157.751 126.271 157.681 126.516 157.59 126.835 157.521 127.16 157.44 127.482 157.63 128.052 157.612 128.358 158.164 128.69 158.382 128.82 158.647 128.851 158.888 128.931 158.969 129.172 159.129 129.401 159.129 129.656 159.129 130.038 158.559 131.624 158.405 131.829 158.164 132.151 157.761 132.313 157.44 132.553 157.359 132.876 157.363 133.232 157.199 133.52 157.029 133.817 156.693 133.982 156.475 134.245 156.289 134.468 156.153 134.727 155.991 134.969 156.128 135.929 155.769 137.139 157.199 136.901 159.651 136.492 158.418 136.253 160.095 135.693 160.724 135.483 162.026 135.21 162.026 135.21 162.348 135.372 162.699 135.484 162.991 135.693 163.753 136.237 163.792 136.571 164.199 137.384 164.279 137.706 164.375 138.024 164.439 138.35 164.757 139.936 164.926 141.235 164.439 142.939 164.37 143.183 163.957 143.099 163.715 143.18 163.394 143.421 163.1 143.705 162.75 143.904 162.529 144.03 162.15 143.924 162.026 144.146 160.374 147.121 162.981 145.358 160.095 146.803 159.934 147.447 159.98 148.182 159.613 148.735 159.451 148.976 159.248 149.194 159.129 149.459 158.923 149.924 158.807 150.425 158.647 150.908 158.567 151.149 158.519 151.405 158.405 151.633 158.245 151.954 158.156 152.325 157.923 152.598 157.661 152.904 157.279 153.081 156.957 153.323 156.796 153.565 156.648 153.816 156.475 154.048 156.166 154.46 155.657 154.761 155.509 155.255 155.391 155.648 155.661 156.062 155.751 156.462 155.952 157.372 155.964 157.346 156.233 158.153 155.871 163.225 156.609 160.058 155.267 162.742 155.154 162.969 155.093 163.221 155.026 163.466 154.852 164.107 154.543 165.398 154.543 165.398 154.302 167.813 154.183 170.244 153.819 172.643 153.527 174.574 152.954 172.22 153.578 174.093 153.497 174.575 153.642 175.159 153.337 175.542 153.178 175.74 152.824 175.441 152.613 175.3 151.831 174.779 151.808 174.093 151.647 173.851Z" fill="#385723" fill-rule="evenodd" fill-opacity="1" transform="matrix(1 0 0 1.01582 883.5 545.432)"/></g></g></g></g></g></g></svg>