<svg width="220" height="275" xmlns="http://www.w3.org/2000/svg" xmlns:xlink="http://www.w3.org/1999/xlink" xml:space="preserve" overflow="hidden"><g transform="translate(-3263 -2167)"><g><path d="M3327.3 2362.61 3328.1 2363.85C3328.49 2364.66 3329.52 2367.14 3329.1 2366.35 3328.88 2365.93 3328.71 2365.48 3328.43 2365.1 3328.21 2364.79 3327.91 2364.51 3327.76 2364.16ZM3326.2 2360.11 3326.42 2360.42C3326.81 2360.97 3327.02 2361.6 3327.19 2362.24L3327.3 2362.61 3327.09 2362.29C3326.82 2361.79 3326.63 2361.25 3326.42 2360.73ZM3325.76 2359.29 3326.09 2359.79 3326.2 2360.11 3325.79 2359.54C3325.65 2359.35 3325.93 2359.71 3325.77 2359.3ZM3324.85 2357.57 3325.09 2357.92 3325.76 2359.29 3325.09 2358.23ZM3316.83 2341.26 3317.73 2342.32C3319.02 2343.98 3318.91 2343.9 3319.74 2345.44 3319.85 2345.96 3319.88 2346.51 3320.07 2347 3320.33 2347.66 3320.76 2348.24 3321.07 2348.88 3321.32 2349.39 3321.49 2349.93 3321.74 2350.44 3322.05 2351.07 3322.46 2351.66 3322.75 2352.31 3323.02 2352.91 3323.21 2353.55 3323.41 2354.18 3323.55 2354.59 3323.57 2355.03 3323.75 2355.43 3323.91 2355.77 3324.25 2356.02 3324.42 2356.36L3324.85 2357.57 3323.41 2355.43C3322.56 2352.22 3323.72 2356.19 3322.41 2352.93 3322.25 2352.53 3322.22 2352.09 3322.08 2351.68 3321.61 2350.39 3319.78 2346.73 3319.4 2346.38L3318.4 2345.44C3318.29 2345.13 3318.16 2344.82 3318.06 2344.51 3317.82 2343.72 3317.74 2343.07 3317.39 2342.32ZM3316.44 2340.81 3316.73 2341.08 3316.83 2341.26ZM3278.2 2335.04 3277.27 2335.15C3276.04 2335.27 3274.81 2335.29 3273.59 2335.46 3273.24 2335.51 3269.4 2336.4 3268.57 2336.4 3268.22 2336.4 3269.24 2336.18 3269.58 2336.09 3270.02 2335.97 3270.46 2335.87 3270.91 2335.77 3272.67 2335.41 3272.97 2335.41 3274.93 2335.15ZM3322.39 2327.28C3324.05 2326.63 3324.82 2327.71 3331.31 2328.32L3336.64 2328.61 3333.78 2328.91C3333.33 2328.98 3332.89 2329.13 3332.44 2329.22 3331.89 2329.34 3331.33 2329.42 3330.77 2329.53 3330.32 2329.63 3329.89 2329.82 3329.43 2329.85 3326.54 2330.03 3323.64 2330.05 3320.74 2330.16 3320.01 2329.99 3319.68 2329.94 3319.36 2329.83L3318.8 2329.57 3320.87 2328.13C3321.5 2327.72 3321.98 2327.45 3322.39 2327.28ZM3346.51 2327.17C3347.75 2327.09 3348.27 2327.28 3350.5 2327.97 3349.05 2328.18 3347.62 2328.55 3346.15 2328.6 3342.69 2328.7 3339.79 2328.71 3337.35 2328.65L3336.64 2328.61 3336.79 2328.6C3337.24 2328.39 3337.63 2328.01 3338.13 2327.97 3343.28 2327.6 3345.26 2327.25 3346.51 2327.17ZM3312.38 2326.42C3310.5 2328.46 3309.34 2328.66 3310.71 2331.72 3310.9 2332.15 3311.6 2332.13 3312.04 2332.34 3312.49 2332.24 3313.06 2332.33 3313.38 2332.03 3313.71 2331.73 3313.72 2331.21 3313.72 2330.78 3313.72 2327.71 3312.6 2327.14 3312.38 2326.42ZM3312.32 2314.49 3312.38 2315.18C3312.27 2316.22 3312.19 2317.27 3312.04 2318.3L3311.94 2318.77 3311.93 2318.27ZM3276.86 2309.36 3278.27 2309.88C3279.4 2310.3 3280.56 2311.45 3281.61 2312.07 3282.04 2312.31 3282.53 2312.44 3282.95 2312.69 3283.42 2312.96 3283.82 2313.35 3284.29 2313.62 3284.71 2313.87 3285.18 2314.04 3285.63 2314.25 3286.13 2314.48 3286.52 2314.87 3286.96 2315.18 3287.97 2315.91 3289.08 2316.53 3289.97 2317.37 3290.54 2317.9 3290.87 2318.62 3291.31 2319.24 3291.65 2319.45 3292.01 2319.62 3292.31 2319.86 3292.79 2320.25 3293.15 2320.76 3293.65 2321.11L3294.66 2321.58 3293.99 2321.42C3293.49 2321.19 3293.14 2320.74 3292.65 2320.49 3292.12 2320.22 3291.51 2320.11 3290.98 2319.86 3289.98 2319.4 3289.67 2319.22 3289.68 2319.18L3290.25 2319.33 3290.6 2319.46C3290.81 2319.53 3290.58 2319.44 3290.31 2319.35L3290.25 2319.33 3289.91 2319.21C3289.55 2319.08 3289.03 2318.89 3288.3 2318.62 3286.6 2317.98 3285.33 2316.62 3283.96 2315.5 3282.77 2314.53 3281.78 2313.37 3280.61 2312.38 3279.38 2311.34 3278.38 2310.67 3277.48 2309.98ZM3276.15 2308.63 3276.86 2309.36 3276.6 2309.26ZM3274.93 2307.39C3274.66 2307.02 3275.63 2307.98 3275.93 2308.32L3276.15 2308.63ZM3311.1 2303.92 3311.15 2304.5C3311.2 2304.96 3311.16 2304.65 3311.11 2304.2ZM3337.79 2299.9C3337.57 2300.21 3337.34 2300.52 3337.12 2300.83 3336.78 2301.35 3336.47 2301.89 3336.12 2302.39 3335.25 2303.65 3334.58 2305.08 3333.45 2306.14 3333 2306.55 3332.5 2306.92 3332.11 2307.39 3331.71 2307.86 3331.56 2308.52 3331.1 2308.95 3330.65 2309.37 3329.94 2309.5 3329.43 2309.88 3328.82 2310.34 3328.35 2310.95 3327.76 2311.44 3327.34 2311.79 3326.87 2312.07 3326.42 2312.38 3325.72 2313.69 3325.34 2314.45 3324.42 2315.81 3323.44 2317.24 3322.99 2317.22 3322.08 2318.93 3320.55 2321.77 3322.21 2319.9 3320.74 2321.74 3320.12 2322.5 3317.7 2325.22 3317.06 2326.42L3316.39 2327.66C3316.61 2327.97 3316.78 2328.33 3317.06 2328.6 3317.34 2328.86 3317.71 2329.04 3318.06 2329.22L3318.8 2329.57 3318.4 2329.85C3318.51 2330.26 3318.55 2330.7 3318.73 2331.09 3319.53 2332.77 3319.77 2332.45 3320.74 2333.9 3321 2334.3 3321.12 2334.77 3321.41 2335.15 3322.16 2336.14 3322.98 2336.38 3324.08 2337.02 3324.42 2337.22 3324.71 2337.5 3325.09 2337.65 3326.06 2338.02 3327.09 2338.27 3328.1 2338.58 3328.76 2338.79 3329.52 2338.84 3330.1 2339.21 3331.46 2340.05 3333.01 2340.98 3334.11 2342.01 3334.56 2342.43 3334.98 2342.87 3335.45 2343.26 3335.87 2343.6 3336.4 2343.83 3336.79 2344.2 3337.29 2344.67 3337.6 2345.3 3338.13 2345.76 3341.06 2348.28 3340.35 2347.35 3342.81 2348.88 3343.27 2349.16 3343.66 2349.55 3344.15 2349.81 3344.45 2349.97 3344.83 2349.98 3345.15 2350.12 3347.23 2351.09 3345.06 2350.37 3347.16 2352 3347.43 2352.21 3348.51 2352.31 3348.16 2352.31 3346.59 2352.31 3345.56 2352.01 3344.15 2351.68 3342.59 2350.81 3342.18 2350.68 3340.8 2349.5 3339.99 2348.8 3339.27 2348.01 3338.46 2347.32 3337.82 2346.77 3337.11 2346.3 3336.46 2345.76 3336.1 2345.46 3335.85 2345.07 3335.45 2344.82 3335.16 2344.64 3334.77 2344.64 3334.45 2344.51 3333.27 2344.04 3331.8 2343.16 3330.77 2342.64 3330.33 2342.41 3329.87 2342.24 3329.43 2342.01 3329.08 2341.83 3328.78 2341.57 3328.43 2341.39 3328 2341.16 3327.48 2341.06 3327.09 2340.77 3326.12 2340.01 3325.31 2339.1 3324.42 2338.27 3323.75 2337.65 3322.94 2337.13 3322.41 2336.4 3321.52 2335.15 3322.08 2335.67 3320.74 2334.84 3320.52 2334.53 3320.38 2334.14 3320.07 2333.9 3319.52 2333.47 3318.43 2333.18 3317.73 2332.97 3317.06 2333.07 3316.34 2333.02 3315.72 2333.28 3313.68 2334.13 3314.73 2336.99 3315.05 2338.27 3315.3 2339.22 3315.69 2339.88 3316.15 2340.47L3316.44 2340.81 3315.39 2339.83C3315.13 2339.54 3314.95 2339.2 3314.72 2338.89 3314.4 2338.47 3314.08 2338.04 3313.72 2337.65 3313.41 2337.31 3311.49 2336.87 3311.04 2336.71 3305.91 2343.41 3312.18 2334.95 3302.68 2352 3302.17 2352.92 3300.67 2354.49 3300.67 2354.49 3300.56 2355.01 3300.57 2355.57 3300.34 2356.05 3300.11 2356.53 3299.7 2356.91 3299.34 2357.3 3298.37 2358.33 3297.12 2359.27 3295.99 2360.11 3295.56 2360.43 3295.05 2360.67 3294.66 2361.04 3294.37 2361.31 3294.21 2361.67 3293.99 2361.98 3293.47 2364.38 3294.13 2362.82 3292.65 2364.47 3292.39 2364.76 3292.16 2365.07 3291.98 2365.41 3291.82 2365.7 3291.65 2366.67 3291.65 2366.35 3291.65 2365.81 3291.74 2365.26 3291.98 2364.79 3292.75 2363.27 3293.76 2361.87 3294.66 2360.42 3295.1 2359.69 3295.59 2358.98 3295.99 2358.23 3296.22 2357.82 3296.41 2357.39 3296.66 2356.99 3296.86 2356.66 3297.12 2356.37 3297.33 2356.05 3297.68 2355.54 3297.91 2354.95 3298.33 2354.49 3298.6 2354.21 3299 2354.07 3299.34 2353.87 3299.56 2353.56 3299.77 2353.23 3300.01 2352.93 3300.66 2352.09 3301.51 2351.37 3302.01 2350.44 3302.93 2348.72 3302.38 2349.56 3303.68 2347.94 3303.91 2347.32 3304.04 2346.66 3304.35 2346.07 3304.58 2345.65 3304.84 2345.25 3305.02 2344.82 3305.4 2343.9 3305.69 2342.95 3306.03 2342.01 3306.25 2341.39 3306.52 2340.78 3306.69 2340.14 3306.81 2339.73 3306.84 2339.29 3307.03 2338.89 3307.29 2338.34 3307.7 2337.85 3308.03 2337.33 3308.17 2336.28 3308.78 2333.39 3308.03 2332.34 3307.72 2331.9 3306.91 2332.15 3306.36 2332.03 3305.91 2331.94 3305.47 2331.82 3305.02 2331.72 3299.46 2332.46 3306.35 2331.41 3299.67 2332.97 3296.56 2333.69 3300.43 2332.83 3296.33 2333.59 3295.32 2333.78 3294.34 2334.11 3293.32 2334.21 3291.32 2334.42 3289.3 2334.39 3287.3 2334.53 3286.29 2334.6 3285.3 2334.79 3284.29 2334.84L3278.2 2335.04 3279.94 2334.84C3280.72 2334.74 3281.5 2334.59 3282.28 2334.53 3284.17 2334.38 3286.07 2334.32 3287.97 2334.21 3288.3 2334.11 3288.63 2333.98 3288.97 2333.9 3291.06 2333.45 3292.34 2333.27 3294.32 2332.97 3297.74 2331.69 3294.09 2332.94 3299.34 2331.72 3299.78 2331.61 3300.22 2331.46 3300.67 2331.41 3302.01 2331.25 3303.35 2331.2 3304.69 2331.09 3305.13 2330.99 3305.7 2331.09 3306.03 2330.78 3306.35 2330.48 3306.36 2329.96 3306.36 2329.53 3306.36 2328.81 3305.9 2327.32 3305.36 2326.73 3304.62 2325.92 3303.63 2325.66 3302.68 2325.17 3302.04 2324.83 3300.47 2323.86 3299.67 2323.61 3299.13 2323.44 3298.56 2323.4 3298 2323.3 3294.79 2321.8 3298.77 2323.69 3294.99 2321.74L3294.66 2321.58 3295.32 2321.74C3296.24 2322.09 3297.03 2322.76 3298 2322.98 3301.87 2323.89 3295.76 2322.39 3301.68 2324.23 3302.22 2324.4 3302.8 2324.4 3303.35 2324.54 3304.03 2324.72 3305.36 2325.17 3305.36 2325.17 3306.58 2325.06 3307.85 2325.18 3309.03 2324.86 3309.81 2324.64 3311.04 2323.61 3311.04 2323.61 3311.83 2319.93 3310.88 2324.51 3311.71 2319.86L3311.94 2318.77 3311.99 2320.27C3312.15 2320.87 3312.47 2321.37 3313.05 2321.74L3315.05 2322.98C3315.83 2322.78 3316.63 2322.62 3317.39 2322.36 3318.33 2322.04 3318.93 2321.61 3319.74 2321.11 3320.17 2320.17 3320.81 2318.66 3321.41 2317.68 3322.05 2316.63 3322.6 2315.51 3323.41 2314.56 3324.31 2313.52 3325.23 2312.51 3326.09 2311.44 3326.42 2311.03 3326.71 2310.58 3327.09 2310.19 3328.05 2309.22 3329.1 2308.32 3330.1 2307.39 3330.66 2306.87 3331.12 2306.23 3331.77 2305.83 3332.11 2305.62 3332.49 2305.47 3332.78 2305.2 3333.28 2304.73 3333.64 2304.14 3334.11 2303.64 3334.43 2303.31 3334.84 2303.07 3335.12 2302.71 3335.41 2302.33 3335.5 2301.84 3335.79 2301.46 3336.37 2300.69 3336.99 2300.4 3337.79 2299.9ZM3309.9 2287.64C3309.9 2287.44 3309.93 2287.44 3310.04 2287.73 3310.57 2289.23 3310.47 2290.85 3310.71 2292.41 3310.91 2293.77 3311.21 2295.11 3311.38 2296.47 3311.66 2298.85 3312.04 2303.64 3312.04 2303.64 3311.93 2304.58 3311.71 2305.51 3311.71 2306.45 3311.71 2307.36 3312.28 2312.79 3312.38 2313.94L3312.32 2314.49 3312.24 2313.54C3312.04 2311.09 3311.66 2306.74 3311.38 2304.89 3311.14 2303.38 3311.06 2302.99 3311.04 2303.08L3311.1 2303.92 3311.02 2303.16C3310.95 2302.47 3310.85 2301.52 3310.71 2300.21 3310.6 2297.3 3310.53 2294.39 3310.37 2291.48 3310.32 2290.54 3309.92 2288.23 3309.9 2287.64Z" stroke="#A9D18E" stroke-width="3.4375" stroke-linecap="butt" stroke-linejoin="miter" stroke-miterlimit="8" stroke-opacity="1" fill="#A9D18E" fill-rule="evenodd" fill-opacity="1"/><path d="M3396.36 2257.97 3397.36 2259.41C3397.86 2260.35 3399.15 2263.25 3398.62 2262.32 3398.34 2261.84 3398.12 2261.32 3397.78 2260.87 3397.5 2260.5 3397.12 2260.18 3396.94 2259.78ZM3394.98 2255.06 3395.26 2255.42C3395.75 2256.05 3396 2256.79 3396.22 2257.54L3396.36 2257.97 3396.1 2257.6C3395.76 2257.01 3395.52 2256.39 3395.26 2255.78ZM3394.43 2254.1 3394.84 2254.69 3394.98 2255.06 3394.46 2254.4C3394.29 2254.17 3394.64 2254.59 3394.43 2254.11ZM3393.28 2252.1 3393.58 2252.51 3394.43 2254.1 3393.58 2252.87ZM3383.2 2233.11 3384.34 2234.35C3385.96 2236.28 3385.82 2236.18 3386.86 2237.98 3387 2238.58 3387.03 2239.22 3387.28 2239.8 3387.6 2240.56 3388.15 2241.24 3388.54 2241.98 3388.85 2242.57 3389.06 2243.2 3389.38 2243.79 3389.77 2244.53 3390.28 2245.22 3390.64 2245.97 3390.98 2246.68 3391.22 2247.42 3391.48 2248.15 3391.64 2248.63 3391.67 2249.15 3391.9 2249.6 3392.1 2250.01 3392.53 2250.3 3392.74 2250.69L3393.28 2252.1 3391.48 2249.6C3390.4 2245.87 3391.86 2250.5 3390.22 2246.7 3390.01 2246.23 3389.98 2245.72 3389.8 2245.25 3389.22 2243.74 3386.91 2239.48 3386.44 2239.07L3385.18 2237.98C3385.04 2237.62 3384.88 2237.26 3384.76 2236.89 3384.45 2235.97 3384.35 2235.22 3383.92 2234.35ZM3382.72 2232.58 3383.08 2232.89 3383.2 2233.11ZM3334.69 2225.86 3333.51 2225.99C3331.97 2226.13 3330.42 2226.16 3328.89 2226.35 3328.45 2226.41 3323.64 2227.44 3322.59 2227.44 3322.15 2227.44 3323.43 2227.19 3323.85 2227.08 3324.41 2226.94 3324.97 2226.83 3325.53 2226.72 3327.74 2226.29 3328.12 2226.29 3330.57 2225.99ZM3390.19 2216.83C3392.28 2216.07 3393.24 2217.33 3401.39 2218.04L3408.09 2218.38 3404.5 2218.73C3403.93 2218.8 3403.38 2218.98 3402.82 2219.09 3402.12 2219.22 3401.41 2219.32 3400.72 2219.45 3400.15 2219.56 3399.61 2219.78 3399.04 2219.82 3395.4 2220.02 3391.76 2220.06 3388.12 2220.18 3387.2 2219.98 3386.79 2219.92 3386.39 2219.8L3385.68 2219.49 3388.29 2217.82C3389.08 2217.34 3389.67 2217.02 3390.19 2216.83ZM3420.48 2216.7C3422.05 2216.6 3422.69 2216.83 3425.5 2217.64 3423.68 2217.88 3421.88 2218.31 3420.04 2218.36 3415.69 2218.48 3412.04 2218.49 3408.98 2218.42L3408.09 2218.38 3408.28 2218.36C3408.84 2218.12 3409.33 2217.68 3409.96 2217.64 3416.44 2217.19 3418.92 2216.79 3420.48 2216.7ZM3377.62 2215.82C3375.25 2218.2 3373.8 2218.43 3375.52 2221.99 3375.76 2222.49 3376.64 2222.48 3377.2 2222.72 3377.76 2222.6 3378.47 2222.71 3378.88 2222.36 3379.28 2222.01 3379.3 2221.4 3379.3 2220.91 3379.3 2217.33 3377.9 2216.67 3377.62 2215.82ZM3377.54 2201.94 3377.62 2202.74C3377.48 2203.95 3377.38 2205.17 3377.2 2206.37L3377.07 2206.92 3377.05 2206.33ZM3333.01 2195.95 3334.77 2196.56C3336.19 2197.06 3337.65 2198.39 3338.97 2199.11 3339.5 2199.39 3340.12 2199.55 3340.65 2199.83 3341.25 2200.16 3341.74 2200.6 3342.33 2200.92 3342.86 2201.21 3343.45 2201.41 3344.01 2201.65 3344.64 2201.92 3345.14 2202.37 3345.69 2202.74 3346.96 2203.58 3348.34 2204.31 3349.47 2205.28 3350.19 2205.9 3350.59 2206.74 3351.15 2207.46 3351.57 2207.71 3352.03 2207.91 3352.41 2208.19 3353.02 2208.64 3353.46 2209.23 3354.09 2209.64L3355.35 2210.19 3354.51 2210.01C3353.89 2209.74 3353.45 2209.21 3352.83 2208.92 3352.17 2208.6 3351.41 2208.48 3350.73 2208.19 3349.48 2207.65 3349.09 2207.44 3349.11 2207.4L3349.82 2207.57 3350.26 2207.72C3350.52 2207.8 3350.24 2207.7 3349.89 2207.59L3349.82 2207.57 3349.4 2207.43C3348.94 2207.28 3348.28 2207.05 3347.37 2206.74 3345.24 2206 3343.65 2204.41 3341.91 2203.1 3340.42 2201.98 3339.18 2200.62 3337.71 2199.47 3336.17 2198.26 3334.91 2197.49 3333.77 2196.68ZM3332.11 2195.11 3333.01 2195.95 3332.67 2195.84ZM3330.57 2193.66C3330.24 2193.23 3331.45 2194.35 3331.83 2194.75L3332.11 2195.11ZM3376 2189.62 3376.08 2190.3C3376.13 2190.83 3376.08 2190.47 3376.03 2189.95ZM3409.54 2184.94C3409.26 2185.3 3408.97 2185.66 3408.7 2186.03 3408.27 2186.63 3407.88 2187.25 3407.44 2187.85 3406.34 2189.31 3405.51 2190.97 3404.08 2192.21 3403.52 2192.69 3402.88 2193.12 3402.4 2193.66 3401.9 2194.22 3401.72 2194.98 3401.14 2195.47 3400.56 2195.97 3399.68 2196.12 3399.04 2196.56 3398.26 2197.1 3397.68 2197.81 3396.94 2198.38 3396.41 2198.78 3395.82 2199.11 3395.26 2199.47 3394.37 2201 3393.9 2201.89 3392.74 2203.47 3391.51 2205.14 3390.95 2205.11 3389.8 2207.1 3387.88 2210.41 3389.97 2208.23 3388.12 2210.37 3387.34 2211.26 3384.3 2214.43 3383.5 2215.82L3382.66 2217.27C3382.94 2217.64 3383.14 2218.05 3383.5 2218.36 3383.85 2218.67 3384.32 2218.87 3384.76 2219.09L3385.68 2219.49 3385.18 2219.82C3385.32 2220.3 3385.36 2220.81 3385.6 2221.27 3386.6 2223.22 3386.9 2222.85 3388.12 2224.54 3388.45 2225 3388.59 2225.55 3388.96 2225.99 3389.91 2227.14 3390.93 2227.42 3392.32 2228.17 3392.75 2228.4 3393.11 2228.73 3393.58 2228.9 3394.8 2229.34 3396.1 2229.62 3397.36 2229.99 3398.2 2230.23 3399.14 2230.29 3399.88 2230.71 3401.59 2231.7 3403.53 2232.78 3404.92 2233.98 3405.48 2234.47 3406 2234.99 3406.6 2235.44 3407.13 2235.84 3407.78 2236.1 3408.28 2236.53 3408.91 2237.07 3409.3 2237.82 3409.96 2238.34 3413.64 2241.28 3412.75 2240.19 3415.84 2241.98 3416.42 2242.31 3416.91 2242.77 3417.52 2243.07 3417.9 2243.26 3418.38 2243.26 3418.78 2243.43 3421.39 2244.56 3418.67 2243.71 3421.3 2245.61 3421.64 2245.85 3423 2245.97 3422.56 2245.97 3420.59 2245.97 3419.29 2245.63 3417.52 2245.25 3415.57 2244.23 3415.05 2244.07 3413.32 2242.7 3412.3 2241.89 3411.4 2240.97 3410.38 2240.16 3409.58 2239.52 3408.68 2238.97 3407.86 2238.34 3407.41 2238 3407.09 2237.54 3406.6 2237.25 3406.23 2237.04 3405.75 2237.04 3405.34 2236.89 3403.86 2236.34 3402.01 2235.32 3400.72 2234.71 3400.17 2234.45 3399.58 2234.25 3399.04 2233.98 3398.6 2233.77 3398.22 2233.47 3397.78 2233.26 3397.23 2232.99 3396.58 2232.88 3396.1 2232.53 3394.88 2231.65 3393.86 2230.59 3392.74 2229.62 3391.9 2228.9 3390.88 2228.3 3390.22 2227.44 3389.1 2225.99 3389.8 2226.6 3388.12 2225.63 3387.84 2225.26 3387.66 2224.82 3387.28 2224.54 3386.58 2224.04 3385.21 2223.7 3384.34 2223.45 3383.5 2223.57 3382.59 2223.51 3381.82 2223.81 3379.25 2224.8 3380.57 2228.13 3380.98 2229.62 3381.28 2230.74 3381.77 2231.5 3382.36 2232.19L3382.72 2232.58 3381.4 2231.44C3381.07 2231.11 3380.85 2230.71 3380.56 2230.35 3380.15 2229.86 3379.75 2229.36 3379.3 2228.9 3378.91 2228.51 3376.5 2227.99 3375.94 2227.81 3369.49 2235.61 3377.37 2225.76 3365.44 2245.61 3364.79 2246.68 3362.91 2248.51 3362.91 2248.51 3362.77 2249.12 3362.78 2249.77 3362.49 2250.33 3362.21 2250.88 3361.7 2251.33 3361.23 2251.78 3360.02 2252.98 3358.45 2254.08 3357.03 2255.05 3356.49 2255.43 3355.85 2255.72 3355.35 2256.14 3355 2256.45 3354.79 2256.87 3354.51 2257.23 3353.87 2260.04 3354.69 2258.21 3352.83 2260.14 3352.51 2260.48 3352.22 2260.84 3351.99 2261.23 3351.8 2261.57 3351.57 2262.7 3351.57 2262.32 3351.57 2261.7 3351.69 2261.06 3351.99 2260.5 3352.96 2258.74 3354.23 2257.11 3355.35 2255.42 3355.91 2254.57 3356.53 2253.75 3357.03 2252.87 3357.31 2252.39 3357.56 2251.89 3357.87 2251.42 3358.12 2251.04 3358.45 2250.7 3358.71 2250.33 3359.15 2249.73 3359.44 2249.05 3359.97 2248.51 3360.3 2248.18 3360.81 2248.03 3361.23 2247.79 3361.51 2247.43 3361.78 2247.05 3362.07 2246.7 3362.9 2245.72 3363.97 2244.88 3364.59 2243.79 3365.75 2241.8 3365.06 2242.77 3366.7 2240.89 3366.98 2240.16 3367.14 2239.39 3367.54 2238.71 3367.82 2238.22 3368.15 2237.76 3368.38 2237.25 3368.85 2236.18 3369.22 2235.07 3369.64 2233.98 3369.92 2233.26 3370.26 2232.55 3370.48 2231.8 3370.62 2231.32 3370.66 2230.81 3370.9 2230.35 3371.23 2229.71 3371.74 2229.14 3372.16 2228.53 3372.33 2227.31 3373.1 2223.95 3372.16 2222.72 3371.76 2222.21 3370.75 2222.49 3370.06 2222.36 3369.49 2222.25 3368.94 2222.12 3368.38 2221.99 3361.38 2222.86 3370.04 2221.63 3361.65 2223.45 3357.75 2224.29 3362.6 2223.28 3357.45 2224.17 3356.19 2224.39 3354.96 2224.78 3353.67 2224.9 3351.17 2225.14 3348.63 2225.1 3346.11 2225.26 3344.85 2225.35 3343.6 2225.57 3342.33 2225.63L3334.69 2225.86 3336.87 2225.63C3337.85 2225.51 3338.83 2225.34 3339.81 2225.26 3342.19 2225.09 3344.57 2225.02 3346.95 2224.9 3347.37 2224.78 3347.78 2224.62 3348.21 2224.54 3350.83 2224.02 3352.45 2223.81 3354.93 2223.45 3359.23 2221.96 3354.65 2223.42 3361.23 2221.99 3361.79 2221.87 3362.34 2221.69 3362.91 2221.63 3364.59 2221.45 3366.28 2221.39 3367.96 2221.27 3368.52 2221.15 3369.23 2221.26 3369.64 2220.91 3370.04 2220.55 3370.06 2219.95 3370.06 2219.45 3370.06 2218.6 3369.48 2216.87 3368.8 2216.18 3367.87 2215.25 3366.62 2214.94 3365.44 2214.37 3364.63 2213.98 3362.66 2212.84 3361.65 2212.55 3360.98 2212.35 3360.25 2212.31 3359.55 2212.19 3355.53 2210.44 3360.52 2212.65 3355.77 2210.37L3355.35 2210.19 3356.19 2210.37C3357.35 2210.79 3358.34 2211.56 3359.55 2211.82 3364.42 2212.87 3356.74 2211.13 3364.17 2213.28 3364.85 2213.47 3365.59 2213.48 3366.28 2213.64 3367.13 2213.84 3368.8 2214.37 3368.8 2214.37 3370.34 2214.24 3371.93 2214.38 3373.42 2214 3374.38 2213.76 3375.94 2212.55 3375.94 2212.55 3376.93 2208.27 3375.73 2213.6 3376.78 2208.19L3377.07 2206.92 3377.13 2208.67C3377.33 2209.36 3377.73 2209.95 3378.46 2210.37L3380.98 2211.82C3381.96 2211.58 3382.96 2211.4 3383.92 2211.1 3385.09 2210.73 3385.85 2210.22 3386.86 2209.64 3387.4 2208.54 3388.2 2206.79 3388.96 2205.65 3389.77 2204.42 3390.46 2203.12 3391.48 2202.01 3392.6 2200.8 3393.76 2199.62 3394.84 2198.38 3395.26 2197.9 3395.62 2197.37 3396.1 2196.93 3397.31 2195.8 3398.62 2194.75 3399.88 2193.66 3400.58 2193.05 3401.15 2192.32 3401.98 2191.84 3402.4 2191.6 3402.88 2191.42 3403.24 2191.12 3403.87 2190.57 3404.33 2189.88 3404.92 2189.3 3405.31 2188.91 3405.83 2188.63 3406.18 2188.21 3406.54 2187.77 3406.65 2187.2 3407.02 2186.76 3407.75 2185.87 3408.53 2185.52 3409.54 2184.94ZM3374.5 2170.66C3374.5 2170.43 3374.54 2170.43 3374.68 2170.77 3375.35 2172.51 3375.22 2174.41 3375.52 2176.22 3375.78 2177.8 3376.15 2179.36 3376.36 2180.94 3376.71 2183.72 3377.2 2189.3 3377.2 2189.3 3377.06 2190.39 3376.78 2191.47 3376.78 2192.57 3376.78 2193.63 3377.49 2199.95 3377.62 2201.29L3377.54 2201.94 3377.44 2200.82C3377.19 2197.98 3376.71 2192.91 3376.36 2190.75 3376.07 2189 3375.96 2188.54 3375.93 2188.65L3376 2189.62 3375.91 2188.74C3375.82 2187.94 3375.69 2186.82 3375.52 2185.3 3375.38 2181.91 3375.29 2178.52 3375.1 2175.13 3375.03 2174.04 3374.53 2171.35 3374.5 2170.66Z" stroke="#A9D18E" stroke-width="3.4375" stroke-linecap="butt" stroke-linejoin="miter" stroke-miterlimit="8" stroke-opacity="1" fill="#A9D18E" fill-rule="evenodd" fill-opacity="1"/><path d="M3319.82 2250.93 3318.5 2262.95 3318.5 2272.76 3323.45 2273.39 3334.02 2274.97 3344.25 2277.18 3349.21 2277.5 3352.84 2276.23 3353.5 2272.44 3353.5 2260.42 3353.17 2254.41 3349.87 2251.24 3339.63 2249.03 3332.37 2247.45 3329.07 2246.5 3319.82 2250.93Z" stroke="#548235" stroke-width="4.58333" stroke-linecap="butt" stroke-linejoin="miter" stroke-miterlimit="8" stroke-opacity="1" fill="#548235" fill-rule="evenodd" fill-opacity="1"/><path d="M3343.5 2259.06 3343.5 2259.06C3339.13 2258.73 3336.85 2258.5 3331.86 2258.5 3329.42 2258.5 3326.98 2258.69 3324.54 2258.78 3323.99 2259.06 3323.34 2259.24 3322.88 2259.62 3322.63 2259.83 3322.39 2260.2 3322.55 2260.46 3323.09 2261.38 3325.85 2261.83 3326.54 2261.86L3332.19 2262.14C3336.89 2262.64 3335.38 2262.6 3342.5 2262.14 3342.85 2262.12 3343.16 2261.93 3343.5 2261.86 3344.16 2261.74 3344.83 2261.67 3345.49 2261.58 3345.6 2261.3 3345.69 2261.01 3345.83 2260.74 3346.02 2260.36 3346.57 2260.03 3346.49 2259.62 3346.43 2259.29 3345.85 2259.21 3345.49 2259.06 3344.55 2258.66 3343.83 2259.06 3343.5 2259.06Z" stroke="#C5E0B4" stroke-width="4.58333" stroke-linecap="butt" stroke-linejoin="miter" stroke-miterlimit="8" stroke-opacity="1" fill="#C5E0B4" fill-rule="evenodd" fill-opacity="1"/><path d="M3346.14 2268.45 3346.14 2268.45C3344.86 2267.94 3343.55 2267.51 3342.32 2266.93 3340.65 2266.15 3341.41 2265.83 3339.54 2265.72 3336.66 2265.54 3333.76 2265.51 3330.87 2265.41 3329.94 2265.21 3329.01 2265.02 3328.09 2264.8 3327.74 2264.72 3327.42 2264.5 3327.05 2264.5 3325.2 2264.5 3323.35 2264.7 3321.5 2264.8 3321.96 2265.11 3322.46 2265.38 3322.89 2265.72 3323.74 2266.39 3324.36 2267.29 3325.32 2267.84 3325.66 2268.05 3325.99 2268.29 3326.36 2268.45 3330.25 2270.16 3323.73 2266.83 3328.79 2269.36 3329.65 2269.79 3330.21 2270.34 3331.22 2270.58 3332 2270.77 3332.83 2270.78 3333.64 2270.88 3337.34 2271.96 3335.02 2271.4 3343.36 2270.88 3343.72 2270.86 3344.05 2270.66 3344.4 2270.58 3344.97 2270.45 3345.56 2270.38 3346.14 2270.27 3346.25 2269.77 3346.35 2269.26 3346.48 2268.76 3346.59 2268.35 3346.19 2268.5 3346.14 2268.45Z" stroke="#C5E0B4" stroke-width="4.58333" stroke-linecap="butt" stroke-linejoin="miter" stroke-miterlimit="8" stroke-opacity="1" fill="#C5E0B4" fill-rule="evenodd" fill-opacity="1"/><path d="M3439.5 2275.58 3446 2290.35 3447.36 2293.42 3450.44 2296.5 3469.24 2292.5 3478.13 2290.35 3479.5 2286.35 3478.47 2283.27 3471.29 2269.42 3468.9 2264.81 3464.8 2264.5 3460.01 2264.81 3449.41 2268.5 3439.5 2275.58Z" stroke="#548235" stroke-width="4.58333" stroke-linecap="butt" stroke-linejoin="miter" stroke-miterlimit="8" stroke-opacity="1" fill="#548235" fill-rule="evenodd" fill-opacity="1"/><path d="M3463.44 2268.83 3463.44 2268.83C3462.09 2268.94 3460.72 2268.92 3459.39 2269.17 3458.34 2269.36 3457.36 2269.83 3456.35 2270.17 3456.01 2270.28 3455.68 2270.41 3455.34 2270.5 3454.89 2270.61 3454.42 2270.67 3453.99 2270.83 3453.52 2271.01 3453.1 2271.3 3452.64 2271.5 3451.73 2271.88 3450.93 2271.97 3449.94 2272.17 3449.41 2272.43 3448.05 2273.03 3447.58 2273.5 3447.02 2274.04 3446.37 2275.17 3445.89 2275.83 3445.56 2276.29 3445.21 2276.72 3444.88 2277.17 3444.76 2277.5 3444.38 2277.85 3444.54 2278.17 3444.7 2278.48 3445.19 2278.5 3445.55 2278.5 3446.79 2278.5 3448.03 2278.28 3449.26 2278.17 3450.39 2277.94 3451.52 2277.75 3452.64 2277.5 3452.98 2277.42 3453.35 2277.36 3453.65 2277.17 3454.05 2276.91 3454.24 2276.38 3454.66 2276.17 3455.41 2275.8 3457.4 2275.46 3458.38 2275.17 3459.06 2274.96 3459.81 2274.89 3460.4 2274.5 3462.19 2273.32 3460.62 2274.25 3463.1 2273.17 3463.56 2272.96 3463.96 2272.59 3464.45 2272.5 3465.78 2272.25 3467.15 2272.28 3468.5 2272.17 3468.48 2272.08 3468.1 2269.84 3467.82 2269.5 3467.35 2268.91 3466.47 2268.72 3465.8 2268.5L3463.44 2268.83Z" stroke="#C5E0B4" stroke-width="4.58333" stroke-linecap="butt" stroke-linejoin="miter" stroke-miterlimit="8" stroke-opacity="1" fill="#C5E0B4" fill-rule="evenodd" fill-opacity="1"/><path d="M3453.21 2279.96 3453.21 2279.96C3452.29 2280.38 3451.35 2280.77 3450.44 2281.21 3450.08 2281.4 3449.78 2281.67 3449.41 2281.84 3446.55 2283.14 3450.31 2280.98 3447.34 2282.79 3447.11 2283.41 3446.13 2284.2 3446.65 2284.67 3446.99 2284.99 3447.37 2285.28 3447.68 2285.61 3448.06 2286.01 3448.23 2286.59 3448.72 2286.87 3449.22 2287.15 3449.88 2287.06 3450.44 2287.19 3450.8 2287.27 3451.14 2287.4 3451.48 2287.5 3452.39 2287.17 3453.73 2286.73 3454.59 2286.24 3459.32 2283.55 3453.05 2286.93 3457 2284.36 3457.55 2284 3460.66 2282.84 3460.8 2282.79 3463.12 2281.82 3461.24 2282.3 3464.25 2281.84 3464.83 2281.63 3465.41 2281.44 3465.98 2281.21 3466.45 2281.02 3466.87 2280.73 3467.36 2280.59 3467.91 2280.42 3468.51 2280.38 3469.08 2280.27 3469.54 2280.06 3470.07 2279.94 3470.46 2279.64 3471.08 2279.17 3471.26 2278.4 3471.5 2277.76 3471.39 2277.34 3471.43 2276.85 3471.16 2276.5 3469.92 2274.92 3468.58 2275.62 3466.67 2275.87 3466.09 2275.95 3465.52 2276.08 3464.94 2276.19 3464.48 2276.4 3464.03 2276.63 3463.56 2276.81 3463.23 2276.95 3462.87 2277.03 3462.53 2277.13 3461.72 2277.35 3460.91 2277.53 3460.11 2277.76 3459.41 2277.95 3458.7 2278.12 3458.04 2278.39 3457.66 2278.54 3457.39 2278.88 3457 2279.01 3456.45 2279.2 3455.85 2279.21 3455.28 2279.33 3454.81 2279.42 3454.36 2279.54 3453.9 2279.64 3453.06 2280.78 3453.32 2279.91 3453.21 2279.96Z" stroke="#C5E0B4" stroke-width="4.58333" stroke-linecap="butt" stroke-linejoin="miter" stroke-miterlimit="8" stroke-opacity="1" fill="#C5E0B4" fill-rule="evenodd" fill-opacity="1"/><path d="M3467.51 2285.98 3467.51 2285.98C3466.4 2286.21 3465.24 2286.26 3464.18 2286.67 3463.43 2286.96 3462.96 2287.85 3462.18 2288.05 3460.37 2288.52 3461.26 2288.18 3459.52 2289.09 3459.3 2289.43 3459.16 2289.86 3458.85 2290.12 3457.52 2291.27 3456.63 2290.35 3458.85 2291.5 3459.3 2291.39 3459.75 2291.3 3460.18 2291.16 3460.75 2290.96 3461.26 2290.6 3461.85 2290.47 3462.83 2290.25 3463.85 2290.24 3464.84 2290.12 3470.91 2288.55 3464.76 2290.43 3469.17 2288.4 3469.59 2288.2 3470.07 2288.2 3470.5 2288.05 3472.13 2287.49 3471.94 2287.52 3473.17 2286.67 3473.28 2286.33 3473.5 2286 3473.5 2285.64 3473.5 2284.94 3473.47 2284.19 3473.17 2283.57 3472.61 2282.41 3471.51 2282.02 3470.5 2281.5 3469.08 2284.46 3470.72 2281.62 3468.84 2283.57 3468.45 2283.98 3468.3 2284.63 3467.84 2284.95 3467.26 2285.35 3467.56 2285.81 3467.51 2285.98Z" stroke="#C5E0B4" stroke-width="4.58333" stroke-linecap="butt" stroke-linejoin="miter" stroke-miterlimit="8" stroke-opacity="1" fill="#C5E0B4" fill-rule="evenodd" fill-opacity="1"/><path d="M3352.54 2312.35 3352.54 2312.35 3358.68 2312.67C3359.61 2312.92 3360.72 2314.57 3360.72 2314.57 3360.26 2317.37 3360.82 2318.28 3359.02 2319.96 3358.73 2320.23 3358.37 2320.45 3358 2320.6 3357.57 2320.77 3356.3 2321.22 3356.63 2320.91 3357.54 2320.07 3358.9 2319.95 3360.04 2319.64 3360.39 2319.55 3360.72 2319.43 3361.07 2319.33 3361.41 2319.01 3361.67 2318.6 3362.09 2318.38 3363.21 2317.78 3363.98 2318.16 3365.16 2318.38 3365.04 2319.22 3364.96 2320.07 3364.81 2320.91 3364.62 2322.08 3364.31 2323.23 3364.13 2324.4 3364.07 2324.83 3364.26 2323.52 3364.47 2323.13 3364.73 2322.66 3365.03 2322.17 3365.5 2321.86 3365.88 2321.61 3366.41 2321.67 3366.86 2321.55 3367.2 2321.45 3367.54 2321.34 3367.88 2321.23 3369.02 2321.34 3370.18 2321.31 3371.29 2321.55 3372.35 2321.77 3372.41 2322.34 3372.65 2323.13 3372.78 2323.55 3372.83 2323.99 3372.99 2324.4 3374.33 2327.72 3373.14 2323.68 3374.02 2326.94L3376.74 2325.99C3377.94 2325.58 3377.88 2325.73 3379.13 2325.03 3379.83 2324.64 3381.17 2323.77 3381.17 2323.77 3382.2 2323.87 3383.22 2323.94 3384.24 2324.08 3384.7 2324.15 3385.23 2324.14 3385.6 2324.4 3386.51 2325.02 3387.2 2325.88 3387.99 2326.62 3388.28 2326.89 3388.38 2327.3 3388.67 2327.57 3389.07 2327.94 3389.58 2328.2 3390.04 2328.52 3390.15 2328.84 3390.08 2329.66 3390.38 2329.47 3390.89 2329.16 3390.81 2328.41 3391.06 2327.89 3392.33 2325.23 3391.27 2328 3392.08 2325.35 3392.18 2325.03 3392.32 2324.72 3392.42 2324.4 3392.55 2323.98 3392.6 2323.54 3392.76 2323.13 3393.08 2322.35 3393.64 2321.35 3394.47 2320.91 3394.87 2320.7 3395.38 2320.72 3395.83 2320.6 3396.17 2320.5 3396.51 2320.38 3396.85 2320.28 3397.99 2320.38 3399.13 2320.43 3400.26 2320.6 3400.62 2320.65 3401.12 2321.21 3401.28 2320.91 3401.54 2320.43 3401.06 2319.86 3400.94 2319.33 3401.06 2317.85 3401.1 2316.36 3401.28 2314.89 3401.32 2314.56 3401.35 2314.15 3401.62 2313.94 3402.2 2313.48 3402.95 2313.22 3403.67 2312.99 3404.55 2312.69 3406.4 2312.35 3406.4 2312.35 3407.08 2312.46 3408.06 2313.2 3408.44 2312.67 3408.8 2312.17 3407.47 2311.87 3407.08 2311.4 3406.33 2310.49 3405.03 2308.55 3405.03 2308.55 3405.15 2306.43 3405.18 2304.32 3405.37 2302.21 3405.42 2301.7 3405.96 2300.01 3406.4 2299.67 3406.75 2299.39 3407.3 2299.46 3407.76 2299.35 3407.3 2299.04 3406.8 2298.77 3406.4 2298.4 3404.16 2296.32 3405.99 2291.3 3406.05 2289.84 3405.71 2289.63 3405.39 2289.4 3405.03 2289.21 3403.97 2288.64 3403.55 2288.64 3402.65 2287.94 3402.28 2287.65 3401.96 2287.3 3401.62 2286.99 3401.08 2284.95 3401 2285.45 3401.96 2282.55 3402.08 2282.18 3402.33 2281.84 3402.65 2281.6 3402.93 2281.39 3403.35 2281.43 3403.67 2281.28 3404.03 2281.11 3405.1 2280.68 3404.69 2280.65 3403.1 2280.51 3401.51 2280.86 3399.92 2280.96 3399.58 2281.07 3399.23 2281.16 3398.9 2281.28 3398.32 2281.48 3397.77 2281.73 3397.19 2281.91 3396.75 2282.05 3396.28 2282.13 3395.83 2282.23 3395.49 2282.13 3395.03 2282.18 3394.81 2281.91 3393.88 2280.83 3395.14 2276.85 3395.15 2276.84 3395.4 2276.35 3399.49 2272.72 3396.51 2275.89 3396.09 2276.34 3395.54 2276.69 3395.15 2277.16 3394.74 2277.64 3394.47 2278.22 3394.13 2278.74 3392.31 2278.64 3390.47 2278.69 3388.67 2278.43 3388.27 2278.37 3387.92 2278.08 3387.65 2277.79 3387.11 2277.22 3386.71 2276.54 3386.29 2275.89 3385.08 2274.02 3385.47 2274.89 3384.92 2273.35 3385.3 2270.93 3385.8 2269.95 3383.9 2273.04 3383.4 2273.86 3382.86 2274.68 3382.54 2275.57 3382.42 2275.89 3382.45 2276.29 3382.2 2276.52 3381.94 2276.76 3381.51 2276.74 3381.17 2276.84 3381.06 2276.52 3381.09 2276.13 3380.83 2275.89 3380.47 2275.56 3379.88 2275.53 3379.47 2275.26 3379.08 2275 3378.79 2274.62 3378.45 2274.3 3378.19 2273.59 3377.76 2272.34 3377.43 2271.77 3377.15 2271.31 3376.74 2270.92 3376.4 2270.5 3376.29 2271.87 3376.25 2273.25 3376.06 2274.62 3376.02 2274.95 3375.95 2275.31 3375.72 2275.57 3375.47 2275.87 3374.99 2275.94 3374.7 2276.21 3374.3 2276.58 3374.1 2277.13 3373.68 2277.48 3372.69 2278.28 3372.05 2278.4 3370.95 2278.74 3370.15 2278.64 3369.27 2278.79 3368.56 2278.43 3368.12 2278.2 3367.98 2277.62 3367.88 2277.16 3367.63 2275.91 3367.65 2274.62 3367.54 2273.35 3367.31 2273.67 3366.86 2273.92 3366.86 2274.3 3366.86 2275.4 3367.76 2275.98 3368.22 2276.84 3369.63 2279.47 3367.29 2276.02 3369.25 2278.74 3369.13 2279.06 3369.14 2279.44 3368.9 2279.69 3367.66 2281.04 3367.37 2280.92 3365.84 2281.28 3364.93 2281.07 3364.04 2280.77 3363.11 2280.65 3362.95 2280.62 3363.37 2280.83 3363.45 2280.96L3364.47 2282.55C3362.95 2285.38 3364.07 2284.79 3362.09 2285.4 3361.86 2285.72 3361.7 2286.08 3361.41 2286.35 3361.12 2286.62 3360.74 2286.8 3360.38 2286.99 3359.63 2287.39 3358.85 2287.74 3358 2287.94 3357.44 2288.07 3356.86 2288.15 3356.29 2288.26 3354.66 2287.75 3355.66 2288.34 3354.93 2286.99 3354.75 2286.65 3353.88 2286.21 3354.25 2286.04 3354.7 2285.82 3355.15 2286.48 3355.61 2286.67 3356.17 2286.9 3356.77 2287.05 3357.32 2287.3 3358.14 2287.69 3359.23 2288.39 3360.04 2288.89 3360.16 2289.21 3360.43 2289.51 3360.38 2289.84 3360.13 2291.5 3358.22 2291.92 3356.98 2292.69L3355.95 2293.33C3354.7 2293.22 3353.33 2292.49 3352.2 2293.01 3351.55 2293.31 3353.39 2293.8 3353.91 2294.28 3354.31 2294.65 3354.56 2295.15 3354.93 2295.55 3356.9 2297.68 3355.13 2295.35 3356.63 2297.45 3356.55 2297.99 3356.45 2300.36 3355.61 2300.94 3355.04 2301.34 3354.26 2301.41 3353.57 2301.57 3351.64 2302.02 3352.66 2301.8 3350.5 2302.21 3351.3 2302.31 3352.1 2302.38 3352.89 2302.52 3353.8 2302.69 3355.61 2303.16 3355.61 2303.16 3357.26 2304.18 3357.16 2303.76 3356.98 2306.64 3356.92 2307.51 3356.71 2308.4 3356.29 2309.18 3356.11 2309.52 3355.27 2309.82 3352.54 2312.35Z" stroke="#FFD966" stroke-width="4.58333" stroke-linecap="butt" stroke-linejoin="miter" stroke-miterlimit="8" stroke-opacity="1" fill="#FFD966" fill-rule="evenodd" fill-opacity="1"/><path d="M3364.83 2293.44 3364.83 2293.44C3366.06 2293.33 3367.35 2293.54 3368.5 2293.12 3368.96 2292.95 3368.92 2292.27 3369.17 2291.87 3369.37 2291.54 3369.65 2291.26 3369.83 2290.92 3369.99 2290.63 3370.03 2290.29 3370.17 2289.98 3370.36 2289.55 3370.63 2289.15 3370.83 2288.72 3371.08 2288.21 3371.28 2287.68 3371.5 2287.15 3371.94 2287.36 3372.41 2287.53 3372.83 2287.78 3373.3 2288.06 3373.61 2288.69 3374.17 2288.72 3375.3 2288.8 3376.39 2288.31 3377.5 2288.1 3378.54 2285.17 3376.73 2290.03 3378.83 2285.58 3379.02 2285.19 3379.01 2284.73 3379.17 2284.33 3379.34 2283.89 3379.63 2283.5 3379.83 2283.07 3380.08 2282.56 3380.28 2282.02 3380.5 2281.5 3384.28 2284.17 3379.51 2280.91 3383.17 2283.07 3383.26 2283.13 3385.16 2284.53 3385.5 2284.64 3386.36 2284.94 3388.17 2285.27 3388.17 2285.27 3389.06 2285.16 3390.2 2284.36 3390.83 2284.96 3391.47 2285.55 3390.44 2286.63 3390.5 2287.47 3390.62 2289.21 3391.45 2290.8 3392.5 2292.18 3392.82 2292.61 3393.03 2293.16 3393.5 2293.44 3393.98 2293.72 3394.61 2293.65 3395.17 2293.75 3395.61 2293.96 3396.21 2294 3396.5 2294.38 3396.99 2295.03 3396.9 2296.87 3396.5 2297.52 3396.3 2297.85 3395.83 2297.94 3395.5 2298.15 3394.75 2300.27 3394.61 2300.27 3395.5 2303.8 3395.69 2304.54 3396.48 2305.01 3396.83 2305.69L3397.5 2306.94C3397.06 2307.05 3396.62 2307.17 3396.17 2307.26 3395.5 2307.38 3394.81 2307.39 3394.17 2307.57 3393.69 2307.71 3393.3 2308.05 3392.83 2308.2 3391.96 2308.47 3391.06 2308.62 3390.17 2308.83 3389.83 2309.14 3389.36 2309.37 3389.17 2309.77 3388.79 2310.56 3388.5 2312.28 3388.5 2312.28 3389.06 2318.09 3389.89 2315.29 3387.17 2315.11 3386.16 2315.04 3385.17 2315.32 3384.17 2315.42 3383.09 2315.68 3382.44 2315.73 3381.5 2316.37 3380.21 2317.24 3380.65 2317.34 3379.83 2318.57 3379.54 2319.01 3379.17 2319.4 3378.83 2319.82 3378.72 2320.14 3378.72 2320.51 3378.5 2320.76 3378.25 2321.06 3377.52 2321.77 3377.5 2321.39 3377.38 2319.08 3377.94 2316.79 3378.17 2314.48 3377.72 2314.17 3377.32 2313.79 3376.83 2313.54 3374.35 2312.24 3373.28 2313.02 3369.83 2313.23 3369.39 2313.64 3369.01 2314.14 3368.5 2314.48 3368.21 2314.67 3367.78 2314.99 3367.5 2314.8 3367.13 2314.54 3367.28 2313.96 3367.17 2313.54 3367.57 2312 3367.84 2311.66 3367.17 2309.77 3366.99 2309.27 3366.56 2308.88 3366.17 2308.51 3366.08 2308.43 3364.16 2307.08 3363.83 2306.94 3363.41 2306.77 3362.94 2306.73 3362.5 2306.63 3362.94 2306.52 3363.47 2306.57 3363.83 2306.31 3364.84 2305.6 3366.5 2303.8 3366.5 2303.8 3366.61 2303.49 3366.75 2303.18 3366.83 2302.86 3366.97 2302.34 3367.04 2301.81 3367.17 2301.29 3367.27 2300.87 3367.39 2300.45 3367.5 2300.03 3367.22 2297.9 3367.42 2297.68 3366.5 2295.95 3366.32 2295.61 3366.15 2295.23 3365.83 2295.01 3365.66 2294.88 3365 2293.7 3364.83 2293.44Z" stroke="#BF9000" stroke-width="4.58333" stroke-linecap="butt" stroke-linejoin="miter" stroke-miterlimit="8" stroke-opacity="1" fill="#BF9000" fill-rule="evenodd" fill-opacity="1"/><path d="M3385.01 2289.5 3385.01 2289.5C3384.03 2289.98 3382.89 2290.23 3382.07 2290.94 3381.69 2291.27 3381.22 2292.22 3381.7 2292.38 3382.87 2292.76 3384.15 2292.14 3385.37 2292.02 3385.79 2289.98 3385.07 2289.92 3385.01 2289.5Z" stroke="#FFC000" stroke-width="4.58333" stroke-linecap="butt" stroke-linejoin="miter" stroke-miterlimit="8" stroke-opacity="1" fill="#FFC000" fill-rule="evenodd" fill-opacity="1"/><path d="M3379.21 2299.51 3379.21 2299.51 3378.5 2300.16C3379.68 2300.27 3380.85 2300.57 3382.03 2300.49 3382.55 2300.45 3382.96 2300.02 3383.44 2299.83 3383.78 2299.7 3384.15 2299.61 3384.5 2299.51 3383.06 2298.51 3383.36 2298.18 3381.68 2298.85 3381.29 2299.01 3381 2299.33 3380.62 2299.51 3380.28 2299.66 3379.56 2299.83 3379.21 2299.51Z" stroke="#FFC000" stroke-width="4.58333" stroke-linecap="butt" stroke-linejoin="miter" stroke-miterlimit="8" stroke-opacity="1" fill="#FFC000" fill-rule="evenodd" fill-opacity="1"/><path d="M3373.03 2292.5 3373.03 2292.5C3371.67 2294.42 3370.7 2294.32 3372.43 2295.2 3372.71 2295.34 3373.03 2295.4 3373.32 2295.5 3374.01 2295.4 3374.86 2295.65 3375.4 2295.2 3375.71 2294.94 3375.21 2294.4 3375.1 2294 3375.02 2293.7 3375.03 2293.32 3374.81 2293.1 3374.42 2292.71 3373.32 2292.6 3373.03 2292.5Z" stroke="#FFC000" stroke-width="4.58333" stroke-linecap="butt" stroke-linejoin="miter" stroke-miterlimit="8" stroke-opacity="1" fill="#FFC000" fill-rule="evenodd" fill-opacity="1"/><path d="M3371.3 2302.5 3371.3 2302.5C3370.72 2303.28 3369.87 2303.93 3369.55 2304.83 3369.36 2305.37 3369.76 2305.95 3369.9 2306.5 3370.19 2307.6 3370.27 2307.52 3370.95 2308.5 3372.5 2308.21 3372.98 2308.36 3374.1 2307.17 3374.66 2306.57 3375.5 2305.17 3375.5 2305.17 3375.27 2304.83 3375.15 2304.39 3374.8 2304.17 3374.4 2303.91 3373.85 2303.99 3373.4 2303.83 3371.26 2303.07 3371.65 2302.72 3371.3 2302.5Z" stroke="#FFC000" stroke-width="4.58333" stroke-linecap="butt" stroke-linejoin="miter" stroke-miterlimit="8" stroke-opacity="1" fill="#FFC000" fill-rule="evenodd" fill-opacity="1"/><path d="M3383.17 2306.77 3383.17 2306.77C3382.31 2307.05 3381.29 2307.09 3380.59 2307.59 3380.33 2307.78 3380.67 2308.21 3380.91 2308.41 3381.15 2308.61 3381.58 2308.55 3381.88 2308.68 3384.38 2309.74 3381.38 2308.81 3383.81 2309.5 3384.14 2309.41 3384.52 2309.41 3384.78 2309.23 3385.53 2308.72 3385.79 2307.74 3385.1 2307.05 3384.82 2306.76 3384.24 2306.88 3383.81 2306.77 3383.49 2306.69 3383.18 2306.57 3382.85 2306.5 3382.74 2306.48 3383.12 2306.73 3383.17 2306.77Z" stroke="#FFC000" stroke-width="4.58333" stroke-linecap="butt" stroke-linejoin="miter" stroke-miterlimit="8" stroke-opacity="1" fill="#FFC000" fill-rule="evenodd" fill-opacity="1"/><path d="M3388.59 2297.53 3388.59 2297.53C3388.64 2298.11 3387.95 2301.74 3389.75 2301.49 3390.26 2301.41 3390.71 2301.05 3391.19 2300.83 3391.28 2300.39 3391.59 2299.94 3391.48 2299.51 3391.38 2299.1 3389.64 2297.65 3389.46 2297.53 3389.37 2297.47 3388.74 2297.53 3388.59 2297.53Z" stroke="#FFC000" stroke-width="4.58333" stroke-linecap="butt" stroke-linejoin="miter" stroke-miterlimit="8" stroke-opacity="1" fill="#FFC000" fill-rule="evenodd" fill-opacity="1"/><path d="M3399.27 2344.56 3396.19 2348.31 3395.5 2352.69 3395.84 2355.5 3396.53 2358 3398.24 2361.75 3402.36 2364.88 3406.13 2366.75 3412.64 2368.62 3417.44 2370.5 3423.61 2370.19 3431.84 2369.25 3437.67 2367.38 3441.44 2364.25 3443.5 2358.62 3441.79 2352.69 3436.64 2348.31 3433.56 2345.81 3428.41 2343.94 3423.61 2342.06 3417.79 2340.81 3414.36 2340.81 3410.59 2340.81 3406.47 2340.5 3399.27 2344.56Z" stroke="#93C7CD" stroke-width="4.58333" stroke-linecap="butt" stroke-linejoin="miter" stroke-miterlimit="8" stroke-opacity="1" fill="#93C7CD" fill-rule="evenodd" fill-opacity="1"/><path d="M3419.69 2345.12 3419.69 2345.12 3416.32 2344.81C3415.42 2344.72 3414.53 2344.5 3413.63 2344.5 3412.39 2344.5 3411.16 2344.71 3409.93 2344.81 3409.48 2344.92 3408.98 2344.91 3408.58 2345.12 3408.17 2345.34 3407.93 2345.77 3407.57 2346.06 3407.14 2346.4 3406.68 2346.69 3406.22 2346.99 3405.16 2347.7 3404.97 2347.68 3403.87 2348.55 3403.5 2348.84 3403.21 2349.19 3402.86 2349.48 3402.32 2349.92 3401.73 2350.31 3401.17 2350.73 3400.76 2351.88 3400.5 2352.41 3400.5 2353.84 3400.5 2354.17 3400.76 2354.46 3400.84 2354.78 3401.04 2355.64 3401.05 2356.74 3401.51 2357.58 3401.69 2357.92 3401.98 2358.19 3402.18 2358.52 3402.43 2358.92 3402.5 2359.43 3402.86 2359.76 3403.21 2360.09 3403.79 2360.12 3404.2 2360.39 3406.64 2361.99 3403.5 2360.8 3406.9 2361.94 3407.56 2362.17 3408.92 2362.57 3408.92 2362.57 3415.78 2362.25 3415.97 2362.04 3423.05 2362.57 3423.41 2362.59 3423.72 2362.81 3424.06 2362.88 3427.62 2363.61 3424.82 2362.8 3427.09 2363.5 3428.22 2363.4 3429.38 2363.5 3430.46 2363.19 3430.92 2363.06 3431.1 2362.54 3431.47 2362.25 3431.78 2362.01 3432.16 2361.86 3432.48 2361.63 3433.05 2361.23 3433.6 2360.8 3434.16 2360.39 3434.28 2359.97 3434.5 2359.57 3434.5 2359.14 3434.5 2358.3 3434.47 2357.43 3434.16 2356.65 3434 2356.23 3433.52 2356 3433.15 2355.71 3432.17 2354.96 3430.83 2354.52 3430.12 2353.53 3429.9 2353.22 3429.72 2352.88 3429.45 2352.6 3427.87 2350.97 3427.39 2350.57 3425.75 2349.48 3425.42 2349.27 3425.09 2349.05 3424.74 2348.86 3424.3 2348.63 3423.83 2348.47 3423.39 2348.24 3423.04 2348.05 3422.73 2347.8 3422.38 2347.61 3421.95 2347.38 3421.49 2347.18 3421.03 2346.99 3419.06 2346.18 3419.82 2346.8 3419.69 2345.12Z" stroke="#A9D18E" stroke-width="4.58333" stroke-linecap="butt" stroke-linejoin="miter" stroke-miterlimit="8" stroke-opacity="1" fill="#A9D18E" fill-rule="evenodd" fill-opacity="1"/><path d="M3412.16 2351.5 3412.16 2351.5C3411.12 2351.82 3409.55 2351.48 3409.04 2352.47 3407.75 2354.98 3408.98 2356.98 3410.6 2358.29 3411.08 2358.67 3411.64 2358.93 3412.16 2359.26 3414.04 2359.15 3416.25 2360.05 3417.79 2358.93 3419.62 2357.59 3417.45 2355.19 3416.54 2354.41 3416.25 2354.16 3415.94 2353.92 3415.6 2353.76 3415 2353.49 3414.35 2353.33 3413.72 2353.12L3412.79 2352.79C3412.47 2352.47 3412.22 2352.08 3411.85 2351.82 3411.57 2351.63 3412.11 2351.55 3412.16 2351.5Z" stroke="#70AD47" stroke-width="4.58333" stroke-linecap="butt" stroke-linejoin="miter" stroke-miterlimit="8" stroke-opacity="1" fill="#70AD47" fill-rule="evenodd" fill-opacity="1"/><path d="M3421.56 2234.5 3421.56 2234.5C3420.32 2234.61 3419.07 2234.65 3417.84 2234.82 3417.49 2234.87 3417.18 2235.1 3416.82 2235.14 3414.91 2235.32 3412.99 2235.35 3411.08 2235.46 3410.74 2235.56 3410.38 2235.63 3410.06 2235.78 3408.59 2236.47 3409.56 2236.41 3408.71 2236.41L3403.3 2238.01 3399.58 2240.56 3397.56 2242.16 3395.19 2245.03 3394.18 2248.22 3393.5 2252.05 3394.85 2257.16 3396.54 2258.12 3400.26 2260.35 3402.29 2261.95 3409.05 2264.5 3417.5 2264.5 3425.27 2262.27 3430.01 2260.03 3434.74 2258.12 3438.46 2255.24 3440.15 2252.37 3441.5 2248.54 3439.13 2240.24 3434.4 2237.05 3430.35 2236.1 3421.56 2234.5Z" stroke="#93C7CD" stroke-width="4.58333" stroke-linecap="butt" stroke-linejoin="miter" stroke-miterlimit="8" stroke-opacity="1" fill="#93C7CD" fill-rule="evenodd" fill-opacity="1"/><path d="M3423.51 2240.83 3423.51 2240.83C3421.68 2240.72 3419.86 2240.46 3418.03 2240.5 3411.95 2240.65 3412.29 2240.64 3408.77 2241.47 3408.43 2241.69 3408.06 2241.87 3407.74 2242.11 3407.37 2242.41 3407.11 2242.82 3406.71 2243.08 3406.3 2243.36 3405.78 2243.49 3405.34 2243.72 3404.98 2243.92 3404.68 2244.2 3404.31 2244.37 3403.76 2244.63 3403.16 2244.78 3402.6 2245.01 3401.29 2245.56 3401.3 2245.61 3400.2 2246.3 3399.97 2246.73 3399.51 2247.11 3399.51 2247.59 3399.51 2250.53 3399.24 2252.49 3401.23 2254.35 3401.52 2254.62 3401.91 2254.78 3402.25 2254.99 3403.35 2256.53 3402.53 2255.68 3404.65 2256.92 3405 2257.13 3405.31 2257.41 3405.68 2257.57 3406.34 2257.84 3407.08 2257.94 3407.74 2258.21 3408.68 2258.59 3410.48 2259.5 3410.48 2259.5 3415.32 2259.05 3412.8 2259.44 3418.03 2258.21 3418.79 2258.03 3420.95 2257.56 3421.45 2257.25 3421.8 2257.03 3422.11 2256.78 3422.48 2256.6 3422.81 2256.45 3423.17 2256.4 3423.51 2256.28 3424.09 2256.08 3424.67 2255.9 3425.22 2255.64 3425.59 2255.46 3425.9 2255.18 3426.25 2254.99 3428.89 2253.58 3426.37 2255.23 3429 2253.38 3429.34 2252.85 3429.73 2252.33 3430.02 2251.77 3430.98 2249.99 3430.24 2247.03 3430.02 2245.66 3429.99 2245.44 3428.95 2243.62 3428.65 2243.4 3428.37 2243.19 3427.95 2243.23 3427.62 2243.08 3425.66 2242.16 3425.55 2241.57 3423.17 2240.83L3423.51 2240.83Z" stroke="#A9D18E" stroke-width="4.58333" stroke-linecap="butt" stroke-linejoin="miter" stroke-miterlimit="8" stroke-opacity="1" fill="#A9D18E" fill-rule="evenodd" fill-opacity="1"/><path d="M3420.34 2245.11 3420.34 2245.11C3419.77 2245.06 3415.89 2244.45 3414.84 2245.11 3414.46 2245.36 3414.61 2245.93 3414.5 2246.34 3414.64 2246.96 3414.72 2248.35 3415.53 2248.8 3416.15 2249.14 3417.59 2249.41 3417.59 2249.41 3420.06 2249.29 3423.32 2250.16 3425.16 2248.19 3425.39 2247.94 3425.39 2247.57 3425.5 2247.26 3424.47 2246.65 3423.61 2245.69 3422.41 2245.42 3421.95 2245.32 3421.48 2245.24 3421.03 2245.11 3420.34 2244.93 3419.69 2244.5 3418.97 2244.5L3420.34 2245.11Z" stroke="#70AD47" stroke-width="4.58333" stroke-linecap="butt" stroke-linejoin="miter" stroke-miterlimit="8" stroke-opacity="1" fill="#70AD47" fill-rule="evenodd" fill-opacity="1"/><path d="M3380.7 2371.68 3374.94 2379.17 3373.58 2382.61 3371.89 2386.66 3371.89 2391.66 3371.89 2394.46 3370.19 2397.27 3368.5 2401.95 3369.52 2408.2 3372.57 2411.63 3376.97 2413.5 3380.03 2413.5 3389.18 2413.19 3399.69 2407.26 3405.11 2400.08 3408.16 2396.34 3408.5 2391.97 3408.5 2388.85 3408.5 2383.85 3405.45 2378.24 3400.03 2372.62 3394.94 2370.44 3389.86 2369.5 3380.7 2371.68Z" stroke="#93C7CD" stroke-width="4.58333" stroke-linecap="butt" stroke-linejoin="miter" stroke-miterlimit="8" stroke-opacity="1" fill="#93C7CD" fill-rule="evenodd" fill-opacity="1"/><path d="M3391.53 2376.06 3391.53 2376.06C3390.39 2376.89 3389.18 2377.65 3388.1 2378.55 3387.8 2378.8 3387.71 2379.22 3387.42 2379.48 3387.02 2379.85 3386.48 2380.07 3386.05 2380.42 3383.61 2382.41 3384.37 2381.89 3382.63 2384.15 3381.55 2385.56 3381.64 2385.12 3380.92 2386.64 3380.37 2387.81 3380.61 2387.96 3380.24 2389.44 3379.41 2392.69 3379.84 2390.53 3378.87 2393.18 3378.72 2393.59 3378.66 2394.01 3378.53 2394.42 3378.43 2394.74 3378.28 2395.04 3378.18 2395.36 3377.94 2396.18 3377.5 2397.85 3377.5 2397.85 3377.76 2400.74 3377.55 2400.81 3378.18 2402.83 3378.28 2403.15 3378.32 2403.5 3378.53 2403.76 3378.9 2404.24 3379.41 2404.62 3379.89 2405.01 3380.88 2405.8 3381.46 2406.09 3382.63 2406.57 3383.19 2406.79 3383.75 2407.03 3384.34 2407.19 3384.9 2407.34 3385.48 2407.4 3386.05 2407.5 3386.51 2407.4 3387.07 2407.48 3387.42 2407.19 3390.63 2404.51 3389.51 2404.75 3391.18 2402.21 3391.48 2401.76 3391.88 2401.38 3392.21 2400.96 3393.45 2399.38 3393.09 2399.27 3395.63 2397.54 3396.54 2396.92 3397.56 2396.4 3398.37 2395.67 3399.8 2394.37 3399.01 2395 3400.76 2393.8 3400.99 2393.39 3401.19 2392.96 3401.45 2392.56 3401.65 2392.23 3402.02 2391.98 3402.13 2391.62 3402.73 2389.76 3403.13 2387.41 3403.5 2385.4 3403.35 2383.31 3403.71 2381.05 3402.47 2379.17 3402.1 2378.6 3401.62 2378.08 3401.11 2377.61 3400.7 2377.25 3400.25 2376.91 3399.74 2376.68 3399.32 2376.49 3398.82 2376.47 3398.37 2376.37 3396.29 2375.11 3398.5 2376.3 3395.97 2375.43 3395.5 2375.27 3395.07 2374.99 3394.61 2374.81 3394.27 2374.68 3393.92 2374.6 3393.58 2374.5 3392.55 2374.71 3391.41 2374.65 3390.5 2375.12 3388.97 2375.92 3391.35 2375.9 3391.53 2376.06Z" stroke="#A9D18E" stroke-width="4.58333" stroke-linecap="butt" stroke-linejoin="miter" stroke-miterlimit="8" stroke-opacity="1" fill="#A9D18E" fill-rule="evenodd" fill-opacity="1"/><path d="M3389.5 2380.5 3389.5 2380.5C3389.61 2382.42 3389.64 2384.34 3389.82 2386.26 3389.86 2386.67 3389.97 2387.09 3390.14 2387.47 3390.29 2387.8 3390.56 2388.08 3390.79 2388.38 3391.1 2388.79 3391.33 2389.28 3391.75 2389.59 3392.32 2390.01 3393.04 2390.2 3393.68 2390.5 3395.95 2390.07 3396.7 2390.51 3397.86 2388.98 3398.14 2388.62 3398.29 2388.18 3398.5 2387.77 3398.26 2386.43 3397.95 2383.58 3396.57 2382.92L3395.29 2382.32C3395.18 2382.02 3395.2 2381.64 3394.96 2381.41 3394.63 2381.09 3394.16 2380.83 3393.68 2380.8 3389.39 2380.57 3390.2 2380.55 3389.5 2380.5Z" stroke="#70AD47" stroke-width="4.58333" stroke-linecap="butt" stroke-linejoin="miter" stroke-miterlimit="8" stroke-opacity="1" fill="#70AD47" fill-rule="evenodd" fill-opacity="1"/><path d="M3432.03 2300.69 3432.03 2300.69C3431.48 2299.84 3431.15 2298.81 3430.38 2298.14 3429.97 2297.78 3429.28 2297.95 3428.73 2297.82 3428.4 2297.74 3428.07 2297.61 3427.74 2297.5 3426.97 2297.61 3426.13 2297.48 3425.44 2297.82 3424.94 2298.06 3424.8 2298.69 3424.45 2299.09 3424.14 2299.44 3423.76 2299.7 3423.46 2300.05 3423.2 2300.34 3423.05 2300.71 3422.8 2301.01 3422.5 2301.35 3422.11 2301.62 3421.81 2301.96 3421.19 2302.65 3420.68 2303.44 3420.16 2304.19 3420.05 2305.68 3420 2307.17 3419.83 2308.65 3419.78 2309.09 3419.5 2309.49 3419.5 2309.93 3419.5 2311.84 3419.64 2313.76 3419.83 2315.67 3419.86 2316 3419.99 2316.33 3420.16 2316.62 3420.54 2317.29 3421.04 2317.9 3421.48 2318.53L3422.14 2319.49C3422.36 2319.81 3422.65 2320.09 3422.8 2320.45 3423.49 2322.12 3423.72 2323.28 3425.77 2324.27 3426.21 2324.48 3426.66 2324.67 3427.08 2324.91 3427.43 2325.1 3427.7 2325.41 3428.07 2325.54 3428.6 2325.73 3429.17 2325.77 3429.72 2325.86 3432.28 2326.31 3430.95 2325.94 3432.69 2326.5 3433.79 2326.39 3434.9 2326.34 3435.99 2326.18 3436.33 2326.13 3436.71 2326.07 3436.98 2325.86 3437.29 2325.62 3437.36 2325.18 3437.64 2324.91 3437.92 2324.64 3438.3 2324.48 3438.63 2324.27 3438.84 2323.84 3439 2323.38 3439.28 2322.99 3439.56 2322.63 3440.02 2322.41 3440.27 2322.04 3441.55 2320.19 3439.38 2321.87 3441.59 2320.45 3441.81 2320.13 3442 2319.78 3442.25 2319.49 3442.55 2319.14 3443.02 2318.93 3443.24 2318.53 3444.89 2315.67 3444.56 2317.05 3444.23 2315.67 3443.9 2314.28 3442.09 2311.63 3441.26 2310.25 3440.43 2309.18 3439.92 2308.61 3439.28 2307.38 3439.13 2307.08 3439.17 2306.69 3438.96 2306.42 3438.71 2306.12 3438.29 2306.01 3437.97 2305.79 3437.52 2305.48 3437.06 2305.18 3436.65 2304.83 3435.63 2303.98 3435.83 2303.8 3434.67 2303.24 3433.15 2302.5 3432.47 2301.11 3432.03 2300.69Z" stroke="#93C7CD" stroke-width="4.58333" stroke-linecap="butt" stroke-linejoin="miter" stroke-miterlimit="8" stroke-opacity="1" fill="#93C7CD" fill-rule="evenodd" fill-opacity="1"/><path d="M3426.48 2301.85 3426.48 2301.85C3426.13 2302.97 3424.62 2307.61 3424.56 2308.58 3424.42 2310.82 3424.52 2313.09 3424.88 2315.32 3424.96 2315.82 3425.52 2316.13 3425.84 2316.54 3426.09 2317.98 3426.1 2318.32 3426.48 2319.6 3426.57 2319.91 3426.63 2320.24 3426.8 2320.52 3427.06 2320.96 3427.45 2321.33 3427.76 2321.74 3428.21 2322.35 3428.83 2323.39 3429.35 2323.89 3429.63 2324.15 3429.99 2324.3 3430.31 2324.5 3431.91 2324.4 3433.52 2324.36 3435.11 2324.19 3435.44 2324.16 3435.77 2324.04 3436.07 2323.89 3436.3 2323.76 3438.84 2322.15 3439.26 2321.74 3439.53 2321.48 3439.73 2321.16 3439.9 2320.83 3440.05 2320.54 3440.09 2320.2 3440.22 2319.91 3440.41 2319.49 3440.65 2319.09 3440.86 2318.68 3440.97 2318.17 3441.05 2317.66 3441.18 2317.15 3441.26 2316.84 3441.5 2316.56 3441.5 2316.23 3441.5 2315.47 3440.86 2315.02 3440.54 2314.4 3440.39 2314.11 3440.4 2313.75 3440.22 2313.48 3439.86 2312.93 3439.35 2312.47 3438.94 2311.95 3438.2 2311.01 3438.4 2310.9 3437.34 2310.11 3436.88 2309.76 3434.73 2308.53 3434.15 2307.97 3433.88 2307.71 3433.74 2307.34 3433.51 2307.05 3433.1 2306.53 3432.69 2306 3432.23 2305.52 3431.41 2304.67 3430.34 2304.03 3429.67 2303.07 3428.9 2301.96 3429.11 2302.05 3427.76 2301.23 3427.35 2300.99 3426.65 2300.2 3426.48 2300.62 3426 2301.76 3426.48 2301.64 3426.48 2301.85Z" stroke="#A9D18E" stroke-width="4.58333" stroke-linecap="butt" stroke-linejoin="miter" stroke-miterlimit="8" stroke-opacity="1" fill="#A9D18E" fill-rule="evenodd" fill-opacity="1"/><path d="M3432.68 2313.5 3432.68 2313.5C3431.83 2313.85 3430.91 2314.04 3430.14 2314.56 3429.22 2315.17 3429.46 2315.88 3429.82 2316.68 3430.38 2317.93 3430.42 2317.66 3431.41 2318.44 3431.84 2318.78 3432.26 2319.15 3432.68 2319.5 3434.42 2319.23 3435.25 2319.6 3436.18 2317.74 3436.44 2317.21 3436.39 2316.56 3436.5 2315.97 3436.18 2315.62 3435.93 2315.18 3435.55 2314.91 3434.75 2314.35 3433 2313.5 3433 2313.5L3432.68 2313.5Z" stroke="#70AD47" stroke-width="4.58333" stroke-linecap="butt" stroke-linejoin="miter" stroke-miterlimit="8" stroke-opacity="1" fill="#70AD47" fill-rule="evenodd" fill-opacity="1"/><path d="M3323.5 2427.47 3330.17 2424.95 3335.83 2425.27 3340.83 2427.15 3345.5 2428.41 3350.5 2432.5 3349.17 2429.35 3347.83 2425.89 3349.17 2421.81 3351.17 2418.66 3351.83 2416.14 3352.83 2411.74 3351.5 2406.71 3350.5 2403.88 3350.17 2401.99 3351.17 2399.47 3353.5 2396.01 3355.17 2393.81 3355.17 2390.67 3354.5 2387.52 3354.5 2383.75 3353.83 2379.97 3355.17 2376.2 3358.17 2373.68 3360.17 2370.85 3360.83 2365.82 3360.83 2362.67 3359.83 2357.95 3363.17 2353.86 3365.83 2349.15 3368.17 2346.32 3369.17 2342.54 3368.5 2338.45 3370.17 2333.42 3372.5 2330.27 3368.5 2333.73 3364.83 2334.99 3361.5 2335.31 3357.5 2334.68C3356.61 2334.26 3355.74 2333.81 3354.83 2333.42 3354.51 2333.28 3354.13 2333.29 3353.83 2333.11 3350.31 2330.89 3354.49 2332.95 3352.17 2331.85L3349.17 2328.39 3347.17 2326.5 3346.83 2327.44 3346.83 2329.65 3346.83 2332.79C3346.27 2335.42 3346.58 2335.41 3345.5 2337.19 3345.3 2337.52 3345.12 2337.87 3344.83 2338.14 3344.55 2338.41 3343.83 2338.77 3343.83 2338.77L3342.83 2340.97 3341.83 2343.17 3340.83 2345.69 3339.5 2351.35 3339.83 2353.55C3339.72 2354.6 3339.71 2355.66 3339.5 2356.7 3339.09 2358.74 3339 2358.15 3338.17 2359.53 3337.92 2359.93 3337.75 2360.38 3337.5 2360.78 3337.3 2361.11 3337.03 2361.4 3336.83 2361.73 3335.76 2363.51 3336.69 2362.49 3335.5 2363.62L3335.17 2365.19 3333.83 2368.33 3334.17 2373.05 3333.83 2375.57 3331.17 2380.29 3328.83 2384.06 3328.17 2390.04 3328.83 2393.5 3328.83 2398.53 3326.5 2401.36 3325.5 2404.51 3323.5 2409.85C3323.84 2415.93 3323.83 2413.83 3323.83 2416.14L3323.83 2417.09 3323.83 2418.66C3325.95 2421.46 3325.5 2419.96 3323.5 2427.47Z" stroke="#D0DBB3" stroke-width="4.58333" stroke-linecap="butt" stroke-linejoin="miter" stroke-miterlimit="8" stroke-opacity="1" fill="#D0DBB3" fill-rule="evenodd" fill-opacity="1"/><path d="M3340.76 2402.04 3340.76 2402.04C3339.52 2401.73 3338.3 2401.4 3337.06 2401.12 3336.12 2400.9 3334.26 2400.64 3333.36 2400.5 3332.91 2400.6 3332.44 2400.64 3332.02 2400.81 3331.65 2400.95 3331.32 2401.18 3331.01 2401.42 3330.17 2402.08 3329.25 2403.01 3328.66 2403.88 3328.39 2404.27 3328.21 2404.71 3327.99 2405.12 3327.39 2408.97 3327.29 2408.62 3327.99 2414.35 3328.04 2414.8 3328.47 2415.15 3328.66 2415.58 3328.92 2416.18 3329.06 2416.82 3329.33 2417.42 3330.12 2419.16 3330.4 2419.24 3331.35 2420.81 3331.87 2421.68 3332.16 2422.59 3333.03 2423.27 3333.41 2423.57 3333.91 2423.7 3334.37 2423.88 3335.42 2424.3 3336.19 2424.32 3337.4 2424.5L3341.43 2424.19C3346.58 2423.83 3344.81 2424.69 3347.14 2423.27 3347.48 2422.55 3347.83 2421.84 3348.15 2421.12 3348.28 2420.81 3348.34 2420.49 3348.48 2420.19 3348.79 2419.56 3349.19 2418.97 3349.49 2418.35 3349.64 2418.05 3349.69 2417.72 3349.83 2417.42 3350.03 2417 3350.28 2416.6 3350.5 2416.19 3349.2 2408.48 3350.36 2414.53 3349.49 2410.96 3349.47 2410.86 3348.97 2408.43 3348.82 2408.19 3348.58 2407.81 3348.1 2407.62 3347.81 2407.27 3347.42 2406.79 3347.22 2406.19 3346.8 2405.73 3346.09 2404.95 3345.44 2404.03 3344.45 2403.58 3344 2403.37 3343.54 2403.19 3343.11 2402.96 3342.76 2402.78 3341.15 2402.19 3340.76 2402.04Z" stroke="#A9D18E" stroke-width="4.58333" stroke-linecap="butt" stroke-linejoin="miter" stroke-miterlimit="8" stroke-opacity="1" fill="#A9D18E" fill-rule="evenodd" fill-opacity="1"/><path d="M3345.91 2378.73 3345.91 2378.73 3338.33 2379.62C3337.63 2379.71 3336.86 2379.62 3336.26 2379.92 3335.94 2380.07 3336.11 2380.55 3335.91 2380.81 3335.64 2381.16 3335.19 2381.38 3334.88 2381.7 3333.97 2382.64 3334 2383.08 3333.5 2384.37 3333.55 2384.86 3333.66 2387.77 3334.19 2388.83 3334.76 2389.97 3335.01 2389.7 3336.26 2390.31 3336.62 2390.49 3336.91 2390.77 3337.29 2390.91 3337.73 2391.07 3338.2 2391.18 3338.67 2391.2 3342 2391.38 3345.33 2391.4 3348.67 2391.5 3350.16 2391.3 3351.76 2391.42 3353.15 2390.91 3353.58 2390.75 3353.49 2390.13 3353.49 2389.72 3353.49 2389.09 3353.53 2386.22 3352.8 2384.97 3352.62 2384.65 3352.34 2384.37 3352.11 2384.08 3351.88 2383.28 3351.61 2382.5 3351.42 2381.7 3351.31 2381.21 3351.39 2380.64 3351.08 2380.22 3350.77 2379.8 3350.2 2379.57 3349.7 2379.33 3346.77 2377.92 3343.94 2378.73 3345.91 2378.73Z" stroke="#A9D18E" stroke-width="4.58333" stroke-linecap="butt" stroke-linejoin="miter" stroke-miterlimit="8" stroke-opacity="1" fill="#A9D18E" fill-rule="evenodd" fill-opacity="1"/><path d="M3353.55 2358.5 3353.55 2358.5 3350.58 2358.82C3349.12 2359 3348.26 2359.08 3346.95 2359.46 3346.28 2359.65 3345.6 2359.83 3344.96 2360.1 3344.36 2360.36 3343.35 2361.21 3342.98 2361.7 3342.61 2362.2 3341.38 2365.1 3341.33 2365.22 3341.22 2365.97 3341.12 2366.71 3341 2367.46 3340.62 2369.9 3340.1 2371.37 3341 2374.18 3341.14 2374.6 3341.88 2374.39 3342.32 2374.5L3347.61 2374.18C3349.04 2374.08 3350.47 2374.01 3351.9 2373.86 3353.3 2373.72 3353.93 2373.53 3355.2 2373.22 3356.15 2372.6 3356.78 2372.29 3357.51 2371.3 3357.71 2371.03 3357.7 2370.65 3357.84 2370.34 3358.03 2369.9 3358.28 2369.49 3358.5 2369.06 3358.28 2367.03 3358.11 2365 3357.84 2362.98 3357.78 2362.54 3357.73 2362.08 3357.51 2361.7 3357.28 2361.31 3356.8 2361.1 3356.52 2360.74 3354.96 2358.72 3356.35 2359.41 3354.54 2358.82 3352.67 2358.93 3350.79 2358.96 3348.93 2359.14 3348.58 2359.17 3348.21 2359.26 3347.94 2359.46 3347.74 2359.6 3347.72 2359.89 3353.55 2358.5Z" stroke="#A9D18E" stroke-width="4.58333" stroke-linecap="butt" stroke-linejoin="miter" stroke-miterlimit="8" stroke-opacity="1" fill="#A9D18E" fill-rule="evenodd" fill-opacity="1"/><path d="M3363.24 2338.5 3363.24 2338.5C3361.28 2338.18 3359.35 2337.57 3357.36 2337.54 3351.99 2337.43 3348.61 2337.46 3344.23 2338.82 3343.63 2339.93 3343.29 2340.47 3342.85 2341.7 3342.7 2342.11 3342.62 2342.55 3342.5 2342.98 3342.62 2345.11 3342.55 2347.26 3342.85 2349.38 3342.9 2349.76 3343.28 2350.04 3343.54 2350.34 3344.09 2351 3344.59 2351.71 3345.26 2352.26 3346.11 2352.96 3347.03 2352.91 3348.03 2353.22 3348.62 2353.4 3349.17 2353.68 3349.76 2353.86 3351.13 2354.28 3352.45 2354.33 3353.9 2354.5 3355.06 2354.29 3356.22 2354.1 3357.36 2353.86 3357.72 2353.78 3358.07 2353.69 3358.4 2353.54 3359 2353.26 3359.54 2352.88 3360.13 2352.58 3360.8 2352.24 3361.53 2351.98 3362.2 2351.62 3363.48 2350.93 3364.49 2350.19 3365.65 2349.38 3366.64 2345.27 3366.78 2345.92 3366 2340.42 3365.93 2339.94 3365.64 2339.5 3365.31 2339.14 3365.04 2338.84 3363.58 2338.6 3363.24 2338.5Z" stroke="#A9D18E" stroke-width="4.58333" stroke-linecap="butt" stroke-linejoin="miter" stroke-miterlimit="8" stroke-opacity="1" fill="#A9D18E" fill-rule="evenodd" fill-opacity="1"/><path d="M3335.83 2406.5 3335.83 2406.5C3334.21 2407.79 3333.43 2407.91 3332.83 2409.57 3332.65 2410.06 3332.61 2410.59 3332.5 2411.1 3332.52 2411.22 3332.93 2413.8 3333.17 2414.17 3333.4 2414.55 3333.81 2414.81 3334.17 2415.09 3334.38 2415.26 3336.08 2416.43 3336.5 2416.63 3337.26 2416.98 3338.06 2417.24 3338.83 2417.55 3339.17 2417.86 3339.39 2418.33 3339.83 2418.47 3340.17 2418.57 3340.59 2418.39 3340.83 2418.16 3341.08 2417.94 3341.08 2417.56 3341.17 2417.24 3341.3 2416.74 3341.39 2416.22 3341.5 2415.71 3341.28 2414.89 3341.15 2414.05 3340.83 2413.25 3340.7 2412.91 3340.33 2412.67 3340.17 2412.33 3339.88 2411.74 3339.79 2411.08 3339.5 2410.49 3339.01 2409.48 3336.95 2407.77 3336.5 2407.42 3335.16 2406.39 3335.94 2406.65 3335.83 2406.5Z" stroke="#70AD47" stroke-width="4.58333" stroke-linecap="butt" stroke-linejoin="miter" stroke-miterlimit="8" stroke-opacity="1" fill="#70AD47" fill-rule="evenodd" fill-opacity="1"/><path d="M3346.54 2381.83 3346.54 2381.83C3345.49 2382.37 3344.33 2382.76 3343.38 2383.44 3338.24 2387.12 3344.18 2384.2 3340.21 2386.01 3339.97 2386.43 3339.44 2386.81 3339.51 2387.29 3339.58 2387.82 3340.15 2388.2 3340.56 2388.57 3341.4 2389.34 3342.4 2389.91 3343.38 2390.5 3344.28 2390.38 3346.23 2390.21 3347.25 2389.86 3347.74 2389.69 3348.19 2389.43 3348.65 2389.22 3348.89 2388.9 3349.33 2388.64 3349.36 2388.25 3349.53 2385.35 3349.88 2383.91 3347.95 2382.15 3347.65 2381.88 3347.29 2381.66 3346.9 2381.51 3346.68 2381.43 3346.6 2381.78 3346.54 2381.83Z" stroke="#70AD47" stroke-width="4.58333" stroke-linecap="butt" stroke-linejoin="miter" stroke-miterlimit="8" stroke-opacity="1" fill="#70AD47" fill-rule="evenodd" fill-opacity="1"/><path d="M3348.83 2363.72 3348.83 2363.72C3347.27 2364.02 3345.65 2364.11 3344.17 2364.62 3342.79 2365.08 3343.94 2366.85 3344.17 2367.31 3344.33 2367.64 3344.6 2367.92 3344.83 2368.21 3345.63 2369.19 3346.42 2370.66 3347.83 2371.2 3348.25 2371.36 3348.72 2371.4 3349.16 2371.5 3349.41 2371.04 3350.46 2369.25 3350.49 2368.81 3350.58 2367.55 3350 2364.69 3349.49 2363.42 3349.35 2363.08 3349.03 2362.83 3348.83 2362.52 3348.7 2362.33 3348.83 2363.52 3348.83 2363.72Z" stroke="#70AD47" stroke-width="4.58333" stroke-linecap="butt" stroke-linejoin="miter" stroke-miterlimit="8" stroke-opacity="1" fill="#70AD47" fill-rule="evenodd" fill-opacity="1"/><path d="M3358.5 2344.5 3358.5 2344.5C3357.23 2344.8 3355.93 2345 3354.69 2345.39 3354.32 2345.5 3354.06 2345.8 3353.73 2345.98 3353.32 2346.2 3352.89 2346.38 3352.46 2346.57 3352.36 2346.87 3352.28 2347.18 3352.14 2347.46 3351.96 2347.87 3351.57 2348.21 3351.51 2348.65 3351.45 2349.05 3351.65 2349.46 3351.83 2349.83 3351.98 2350.16 3352.21 2350.46 3352.46 2350.72 3353.06 2351.35 3354.37 2352.5 3354.37 2352.5 3355 2352.3 3355.72 2352.25 3356.28 2351.91 3356.72 2351.63 3356.92 2351.12 3357.23 2350.72 3357.98 2349.74 3357.88 2349.81 3358.5 2348.65 3358.29 2346.66 3359.02 2345.76 3357.23 2345.09 3357.03 2345.02 3358.29 2344.6 3358.5 2344.5Z" stroke="#70AD47" stroke-width="4.58333" stroke-linecap="butt" stroke-linejoin="miter" stroke-miterlimit="8" stroke-opacity="1" fill="#70AD47" fill-rule="evenodd" fill-opacity="1"/></g></g></svg>