<svg width="687" height="385" xmlns="http://www.w3.org/2000/svg" xmlns:xlink="http://www.w3.org/1999/xlink" xml:space="preserve" overflow="hidden"><g transform="translate(-1980 -284)"><g><g><g><g><path d="M22.3659 380.381C21.6204 380.274 18.6383 379.475 15.7094 378.623 12.7805 377.718 9.31914 376.759 7.98783 376.44 4.84595 375.694 1.49106 372.286 0.532522 368.878-0.95854 363.5 1.33131 357.642 7.77482 350.133 10.0647 347.524 13.1533 343.424 14.6976 341.027 16.9875 337.459 18.1058 336.288 21.6204 333.945 23.9635 332.4 26.8391 329.951 28.1172 328.566 30.9395 325.318 32.9631 324.626 37.9688 325.052 41.2172 325.371 42.7083 325.211 47.9803 323.827 57.1396 321.484 66.8315 317.809 76.4169 313.123 91.6471 305.668 100.54 300.076 128.764 280.266 139.414 272.811 151.396 264.61 155.39 262.054 171.738 251.617 187.448 243.842 201.719 239.049 209.441 236.493 210.133 235.801 209.601 231.487 209.441 229.943 208.802 227.174 208.216 225.257 206.512 219.719 205.607 214.553 204.755 206.193 203.583 194.104 202.305 191.495 195.649 188.193 191.655 186.17 190.11 184.785 190.11 183.188 190.11 182.762 190.749 181.164 191.548 179.726 192.826 177.383 193.039 176.531 192.986 172.537 192.986 168.916 192.613 166.946 191.229 162.686 189.045 156.082 188.513 149.905 189.791 146.124 191.016 142.45 190.909 141.864 188.193 140 183.933 137.071 183.294 132.971 185.904 125.089 186.489 123.279 186.862 121.522 186.702 121.149 186.543 120.723 185.051 120.403 182.389 120.244 178.874 120.084 178.129 119.871 177.277 118.806 175.999 117.208 175.999 115.77 177.383 111.67 179.513 105.439 179.087 102.138 173.922 83.606 167.851 61.7193 166.679 54.7965 166.626 41.4835 166.573 21.8867 172.963 6.23051 182.921 1.54431 187.554-0.692279 189.844-0.426018 191.388 2.55611 192.4 4.52644 197.672 21.9932 203.157 41.5367 209.974 65.8197 214.766 81.7954 218.068 91.5938 225.683 114.013 234.629 133.45 244.8 149.585 250.498 158.692 251.35 163.644 251.83 190.377 252.203 209.814 252.469 212.849 253.907 213.754 254.173 213.914 257.368 212.902 260.989 211.465 264.61 210.08 270.788 207.737 274.675 206.352 285.592 202.412 287.882 200.495 287.242 195.755 286.71 192.081 287.296 190.856 291.556 186.383 296.029 181.697 296.189 181.111 294.751 175.732 292.834 168.597 294.485 166.147 303.271 162.739 309.236 160.449 310.141 159.277 310.727 153.366 311.206 147.775 312.005 146.284 315.466 144.101 318.928 141.864 320.419 139.894 321.643 135.953 322.708 132.492 323.773 131.16 325.744 130.681 330.909 129.509 331.548 129.19 333.891 126.687 337.832 122.427 341.932 121.415 351.039 122.48 368.346 124.45 382.724 131.48 389.54 141.331 391.031 143.515 391.457 144.58 391.191 145.592 390.978 146.39 387.836 149.532 383.043 153.792 370.742 164.549 363.5 172.857 357.535 182.975 353.382 190.004 353.382 189.578 357.748 188.779 367.121 186.969 374.097 186.756 409.776 187.128 470.75 187.767 471.921 187.501 512.073 166.36 521.712 161.248 533.108 155.55 537.315 153.633 545.888 149.745 548.604 148.094 549.51 146.124 550.415 144.101 550.308 143.728 547.326 140.32 526.718 116.303 517.984 98.0373 517.878 78.8133 517.878 73.4881 518.038 71.8372 518.783 70.4527 521.02 66.3523 524.907 68.3759 530.073 76.2572 533.108 80.9434 535.291 81.9019 549.297 84.671 562.769 87.3336 567.509 88.7715 573.739 92.0198 580.183 95.3747 584.337 99.5284 587.319 105.439 590.407 111.617 591.366 111.989 596.265 109.167 601.111 106.345 608.779 103.948 622.252 100.913 636.524 97.7178 639.399 96.8125 642.595 94.5227 653.884 86.2686 675.025 82.4877 680.244 87.7064 681.948 89.4105 682.054 91.3276 680.457 92.3393 679.765 92.7121 676.782 93.8304 673.8 94.7357 666.239 97.0788 662.937 99.2089 654.843 106.93 646.269 115.078 637.11 123.172 631.039 127.859 620.175 136.326 606.49 143.994 594.188 148.52 590.194 149.958 587.585 151.29 586.733 152.195 585.987 152.994 582.1 158.479 578.159 164.443 561.225 189.684 546.634 207.524 525.919 228.186 504.618 249.433 484.755 265.835 450.833 290.225 434.911 301.674 433.473 303.165 435.071 306.04 435.55 306.893 436.775 308.011 437.893 308.597 440.396 309.928 440.928 311.632 439.491 313.549 435.923 318.395 423.142 324.892 411.693 327.767 404.025 329.685 399.338 330.164 385.014 330.696L371.967 331.122 363.979 333.838C343.37 340.867 320.685 346.619 299.544 350.08 280.479 353.222 267.752 354.5 243.096 355.725 230.476 356.311 226.215 357.003 217.003 359.879 205.98 363.34 193.678 366.216 182.389 367.973 172.271 369.517 160.928 370.156 131 370.902 89.5702 371.914 75.4051 373.138 51.3884 377.878 39.0871 380.274 27.8509 381.286 22.3659 380.381Z" fill="#000000" fill-rule="nonzero" fill-opacity="1" transform="matrix(-1 0 0 -1.00065 2662.81 667)"/></g></g></g></g></g></svg>