<svg width="307" height="198" xmlns="http://www.w3.org/2000/svg" xmlns:xlink="http://www.w3.org/1999/xlink" xml:space="preserve" overflow="hidden"><g transform="translate(-2067 -132)"><g><g><g><g><path d="M11.3225 179.759C11.0424 179.292 12.233 178.382 13.3302 178.218 14.7776 177.985 14.6375 177.658 13.1201 177.658 12.1629 177.658 11.6493 177.541 11.4392 177.308 10.7155 176.444 12.5365 175.744 16.5752 175.324 19.2132 175.067 20.684 174.74 20.8941 174.39 20.9875 174.25 20.4505 174.156 19.5634 174.156 17.3223 174.156 16.3417 173.199 17.9292 172.545 18.2794 172.405 19.9603 171.985 21.6878 171.588 24.1624 171.051 24.9562 170.771 25.4464 170.304 26.1935 169.581 27.1506 169.277 31.9831 168.157 33.9675 167.713 35.9285 167.153 36.3254 166.896 36.7222 166.662 39.0801 165.892 41.5781 165.168 44.076 164.445 46.2238 163.721 46.3639 163.534 46.7841 162.974 48.9552 162.32 54.4647 161.083 56.6825 160.593 56.7759 160.546 57.1027 159.776 57.4529 158.935 57.4996 158.912 58.947 158.982 59.484 158.982 61.1882 158.585 62.9157 158.048 64.5966 157.534 66.3241 157.044 66.791 156.974 67.328 156.881 67.6782 156.671 67.8416 156.344 68.1217 155.69 69.9193 155.153 74.1915 154.406 76.0358 154.103 77.6233 153.846 77.74 153.846 77.8334 153.846 77.9735 153.636 78.0435 153.402 78.1135 153.099 78.4404 152.912 79.1174 152.795 79.6543 152.702 80.378 152.492 80.7516 152.305 81.6153 151.862 83.5997 151.511 85.0938 151.511 86.2377 151.511 86.3545 151.465 86.5646 150.834 86.7747 150.251 86.9381 150.157 87.9419 150.064 89.1792 149.947 94.0584 147.916 94.3853 147.379 94.6421 146.982 95.8093 146.375 96.3696 146.375 96.6031 146.375 97.4202 145.885 98.1905 145.301 100.035 143.854 100.782 143.504 101.646 143.644 102.253 143.737 102.556 143.597 103.467 142.733 104.237 142.01 104.774 141.706 105.241 141.706 105.684 141.706 106.151 141.449 106.688 140.889 107.669 139.885 108.719 139.372 109.887 139.372 110.634 139.372 110.867 139.255 111.171 138.741 111.848 137.598 112.595 137.061 113.598 136.991 114.439 136.92 114.672 136.78 115.373 135.87 115.98 135.053 116.377 134.773 117.124 134.609 117.941 134.423 118.151 134.236 118.571 133.372 118.945 132.578 119.318 132.228 120.088 131.878 120.789 131.574 121.209 131.201 121.396 130.734 121.746 129.87 122.89 128.866 123.52 128.866 123.8 128.866 124.127 128.54 124.431 127.956 125.014 126.812 125.505 126.508 126.275 126.789 126.835 127.022 127.209 126.765 127.232 126.182 127.232 126.042 127.489 125.551 127.816 125.084 128.213 124.477 128.633 124.174 129.17 124.081 129.777 123.964 130.057 123.707 130.501 122.843 130.921 122.026 131.294 121.676 131.855 121.489 132.275 121.349 132.812 120.952 133.045 120.625 133.605 119.738 134.236 119.318 134.936 119.295 135.38 119.295 135.66 119.061 135.987 118.454 136.5 117.474 137.574 116.61 138.508 116.377 139.325 116.166 140.189 115.046 140.539 113.692 140.679 113.108 141.076 112.198 141.379 111.661 141.683 111.124 141.94 110.33 141.94 109.91 141.94 108.626 143.621 107.155 145.558 106.735L146.399 106.572 145.115 105.147 143.854 103.747 141.239 103.443C139.815 103.28 137.668 102.93 136.5 102.673 130.43 101.389 125.248 100.829 115.326 100.385 109.373 100.128 108.929 100.035 108.836 99.0543 108.789 98.5174 108.906 98.2139 109.35 97.8637 109.7 97.6069 109.957 97.3268 109.957 97.2567 109.957 97.1867 109.536 96.9532 109.023 96.7431 108.159 96.393 108.089 96.2996 108.089 95.4591 108.089 94.6654 108.252 94.3853 109.303 93.3114L110.494 92.0974 110.517 90.4866 110.54 88.8991 111.708 87.8486C112.361 87.2649 113.295 86.4945 113.809 86.121 114.322 85.7475 114.906 85.1405 115.116 84.7903 115.536 84.0666 116.797 83.2962 118.478 82.7359 119.785 82.2924 119.995 82.0823 119.995 81.1951 119.995 80.378 121.116 79.094 122.283 78.5571 122.75 78.347 123.544 77.9501 124.034 77.7167 125.201 77.133 125.551 77.1564 128.283 78.0669 129.567 78.5104 130.641 78.8372 130.687 78.7906 130.734 78.7439 130.641 78.5104 130.477 78.2536 130.22 77.8567 130.22 77.67 130.477 77.1797 130.711 76.7829 130.757 76.1759 130.641 75.102 130.477 73.7246 130.501 73.5379 130.944 73.3278 131.504 73.0243 135.146 72.604 137.387 72.604L139.022 72.604 139.022 71.1099C139.022 69.3824 139.232 69.0089 139.839 69.7559 140.376 70.4096 140.539 70.4096 140.539 69.6859 140.539 69.359 140.329 68.9155 140.072 68.7054 139.418 68.1217 139.488 67.935 140.399 67.935 141.169 67.935 141.216 68.005 142.804 70.8998L144.414 73.888 146.329 74.0048C147.379 74.0748 148.243 74.0981 148.243 74.0981 148.243 74.0748 147.916 73.7013 147.519 73.2811 146.726 72.4173 146.142 71.2734 146.142 70.503 146.142 69.896 146.469 69.9193 147.496 70.5497 147.939 70.8298 148.266 70.9465 148.196 70.8298 148.15 70.7131 147.869 70.1061 147.566 69.4524 147.286 68.8221 146.772 68.005 146.445 67.6548 145.815 67.0012 145.558 65.3903 146.049 65.2036 146.189 65.1569 146.656 65.437 147.076 65.8339 147.473 66.2074 148.01 66.5342 148.243 66.5342 148.757 66.5342 150.507 68.4019 152.655 71.2734 153.589 72.5107 154.71 73.818 155.13 74.1448 155.573 74.4717 155.947 74.9619 155.994 75.2421 156.064 75.7323 156.204 75.7557 158.982 75.8957 161.597 76.0125 162.133 76.1058 164.188 76.8762 165.449 77.3431 167.176 77.9034 168.04 78.0902 168.927 78.3003 170.888 79.0707 172.452 79.8178 173.993 80.5882 175.627 81.2652 176.047 81.3586 176.491 81.4519 177.425 81.7087 178.125 81.9422 178.825 82.1756 179.689 82.4324 180.039 82.5025 180.436 82.5959 180.716 82.8527 180.856 83.2495 181.043 83.7865 181.347 83.9499 183.028 84.4401 186.343 85.3973 186.366 85.7241 183.448 88.0353 180.786 90.1131 176.491 93.8717 176.491 94.1051 176.491 94.1985 177.611 94.9922 179.012 95.856 186.343 100.432 190.615 104.33 191.198 107.015 191.945 110.4 192.156 113.295 191.875 115.886L191.572 118.431 192.366 119.108C193.183 119.762 193.766 119.948 193.766 119.528 193.766 119.108 194.84 119.295 195.984 119.902 196.778 120.299 197.175 120.415 197.338 120.252 197.782 119.808 198.482 119.972 200.21 120.929 201.517 121.653 202.171 121.863 203.035 121.863 203.641 121.863 204.599 122.073 205.112 122.306 205.766 122.61 206.396 122.703 207.097 122.633 208.357 122.493 210.692 123.077 211.602 123.754 212.209 124.221 212.303 124.221 212.489 123.87 212.77 123.38 212.956 123.404 214.17 123.94 214.707 124.197 215.664 124.524 216.318 124.688 216.948 124.851 217.672 125.108 217.929 125.295 218.186 125.458 218.746 125.598 219.189 125.598 219.633 125.598 220.193 125.761 220.427 125.972 220.777 126.322 220.964 126.322 221.874 126.065 222.481 125.901 223.438 125.831 224.255 125.925 225.026 126.018 227.127 126.158 228.948 126.252 231.446 126.392 232.38 126.532 232.683 126.812 233.01 127.092 233.92 127.209 236.605 127.349 239.99 127.512 240.667 127.652 241.344 128.329 241.578 128.563 242.605 128.633 245.5 128.633 249.118 128.633 249.352 128.656 249.842 129.146 250.286 129.59 250.659 129.66 253.624 129.777 255.445 129.87 257.079 130.034 257.266 130.15 257.453 130.29 259.04 130.384 260.768 130.407 264.223 130.43 265.203 130.664 265.203 131.458 265.203 131.808 265.32 131.901 265.553 131.808 266.347 131.504 269.872 131.154 270.643 131.294 271.717 131.504 272.16 132.018 271.787 132.625 271.623 132.858 271.506 133.115 271.506 133.185 271.506 133.395 272.954 133.302 275.405 132.905 277.786 132.508 277.88 132.532 278.183 132.952 278.37 133.185 278.51 133.675 278.51 134.026 278.51 134.633 278.533 134.656 280.214 134.749 282.035 134.819 283.459 135.45 282.992 135.917 282.292 136.617 262.308 140.586 252.013 142.056 246.06 142.897 241.788 143.177 237.422 143.014 227.174 142.64 217.182 140.399 206.256 136.057 201.937 134.329 193.86 130.384 190.218 128.189L187.487 126.555 186.039 127.302C184.078 128.306 181.744 128.353 178.825 127.419 176.911 126.812 173.456 126.298 171.215 126.298 170.444 126.298 169.581 126.555 168.203 127.209 164.165 129.1 161.246 131.481 154.99 137.971 152.492 140.562 149.784 143.247 148.943 143.971 148.103 144.671 144.601 147.916 141.123 151.161 129.38 162.133 128.96 162.437 122.75 164.678 117.194 166.686 106.898 169.347 100.082 170.538 86.3778 172.942 51.4532 176.888 23.929 179.152 13.4236 180.016 11.5326 180.109 11.3225 179.759Z" fill="#000000" fill-rule="nonzero" fill-opacity="1" transform="matrix(1.00041 0 0 -1 2071.03 327)"/></g></g></g></g></g></svg>