<svg width="389" height="348" xmlns="http://www.w3.org/2000/svg" xmlns:xlink="http://www.w3.org/1999/xlink" xml:space="preserve" overflow="hidden"><g transform="translate(-3300 -1054)"><g><path d="M3418.53 1355.27 3369.27 1289.52 3331.16 1252.63 3309.38 1232.98 3304.77 1209.01 3312.69 1166.69 3326.41 1130.94 3342.98 1108.41 3353.28 1095.05 3359.54 1085.88 3386.22 1079.81 3395.78 1068.12 3408.19 1069.65 3433.39 1066.91 3438.91 1059.4 3448.42 1057.65 3472.48 1062.37 3487.45 1063.05 3510.09 1061.17 3521.35 1070.16 3535.58 1072.5 3553.78 1080.6 3571.99 1088.7 3598.56 1102.51 3622.22 1113.03 3635.99 1131.11 3656.69 1148.29 3663.92 1161.47 3684.96 1182.79 3683.7 1210.13 3682.44 1237.48 3679.71 1268.15 3676.29 1290.54 3670.71 1307.99 3644.24 1338.07 3624.84 1347.38 3598.15 1353.45 3565.32 1348.81 3546.26 1362.26 3526.8 1381.5 3516.84 1399 3479.69 1384.46 3465.12 1377.99 3451.64 1373.98 3418.53 1355.27Z" stroke="#FFFFFF" stroke-width="4.58333" stroke-linecap="butt" stroke-linejoin="miter" stroke-miterlimit="8" stroke-opacity="1" fill="#F6BE98" fill-rule="evenodd" fill-opacity="1"/></g></g></svg>