<svg width="188" height="188" xmlns="http://www.w3.org/2000/svg" xmlns:xlink="http://www.w3.org/1999/xlink" xml:space="preserve" overflow="hidden"><defs><clipPath id="clip0"><path d="M3660.86 2215.51 3749.55 2121.51 3841.72 2208.49 3753.03 2302.48Z" fill-rule="nonzero" clip-rule="nonzero"/></clipPath><clipPath id="clip1"><path d="M3660.86 2215.51 3749.55 2121.51 3841.72 2208.49 3753.03 2302.48Z" fill-rule="evenodd" clip-rule="evenodd"/></clipPath><clipPath id="clip2"><path d="M3660.86 2215.51 3749.55 2121.51 3841.72 2208.49 3753.03 2302.48Z" fill-rule="evenodd" clip-rule="evenodd"/></clipPath></defs><g transform="translate(-3657 -2117)"><g><g clip-path="url(#clip0)"><g clip-path="url(#clip1)"><g clip-path="url(#clip2)"><path d="M165.741 1154.29C164.901 1154.69 164.04 1155.13 163.179 1155.63 158.864 1158.12 157.394 1162.26 156.955 1163.93 156.098 1163.79 155.31 1163.88 154.615 1164.2 153.886 1164.55 153.303 1165.15 152.862 1165.96 151.175 1165.21 147.151 1163.89 142.647 1165.61 141.719 1165.97 140.829 1166.35 139.991 1166.75 135.464 1168.91 132.401 1171.48 132.401 1171.48 132.401 1171.48 107.764 1188.28 99.5112 1193.61 98.1834 1194.47 97.9031 1194.83 96.9689 1195.18 95.9969 1195.53 93.8992 1195.63 93.8992 1195.63 93.8992 1195.63 96.0427 1196.21 97.1219 1196.09 97.642 1196.04 97.7849 1196.09 98.3938 1195.82 98.3938 1195.82 99.9721 1201.08 101.202 1203.53 103.05 1207.21 107.999 1213.84 107.999 1213.84 107.999 1213.84 104.054 1206.88 102.607 1203.17 101.576 1200.53 100.177 1195 100.177 1195 100.177 1195 127.244 1176.25 137.357 1170.35 145.451 1165.62 150.349 1167.76 151.982 1168.81 151.82 1169.88 151.778 1171.11 151.845 1172.47 150.277 1172.81 145.532 1174.07 143.667 1176.75 141.419 1180 141.357 1180.69 141.357 1180.69 141.357 1180.69 141.54 1180.25 143.788 1177.01 145.609 1174.38 150.185 1173.13 151.86 1172.74 151.868 1172.88 151.878 1173.02 151.888 1173.16 150.904 1173.53 148.593 1174.43 147.649 1175.14 146.363 1176.12 144.547 1178.87 144.547 1178.87 144.547 1178.87 146.488 1176.32 147.769 1175.4 148.685 1174.74 150.859 1173.86 151.912 1173.45 151.925 1173.61 151.94 1173.76 151.957 1173.92 150.93 1174.33 147.794 1175.7 146.073 1177.63 144.001 1179.96 143.084 1185.3 143.084 1185.3 143.084 1185.3 144.122 1180.21 146.195 1177.89 147.868 1176.02 150.88 1174.66 151.988 1174.21 152 1174.33 152.01 1174.44 152.024 1174.56 151.094 1175.06 149.028 1176.24 148.267 1177.09 146.852 1178.66 145.229 1182.65 145.229 1182.65 145.229 1182.65 146.981 1178.85 148.388 1177.35 149.135 1176.55 151.097 1175.4 152.067 1174.86 152.105 1175.15 152.145 1175.44 152.192 1175.74 151.375 1176.04 149.586 1176.75 148.993 1177.39 147.235 1179.28 146.526 1182.7 146.005 1184.52 146.526 1182.7 147.373 1179.46 149.115 1177.64 149.694 1177.03 151.388 1176.34 152.239 1176.02 152.292 1176.34 152.35 1176.67 152.412 1177 151.715 1177.24 150.448 1177.71 150.048 1178.14 149.023 1179.24 148.502 1182.38 148.502 1182.38 148.502 1182.38 149.163 1179.43 150.169 1178.4 150.565 1177.99 151.757 1177.53 152.464 1177.28 152.474 1177.33 152.486 1177.37 152.495 1177.42 151.902 1177.61 151.069 1177.9 150.792 1178.17 150.045 1178.91 149.607 1181.08 149.607 1181.08 149.607 1181.08 150.185 1179.09 150.913 1178.43 151.189 1178.18 151.967 1177.9 152.552 1177.71 153.414 1181.86 155.017 1186.61 157.317 1191.44 162.415 1202.17 169.312 1209.96 174.136 1210.96 174.47 1211.53 178.587 1218.57 179.299 1221.86 180.041 1225.3 181.559 1229.55 181.946 1233.53 182.136 1235.45 181.785 1239.34 181.785 1239.34 181.785 1239.34 182.598 1236.58 182.741 1235.15 182.882 1233.76 182.776 1231.86 182.642 1230.95 182.246 1228.23 184.081 1237.52 185.393 1240.6 186.447 1243.08 188.529 1246.4 189.458 1247.56 189.458 1247.56 187.358 1242.83 186.549 1240.38 184.437 1233.98 181.514 1220.81 181.514 1220.81 181.514 1220.81 189.889 1231.39 193.512 1237.07 194.902 1239.24 197.247 1243.86 197.247 1243.86 196.936 1242.41 195.668 1238.69 194.417 1236.31 192.858 1233.35 186.817 1226.07 188.667 1228.08 189.291 1228.76 190.696 1230.04 191.868 1230.82 193.062 1231.6 195.716 1232.72 195.716 1232.72 195.716 1232.72 192.482 1230.54 191.106 1229.18 188.273 1226.36 185.929 1222.5 183.733 1219.76 181.623 1217.11 178.769 1209.46 178.548 1208.86 180.807 1204.48 179.125 1194.22 174.031 1183.5 171.731 1178.66 169.064 1174.43 166.386 1171.13 166.919 1170.79 167.67 1170.34 168.044 1170.29 169.017 1170.14 170.918 1170.95 170.918 1170.95 170.918 1170.95 168.961 1169.91 167.923 1170.03 167.533 1170.08 166.737 1170.56 166.204 1170.91L166.113 1170.8C166.76 1170.41 167.909 1169.74 168.481 1169.69 169.918 1169.56 172.632 1170.92 172.632 1170.92 172.632 1170.92 169.864 1169.34 168.361 1169.43 167.769 1169.48 166.564 1170.18 165.93 1170.58 165.713 1170.32 165.495 1170.07 165.278 1169.82 166.073 1169.37 167.726 1168.47 168.564 1168.39 171.072 1168.19 174.119 1169.57 175.862 1170.32 174.119 1169.57 171.015 1167.97 168.443 1168.15 167.567 1168.2 165.836 1169.16 165.087 1169.61 164.887 1169.38 164.684 1169.16 164.486 1168.96 165.527 1168.55 167.694 1167.72 168.792 1167.65 170.847 1167.51 174.907 1168.56 174.907 1168.56 174.907 1168.56 170.782 1167.29 168.671 1167.39 167.525 1167.45 165.255 1168.33 164.275 1168.73L164.033 1168.48C165.084 1167.91 168.076 1166.4 170.599 1166.29 173.708 1166.15 178.305 1168.56 178.305 1168.56 178.305 1168.56 173.587 1165.89 170.478 1166.03 167.886 1166.15 164.793 1167.75 163.826 1168.28L163.496 1167.95C164.481 1167.39 166.575 1166.23 167.671 1165.94 169.198 1165.53 172.403 1165.63 172.403 1165.63 172.403 1165.63 169.123 1165.31 167.55 1165.68 166.385 1165.96 164.183 1167.21 163.281 1167.75 163.178 1167.65 163.078 1167.55 162.976 1167.46 164.33 1166.4 168.245 1163.62 171.441 1163.87 175.373 1164.17 175.83 1164.31 175.83 1164.31 175.83 1164.31 175.253 1163.91 171.32 1163.61 168.046 1163.36 164.026 1166.28 162.768 1167.27 161.729 1166.34 160.713 1165.57 159.743 1165.01 159.916 1163.2 161.206 1157.88 170.192 1154.52 181.16 1150.41 212.775 1141.26 212.775 1141.26 212.775 1141.26 216.183 1145.84 217.584 1148.31 219.549 1151.78 222.46 1159.22 222.46 1159.22 222.46 1159.22 220.437 1151.19 218.749 1147.43 217.627 1144.93 214.542 1140.39 214.542 1140.39 215.138 1140.09 215.189 1139.94 215.561 1139.57 216.33 1138.82 217.239 1136.79 217.239 1136.79 217.239 1136.79 215.831 1138.35 214.942 1138.88 214.087 1139.39 213.631 1139.38 212.128 1139.87 202.783 1142.9 174.202 1151.4 174.202 1151.4 174.202 1151.4 170.276 1152.14 165.74 1154.29Z" fill="#8497B0" fill-rule="nonzero" fill-opacity="1" transform="matrix(0.686303 -0.727316 0.832097 0.785176 2650.73 1390.98)"/></g></g></g></g></g></svg>