<svg width="257" height="215" xmlns="http://www.w3.org/2000/svg" xmlns:xlink="http://www.w3.org/1999/xlink" xml:space="preserve" overflow="hidden"><defs><clipPath id="clip0"><path d="M1799.92 1779.27 1743.76 1889.68 1546.83 1789.5 1602.99 1679.09Z" fill-rule="nonzero" clip-rule="nonzero"/></clipPath><clipPath id="clip1"><path d="M1799.92 1779.27 1743.76 1889.68 1546.83 1789.5 1602.99 1679.09Z" fill-rule="evenodd" clip-rule="evenodd"/></clipPath><clipPath id="clip2"><path d="M1799.92 1779.27 1743.76 1889.68 1546.83 1789.5 1602.99 1679.09Z" fill-rule="evenodd" clip-rule="evenodd"/></clipPath></defs><g transform="translate(-1544 -1677)"><g><g clip-path="url(#clip0)"><g clip-path="url(#clip1)"><g clip-path="url(#clip2)"><path d="M34.3829 219.961C30.8118 219.029 29.5179 218.598 27.7755 217.718 23.6868 215.648 20.9265 212.698 17.0793 206.246 16.4065 205.107 15.5094 203.641 15.1126 202.968 11.438 196.999 10.6961 194.963 9.316 187.183 9.14348 186.182 8.76394 184.733 8.47066 183.939 8.07387 182.852 7.93585 182.214 7.93585 181.351 7.93585 180.713 7.74608 178.833 7.50455 177.176 6.84898 172.587 6.987 169.982 8.03936 166.618 8.74669 164.376 9.22974 163.617 10.6099 162.599 13.4219 160.511 14.8366 158.355 14.9746 155.922 15.0609 154.335 14.8883 153.956 13.7152 153.265 13.2839 153.024 12.8526 152.662 12.7491 152.472 12.5421 152.075 12.5076 152.11 13.974 151.281 16.9413 149.608 17.7694 148.78 17.9074 147.331 17.9764 146.572 18.0454 146.434 18.701 146.02 20.1329 145.071 21.7546 143.673 22.6172 142.638 23.359 141.741 23.704 141.482 24.8254 140.999 27.603 139.792 29.3454 138.256 33.2098 133.633 36.6429 129.527 38.1093 128.147 40.4728 126.853 41.3182 126.387 42.0773 125.749 43.0951 124.679 43.8715 123.851 44.5098 123.075 44.5098 122.937 44.5098 122.816 44.4063 122.488 44.2682 122.212 44.1302 121.936 43.9405 120.953 43.8369 120.038 43.6989 118.675 43.5092 117.899 43.2159 117.537 43.1986 117.502 42.7156 117.675 42.129 117.916 41.4734 118.175 40.7316 118.348 40.1796 118.348 38.9719 118.348 37.057 119.348 32.6923 122.298 27.2407 125.973 25.895 126.853 24.2388 127.784 22.0479 129.027 21.3923 129.268 20.8057 129.044 19.6326 128.595 19.1323 128.871 15.3541 131.959 14.3535 132.787 13.1287 133.754 12.6456 134.116 12.1453 134.478 11.7313 134.858 11.7313 134.961 11.7313 135.082 11.5242 135.548 11.2827 136.014 11.0067 136.531 10.8687 136.997 10.9377 137.238 11.0412 137.618 10.5064 138.619 9.52302 139.912 9.33325 140.154 9.12623 140.534 9.05722 140.775 8.98821 141.017 8.64318 141.758 8.28089 142.414 7.9186 143.087 7.41829 144.294 7.17677 145.123 6.91799 145.933 6.60746 146.692 6.4867 146.796 6.34868 146.917 6.19341 147.279 6.12441 147.607 6.03815 148.09 6.0899 148.28 6.33143 148.452 6.67647 148.711 6.71097 149.418 6.46944 151.454 6.36593 152.368 6.22792 152.834 5.95189 153.145 5.72761 153.386 5.43433 153.731 5.27907 153.904 5.1238 154.094 4.81327 154.232 4.57174 154.232 4.24395 154.232 4.14044 154.318 4.14044 154.594 4.14044 155.715 3.15709 155.957 2.15648 155.077 1.51816 154.508 1.22488 153.731 0.862592 151.644 0.74183 151.023 0.500304 150.16 0.310533 149.712L-0.0345037 148.883 0.345037 147.848C0.707326 146.865 0.724578 146.606 0.431296 145.916 0.345037 145.692 0.379541 145.606 0.569311 145.606 0.862592 145.606 1.08687 145.054 1.38015 143.622 1.50091 143.052 2.03572 141.689 2.58778 140.603 3.13984 139.516 3.7609 138.118 3.96793 137.497 4.2267 136.807 4.55449 136.221 4.86502 135.979 5.29632 135.617 6.38318 134.202 6.38318 133.995 6.38318 133.961 5.95189 134.012 5.41708 134.15 4.88227 134.271 4.17495 134.392 3.82991 134.426L3.19159 134.478 2.88106 133.357C2.65678 132.58 2.55327 131.649 2.55327 130.338 2.55327 127.008 3.38136 124.783 6.72822 119.193 7.86684 117.278 8.8502 115.518 8.90195 115.26 9.22974 113.897 10.0406 112.568 11.3345 111.274 12.4558 110.17 12.9906 109.791 14.4916 109.049 15.4922 108.566 16.3893 108.169 16.4928 108.169 16.6135 108.169 16.7515 107.997 16.8033 107.79 16.8551 107.565 17.2864 107.151 17.7694 106.841 18.494 106.392 18.977 106.237 20.5124 106.03 21.5303 105.892 24.4976 105.305 27.1027 104.736 33.02 103.442 34.797 103.166 37.9713 103.011L40.5073 102.907 39.7483 99.5604C39.0582 96.4551 37.9886 92.6769 37.6435 92.1594 37.5228 91.9869 36.7809 92.4527 34.59 94.0916 29.8802 97.6455 28.6898 98.232 26.1366 98.2493 24.7909 98.2665 24.1871 98.3528 23.3935 98.6633 22.5654 98.9739 21.8236 99.0774 19.3393 99.1981 17.6659 99.2844 16.1305 99.4052 15.9235 99.4742 15.7164 99.5259 14.6986 100.578 13.6462 101.786L11.7658 103.994 11.99 104.667C12.128 105.029 12.2316 105.668 12.2316 106.099 12.2488 106.806 12.1798 106.927 11.5242 107.462 10.4891 108.342 9.69554 108.687 8.78119 108.687L7.97035 108.687 7.09051 106.858 6.19341 105.029 6.5557 104.322C7.17677 103.132 8.28089 101.82 9.88531 100.337 11.8693 98.5426 13.3012 96.8346 13.9222 95.5752 14.6641 94.0053 15.5612 93.712 20.0639 93.505 23.704 93.3325 24.3596 93.1945 25.2567 92.4699 25.964 91.9179 26.7749 91.6418 29.4144 91.0725 31.3294 90.6757 31.8124 90.4687 32.4162 89.8304 32.6405 89.5889 33.5894 89.0713 34.521 88.6745 35.4525 88.2777 36.3151 87.8464 36.4187 87.6911 36.8845 87.1391 36.2634 83.3092 35.4353 81.6185 34.9868 80.7041 34.9695 80.7041 34.3139 80.8077 33.4513 80.9457 32.0022 80.6351 31.1051 80.1176 30.691 79.8761 29.8457 79.2377 29.2246 78.6684 28.5863 78.1164 27.7582 77.4781 27.3614 77.271 26.8784 77.0123 26.2401 76.3394 25.274 75.08 22.0824 70.8706 21.1335 69.6975 19.6154 68.1793 18.1662 66.7129 15.9925 65.0395 14.8021 64.5219 14.3708 64.3149 14.3018 64.3494 13.7497 64.936 12.9906 65.7295 12.2661 65.7813 11.8003 65.074 11.2137 64.1941 11.6623 63.1418 13.1114 62.0377 13.5945 61.6754 14.1293 61.1923 14.2845 60.9853 15.0264 60.0537 16.5963 60.3125 18.0109 61.6064 18.5285 62.0722 19.3911 62.7105 19.9431 63.021 20.7712 63.4868 21.03 63.7456 21.3578 64.4357 22.1169 66.0401 23.8421 67.472 25.6708 68.0068 27.3442 68.5071 28.293 69.525 29.3281 71.9402 30.2425 74.0449 31.0016 75.2698 31.3294 75.1491 31.4501 75.0973 31.9677 75.1318 32.468 75.2008 33.7274 75.4078 33.8136 75.3561 33.5548 74.459 33.4341 74.0622 33.1926 72.9581 33.02 72.0092 32.5887 69.6285 32.5887 62.0549 33.02 57.88 33.1926 56.2755 33.3823 53.5842 33.4513 51.9281 33.5894 48.4949 33.7619 47.9429 34.797 47.5116 35.1248 47.3563 35.4353 47.2701 35.4698 47.3218 35.5043 47.3563 35.4525 47.8394 35.3663 48.4087 35.28 48.9607 35.0385 50.7549 34.866 52.3594 33.7446 61.9169 34.0206 69.3179 35.6941 74.804L36.0736 76.0462 37.8161 76.857C42.4741 79.0135 46.2867 80.2211 49.8061 80.6524L50.7204 80.7732 50.2891 79.8243C49.3403 77.7713 49.3058 75.3906 50.1856 72.8546L50.6859 71.4054 50.2029 70.4221C49.0988 68.2138 49.2368 64.3839 50.4789 62.4862 50.7377 62.0894 50.7032 61.9859 49.8751 60.3125 48.9435 58.4665 48.3914 56.6378 48.5467 55.9995 48.5985 55.7925 49.2713 54.8781 50.0476 53.981 50.8067 53.0839 51.5658 52.1178 51.7038 51.8246 51.9626 51.2897 51.9626 51.238 51.0827 49.4265 50.2201 47.6496 49.8578 46.4247 49.8578 45.3379 49.8578 44.9411 50.1511 44.5443 51.3243 43.3884 52.1351 42.5948 52.7907 41.8702 52.7907 41.784 52.7907 41.6805 52.4456 41.0249 52.0316 40.3003 50.6859 38.0576 50.0304 36.1426 50.3927 35.5906 50.4962 35.418 51.1 34.866 51.7038 34.3484 52.3249 33.8309 52.9632 33.1926 53.1357 32.9165 53.4462 32.4162 53.429 32.399 52.8424 31.2604 52.2904 30.2252 52.2386 30.001 52.3249 29.1039L52.4111 28.1205 51.6348 27.5857 50.8585 27.0509 49.7198 27.4304C48.0809 27.9652 46.0797 28.0343 41.4217 27.7065 39.2135 27.5512 36.9362 27.4649 36.3842 27.534 35.418 27.6375 35.3663 27.6202 35.211 27.2062 35.073 26.8784 34.8832 26.7404 34.2967 26.6541 32.3472 26.3263 31.0016 25.4637 29.9837 23.8938 29.2936 22.8414 28.362 20.2019 28.5173 19.7879 28.5691 19.6499 28.8451 19.4946 29.1384 19.4428 29.4662 19.3738 29.6732 19.2186 29.6732 19.046 29.6732 18.8563 29.5869 18.8045 29.3799 18.8908 28.5346 19.2358 28.4656 19.2186 28.4828 18.6147 28.4828 18.287 28.5863 17.1828 28.6898 16.1305 28.8968 14.3018 28.9141 14.2328 29.3281 14.181 30.139 14.0775 30.277 13.9913 29.9492 13.7497 29.6732 13.5427 29.6559 13.4392 29.863 12.5421 30.0355 11.8003 30.1735 11.5587 30.3978 11.5587 30.6738 11.5587 30.7773 11.3517 30.9153 10.4546 30.9671 10.0923 31.2604 9.90256 31.9332 9.76455 32.2092 9.69554 32.4507 9.47126 32.6232 9.10898 32.813 8.66043 33.1581 8.3844 34.1587 7.8841 34.866 7.52181 35.6078 7.12501 35.8148 6.987 36.1081 6.79723 36.3151 6.79723 37.0915 7.00425 38.1956 7.29753 38.7132 7.31478 38.5579 7.07326 38.5061 6.96975 38.5061 6.72822 38.5579 6.53845 38.6441 6.26242 38.7649 6.21067 39.1099 6.29693 39.9035 6.4867 40.5073 6.24517 40.6281 5.65861 40.6971 5.34807 41.3009 4.55449 42.198 3.62289 42.9916 2.77755 43.6472 2.01847 43.6472 1.93221 43.6472 1.84595 44.2165 1.74244 44.9238 1.69068 45.8727 1.62167 46.3902 1.48366 47.0113 1.13862 47.4771 0.897096 47.8566 0.707326 47.8739 0.724578 47.9084 0.759081 48.0464 1.08687 48.2017 1.44916 48.4087 1.93221 48.5467 2.07022 48.6675 1.94946 48.8055 1.81144 48.8055 1.65618 48.6675 1.41465 48.564 1.22488 48.4777 0.9316 48.4777 0.793585 48.4777 0.379541 48.9607 0.4658 49.185 0.914348 49.2885 1.12137 49.4093 1.32839 49.4438 1.3629 49.4783 1.3974 49.7026 1.19038 49.9441 0.897096 50.5997 0.120763 51.7383-0.0690074 55.0334 0.0517555 56.4998 0.103511 58.3803 0.241526 59.1911 0.362289 60.6575 0.552059 60.692 0.569311 60.7955 1.06961 60.8645 1.38015 61.2786 1.94946 61.8651 2.51877 62.814 3.41587 62.8485 3.45037 63.09 3.10533 63.6938 2.25999 66.3334 1.32839 66.6611 1.8632 66.7302 1.98396 67.0407 1.88045 67.5065 1.55267 68.5934 0.776333 70.1115 0.4658 72.268 0.552059 74.5107 0.638318 75.0283 0.862592 76.7362 2.58778L77.9611 3.82991 78.5822 3.36411C79.8243 2.39801 81.5322 2.15648 82.6881 2.74304L83.3264 3.07083 83.5507 2.60503C83.6887 2.34625 83.8957 2.19098 84.0338 2.22549 84.3615 2.329 84.7756 2.31175 86.0522 2.15648L87.1218 2.01847 87.1218 2.46701C87.1218 3.01907 87.3979 3.2261 87.5186 2.7603 87.6221 2.329 88.1397 2.31175 89.2611 2.69129 90.1237 2.98457 90.4169 3.32961 90.0719 3.67464 89.8131 3.93342 89.8304 4.31296 90.1237 4.31296 90.2617 4.31296 90.4514 4.07144 90.555 3.79541 90.7792 3.13984 91.2278 3.12258 91.2968 3.74365 91.3313 4.14044 91.4175 4.2267 91.7971 4.17495 92.3664 4.12319 93.0737 4.86502 93.505 5.96914 93.7466 6.60746 93.8501 6.74547 93.9363 6.5212 94.0053 6.34868 94.1433 6.21067 94.2296 6.21067 94.3331 6.21067 94.3676 6.31418 94.3159 6.45219 94.2641 6.57295 94.4194 6.83173 94.6781 7.0215 94.9542 7.22852 95.282 7.74608 95.4717 8.29814 96.2998 10.6271 96.7829 11.2137 97.956 11.2137 98.4045 11.2137 99.1981 11.3345 99.7157 11.4897 100.233 11.6277 100.992 11.8348 101.406 11.9383L102.165 12.1108 101.803 12.4903C101.286 13.0424 101.337 13.4392 101.872 12.9389L102.286 12.5421 103.58 13.1632C106.358 14.4743 108.117 16.0615 109.135 18.1662 109.722 19.4083 110.119 21.2543 110.032 22.3584 109.981 22.945 109.912 23.0312 109.377 23.1865 108.876 23.3245 108.842 23.359 109.152 23.4108 109.618 23.497 109.825 23.7558 109.946 24.4459 110.05 24.9462 109.929 25.1532 108.79 26.5161 105.978 29.9147 103.873 31.3639 100.854 31.9332 100.371 32.0194 97.1797 32.1057 93.7638 32.1229L87.5186 32.1402 86.449 31.4156C85.8624 31.0188 85.1206 30.5703 84.7928 30.4323 84.2235 30.208 84.2063 30.208 83.3609 30.9843 82.6019 31.6571 81.0837 33.8999 81.0837 34.3484 81.0837 34.4347 81.2735 34.797 81.4977 35.1593 82.8779 37.2812 82.7054 40.3348 81.0837 42.5431 80.7559 42.9916 80.4109 43.4747 80.3074 43.5954 80.1866 43.7679 80.3419 44.1992 80.8594 45.1826 81.6875 46.718 82.0153 47.9084 81.86 48.8745 81.791 49.2368 81.3425 50.1339 80.8594 50.8585 80.1176 51.9626 79.9623 52.3076 79.9106 53.1529 79.8416 54.0155 79.9451 54.3778 80.6696 56.172 81.1527 57.3624 81.515 58.5873 81.5667 59.0876 81.6185 59.8812 81.5495 60.0537 80.7559 61.3303 79.7208 62.952 79.6863 63.297 80.3246 65.4018 80.9284 67.3857 80.8422 69.5767 80.0831 71.854L79.5655 73.4239 79.9106 74.4417C80.3246 75.6839 80.4971 78.3234 80.2729 80.2901L80.1176 81.653 81.8428 81.5322C84.2753 81.3597 86.9321 81.0147 91.4175 80.2729 95.972 79.5138 95.6615 79.738 96.2653 76.8052 96.8001 74.1312 97.0589 73.2859 97.5765 72.5268L98.0423 71.854 97.9215 68.1448C97.8352 65.1947 97.8525 64.2459 98.0595 63.5041 98.2838 62.6415 98.2665 62.5207 97.956 61.8134L97.611 61.037 97.9905 60.6403C98.1975 60.4332 98.4736 59.8294 98.5943 59.3291 98.8876 58.225 99.3362 57.7937 100.25 57.7937 103.166 57.7937 106.306 61.4338 105.34 63.7283 105.029 64.4874 104.46 64.5564 103.856 63.9181 103.632 63.6766 103.27 63.4868 103.063 63.4868 102.614 63.4868 102.562 63.7456 102.321 67.6273 102.234 68.9901 102.045 70.3013 101.872 70.8016L101.579 71.6297 102.131 72.406C102.821 73.3721 102.804 73.6826 101.7 77.0295 100.682 80.0831 99.8882 81.6012 98.6806 82.8434 97.8697 83.6542 97.5075 83.8785 96.5241 84.1718 95.42 84.5168 94.9887 84.5513 90.6585 84.5168 85.9142 84.4823 85.2586 84.5513 83.5852 85.2414 83.1022 85.4312 83.1539 85.4657 84.8791 85.7589 85.8797 85.9315 88.0189 86.4145 89.6234 86.8286 91.245 87.2598 94.2296 88.0189 96.2653 88.5537 100.492 89.6406 103.356 90.1582 106.013 90.3307L107.841 90.4514 108.549 91.2795C109.152 92.0041 109.377 92.1421 110.222 92.3146 110.757 92.4182 111.809 92.6942 112.568 92.9357 116.398 94.1261 118.986 96.7311 119.797 100.216 119.935 100.803 120.314 101.682 120.625 102.183 121.436 103.408 121.66 104.046 121.608 104.926 121.574 105.547 121.66 105.806 122.195 106.53 122.902 107.496 123.454 108.825 123.73 110.222 123.903 110.998 123.868 111.292 123.609 112.085 123.299 113 123.299 113.034 123.609 113.638L123.937 114.242 123.471 114.621C122.902 115.07 122.902 115.122 123.385 115.76L123.765 116.277 123.402 116.657C123.213 116.881 122.988 117.226 122.937 117.416 122.747 118.02 122.229 118.382 121.591 118.313 121.091 118.261 120.987 118.175 120.797 117.571 120.677 117.192 120.47 116.795 120.332 116.692 120.107 116.519 120.107 116.415 120.332 115.881 120.694 115.018 120.659 114.363 120.159 112.568 119.918 111.706 119.728 110.688 119.728 110.291 119.728 109.67 119.659 109.549 119.141 109.239 118.675 108.963 118.572 108.807 118.641 108.445 118.693 108.204 118.555 107.445 118.348 106.772 118.141 106.082 117.985 105.098 117.985 104.581 117.985 103.856 117.882 103.511 117.571 103.097 117.364 102.804 116.778 101.786 116.312 100.82L115.432 99.0774 113.931 98.9739C112.482 98.8876 112.344 98.8358 109.998 97.6455 107.617 96.4378 107.514 96.4033 106.013 96.3171 104.581 96.2308 104.236 96.1273 101.665 95.0404 97.1452 93.1255 95.5925 92.5389 93.5913 91.9696 91.107 91.2795 89.7269 91.0725 87.2081 91.0035 85.6037 90.969 84.9309 90.8655 84.2235 90.5895 83.1712 90.1754 81.9118 90.1237 81.5495 90.4687 81.3425 90.6757 81.377 90.9172 81.7738 92.1594 82.2396 93.574 82.6536 95.3682 83.6542 100.578 83.9475 102.045 84.258 103.546 84.3615 103.908L84.5513 104.546 89.2611 104.546C95.8168 104.546 99.871 104.908 103.804 105.84 105.409 106.22 105.616 106.323 106.22 106.979 106.634 107.41 107.565 108.031 108.6 108.583 110.222 109.411 110.343 109.515 110.878 110.498 111.74 112.051 112.43 113.983 112.758 115.691 113.034 117.054 113.138 117.313 113.793 118.054 114.207 118.52 115.053 119.883 115.656 121.108 116.277 122.316 116.968 123.54 117.192 123.817 117.468 124.144 117.606 124.541 117.623 125.093 117.64 125.524 117.813 126.249 118.003 126.698 118.399 127.629 118.451 128.354 118.141 128.664 117.968 128.837 118.02 128.975 118.399 129.32 118.658 129.544 118.865 129.786 118.865 129.837 118.865 129.906 118.675 130.165 118.451 130.424 118.227 130.7 117.934 131.425 117.778 132.097 117.33 134.099 117.244 134.219 116.45 134.219 115.984 134.219 115.639 134.34 115.415 134.564 114.966 135.013 114.966 135.03 115.587 135.945 116.277 136.962 116.795 138.67 116.795 139.878 116.795 140.534 116.916 141.103 117.192 141.62 117.554 142.362 117.571 142.638 117.571 146.123L117.589 149.832 116.916 151.816C116.571 152.903 116.07 154.283 115.812 154.887 115.415 155.819 115.311 155.957 114.897 155.957 114.656 155.957 114.035 156.077 113.534 156.233 113.034 156.371 112.499 156.474 112.344 156.44 112.172 156.405 111.93 155.974 111.723 155.284 111.481 154.542 111.205 154.059 110.878 153.817L110.412 153.472 110.032 153.852C109.497 154.37 109.549 155.232 110.222 156.768 110.791 158.096 110.86 158.544 110.567 159.079 110.429 159.355 110.515 159.545 111.085 160.201 112.154 161.426 112.517 162.564 112.62 165.048 112.706 167.653 112.361 170.224 111.343 174.502 111.205 175.072 111.016 176.4 110.929 177.453 110.791 179.247 110.705 179.54 109.601 182.283 108.255 185.63 105.771 190.771 104.236 193.341 101.199 198.448 97.2832 203.072 92.3837 207.35 87.6221 211.49 85.8279 212.853 84.1545 213.561 81.377 214.734 76.6845 216.959 75.5804 217.615 73.5964 218.771 71.3191 219.34 68.5761 219.34 66.4886 219.34 65.2465 219.116 63.8663 218.443 62.6242 217.839 61.7444 217.046 61.1751 216.01 60.623 214.975 60.7093 214.717 61.7789 214.44 62.3999 214.268 62.4517 214.216 62.4517 213.612 62.4689 212.37 62.952 210.266 63.4868 209.127 63.7801 208.506 64.5219 207.126 65.1085 206.073 66.1436 204.279 66.6094 203.227 66.8337 202.157 66.9199 201.778 67.0407 201.674 67.4202 201.674 67.8343 201.674 68.2138 201.174 71.2846 196.533 75.8736 189.598 81.2562 180.937 81.2562 180.506 81.2562 180.42 81.0664 180.161 80.8249 179.937 80.4281 179.557 80.2211 178.729 80.5316 178.729 80.6006 178.729 81.377 178.263 82.2568 177.694L83.8612 176.659 83.7405 175.848 83.637 175.02 85.6382 173.157C86.8976 171.966 87.8464 170.931 88.2087 170.31 88.6572 169.551 89.0885 169.103 90.1582 168.378 91.3313 167.55 91.5383 167.326 91.6073 166.808 91.7453 165.997 91.8661 165.859 92.4699 165.721 93.5223 165.514 95.5407 164.6 97.818 163.289 99.0946 162.564 100.181 161.926 100.233 161.874 100.544 161.581 97.6282 160.132 94.1088 158.838 92.6942 158.303 91.2795 157.785 90.9863 157.665 90.4859 157.475 90.4342 157.354 90.3479 156.543 90.2272 155.456 89.7614 154.318 88.916 153.179 88.3122 152.368 88.295 152.351 87.8464 152.575 87.5876 152.713 87.1046 153.093 86.7941 153.438 85.9487 154.301 85.5174 154.266 84.8618 153.248 84.2925 152.334 83.9302 151.195 83.7405 149.763 83.637 148.883 83.5335 148.711 82.3776 147.503 81.7048 146.796 81.0492 146.037 80.9457 145.83 80.8249 145.623 80.4971 145.416 80.2211 145.347 79.9278 145.278 79.324 144.916 78.8927 144.536L78.0991 143.846 77.8748 144.381C77.7541 144.674 77.34 145.347 76.9778 145.864 76.3222 146.779 76.3049 146.848 76.4602 147.624 76.8397 149.66 76.581 152.334 75.9771 152.334 75.2698 152.334 74.9765 150.626 75.5631 149.867L75.9081 149.436 75.3043 148.28C74.7695 147.279 74.4935 146.382 74.804 146.692 74.9765 146.865 75.5631 146.485 75.5631 146.209 75.5631 146.071 75.4941 145.951 75.4078 145.951 74.7695 145.951 74.183 146.761 74.183 147.659 74.183 148.349 74.0277 148.711 73.7517 148.607 73.4411 148.487 72.9926 149.177 73.0961 149.591 73.1478 149.798 73.5274 150.108 73.9414 150.315 74.7868 150.729 74.9593 151.04 74.7005 151.713 74.6143 151.972 74.528 152.748 74.528 153.421 74.528 154.87 74.2692 155.508 73.6481 155.577 73.3204 155.612 73.1478 155.508 72.9753 155.18 72.7338 154.749 72.1645 154.301 72.0092 154.439 71.9747 154.49 71.8367 155.094 71.6987 155.801 71.5607 156.509 71.3019 157.561 71.0949 158.148L70.7326 159.2 71.2501 160.994C71.9575 163.461 73.1133 166.463 74.2002 168.568 74.9075 169.913 75.1491 170.569 75.1663 171.225 75.2353 172.363 75.5631 173.295 76.857 176.021 78.2199 178.902 78.3406 179.264 78.3579 180.868 78.3752 182.3 78.0991 182.87 77.409 182.87 77.0813 182.87 77.064 182.783 77.1848 181.231L77.2883 179.609 76.719 178.695C75.8909 177.366 75.3561 176.055 74.4417 173.122 72.8373 167.93 71.7849 165.445 70.7671 164.531 70.4221 164.22 70.4221 164.22 70.7498 165.963 70.9224 166.929 71.4227 168.999 71.854 170.586 73.2686 175.572 73.5101 176.849 73.6136 179.592L73.6999 182.093 71.8712 183.767C70.8706 184.698 69.732 185.613 69.3524 185.802 68.7314 186.113 68.6451 186.251 68.3173 187.39 66.9544 192.099 64.0561 199.173 60.761 205.763 60.1917 206.884 59.5189 208.351 59.2601 209.006 58.1905 211.749 56.6551 213.923 55.8097 213.923 55.4474 213.923 54.3433 213.595 54.3433 213.492 54.3433 213.474 55.4992 211.163 56.8966 208.385 60.554 201.139 63.1418 195.222 64.9532 189.891L65.7123 187.7 65.2982 187.804C64.5392 187.993 64.9015 187.01 65.9711 185.992 67.2822 184.716 68.0068 180.92 68.5761 172.087L68.6969 170.345 69.2834 170.414C69.8872 170.483 70.4566 170.189 70.284 169.896 70.215 169.793 69.8527 169.775 69.4042 169.844 68.7141 169.948 68.6451 169.913 68.6969 169.637 68.7314 169.43 68.9039 169.327 69.2489 169.327 70.0598 169.327 69.9908 168.93 69.1972 168.861L68.4898 168.809 68.4208 166.739C68.3691 165.169 68.2311 164.255 67.886 162.944 67.61 161.995 67.1614 160.252 66.8509 159.079 66.5059 157.751 66.2471 157.026 66.1608 157.164 66.0573 157.337 65.9021 157.233 65.557 156.819 65.1085 156.267 65.074 156.267 64.9015 156.578 64.7979 156.768 64.5737 157.527 64.4012 158.286 64.1251 159.511 64.0906 160.528 64.0906 167.774 64.0734 176.21 64.0044 177.228 63.3143 179.212 62.8312 180.592 61.9686 181.938 61.0715 182.732 59.9847 183.698 59.6914 183.836 59.6914 183.387 59.6914 183.197 60.2262 182.473 60.899 181.748 62.2447 180.282 62.5034 179.678 62.814 177.107 63.0038 175.572 62.9175 171.225 62.6415 169.068L62.5207 168.119 62.2102 169.499C62.0377 170.258 61.7099 171.777 61.4683 172.864 60.7438 176.193 59.8294 177.677 58.0007 178.574 57.3279 178.902 56.9138 178.971 55.4819 178.953 54.119 178.953 53.7568 178.902 53.636 178.677 53.5497 178.539 53.2047 178.315 52.8769 178.212 52.1868 177.987 51.7038 177.349 52.2213 177.349 52.3939 177.349 53.1184 177.504 53.8258 177.694 56.4826 178.384 57.7247 177.953 58.7425 175.969 59.6914 174.106 60.8473 168.982 60.6403 167.567 60.554 166.963 60.6057 166.705 60.968 166.084 61.3476 165.462 61.4166 165.1 61.4166 164.048 61.4166 162.478 61.7271 161.046 62.5552 158.51 63.1073 156.871 63.2108 156.319 63.2108 155.008 63.228 153.61 63.1763 153.369 62.7277 152.558 62.3137 151.816 62.2619 151.557 62.3654 151.005 62.4517 150.643 62.5207 150.16 62.5552 149.919 62.5725 149.677 62.607 149.453 62.607 149.418 62.6242 149.384 62.745 149.453 62.883 149.574 63.0383 149.694 63.1418 150.074 63.1418 150.522 63.1418 151.281 63.4868 151.782 63.8491 151.557 63.9699 151.471 64.0044 151.109 63.9181 150.453 63.7973 149.453 63.4868 148.021 63.3833 148.021 63.2798 148.021 62.0031 148.78 61.7271 149.021 61.5546 149.159 61.3821 149.556 61.3131 149.901 61.106 151.195 60.83 151.713 59.6741 152.989 58.6908 154.059 58.4838 154.387 58.4838 154.87 58.4838 155.75 58.1042 156.457 56.9829 157.682L55.9477 158.803 53.7223 158.803 51.4968 158.803 51.4968 157.854C51.4968 157.061 51.4105 156.785 51.031 156.319 50.7549 156.008 50.5479 155.681 50.5479 155.612 50.5479 155.525 50.3409 155.336 50.0821 155.215 49.7026 155.008 49.5473 154.697 49.1505 153.265 48.8917 152.317 48.3742 150.436 47.9946 149.056 47.1321 145.933 46.8905 144.346 47.0285 142.776 47.1148 141.707 47.0975 141.5 46.8043 141.137 46.3212 140.551 46.0279 140.723 45.1136 142.155 44.6823 142.811 44.2682 143.363 44.182 143.363 43.7507 143.363 41.8185 144.898 41.1284 145.795 40.6971 146.365 39.5757 148.28 38.6614 150.057 36.5567 154.111 36.6084 154.025 35.8493 154.421 34.8487 154.939 34.0551 155.715 32.6577 157.561 31.9504 158.493 31.2776 159.286 31.1741 159.321 31.0533 159.338 30.5185 159.459 29.9492 159.58 28.0343 159.976 27.1544 161.339 26.4816 164.91 26.0675 167.222 25.9985 167.084 27.741 167.619 28.5691 167.878 30.001 168.206 30.9153 168.361 32.537 168.62 32.6232 168.654 33.02 169.258 33.4513 169.896 34.2622 170.466 36.1771 171.501 37.2812 172.104 37.4883 172.449 37.0052 172.864 36.5912 173.209 36.7119 173.605 37.3503 174.054 37.9886 174.485 39.0582 174.917 39.5585 174.934 39.8 174.934 39.8518 175.106 39.8518 175.917L39.8518 176.883 41.6287 178.712C43.5437 180.696 44.9066 182.611 46.0797 184.992 46.718 186.251 46.8043 186.544 46.6145 186.803 45.9762 187.7 45.9762 187.786 46.787 188.856 51.1345 194.497 53.3255 200.225 53.0839 205.297 52.8769 209.713 51.6865 212.474 49.5128 213.578 49.1333 213.768 48.702 213.923 48.5295 213.923 48.3224 213.94 48.3742 214.026 48.7365 214.199 49.323 214.509 49.6853 214.906 49.6853 215.251 49.6853 215.717 48.1154 217.166 47.0458 217.684 46.4592 217.977 44.4753 218.65 42.6638 219.167 40.8351 219.685 39.0064 220.289 38.6096 220.479 38.2128 220.668 37.8506 220.824 37.7988 220.824 37.747 220.824 36.2116 220.427 34.3829 219.961ZM66.0746 213.388C66.4024 213.198 67.3857 212.301 68.2311 211.439 69.2317 210.404 70.0253 209.748 70.4393 209.61 70.8188 209.472 71.0776 209.248 71.0776 209.092 71.0776 208.937 71.1984 208.661 71.3364 208.471 71.4744 208.299 71.5952 207.971 71.5952 207.764 71.5952 207.505 71.854 207.195 72.3888 206.832 73.9587 205.763 75.5286 203.951 76.4084 202.243 76.8742 201.329 76.8742 201.157 76.4084 201.657 76.2014 201.864 75.4768 202.468 74.7868 202.968 73.2859 204.089 72.3543 205.142 72.0782 206.022 71.9402 206.505 71.6987 206.781 71.1466 207.108 70.7498 207.35 70.3013 207.54 70.1805 207.54 70.0425 207.54 69.5595 208.057 69.0937 208.713 68.6279 209.351 67.3857 210.749 66.3161 211.818 64.4529 213.681 64.4012 213.75 64.936 213.75 65.2292 213.75 65.7468 213.595 66.0746 213.388ZM47.2701 213.198C47.2701 213.164 47.0803 212.543 46.856 211.818 46.373 210.248 45.8037 209.23 44.9583 208.42 44.2682 207.747 44.2165 207.799 44.113 209.179 44.0785 209.662 43.9922 210.162 43.9232 210.317 43.8369 210.524 43.9922 210.662 44.5443 210.921 45.6311 211.404 46.2005 211.973 46.3385 212.646 46.4247 213.112 46.5282 213.233 46.856 213.233 47.0803 213.233 47.2701 213.216 47.2701 213.198ZM43.3884 207.592C43.1469 206.936 43.0951 206.16 43.2849 205.918 43.4574 205.711 43.4229 205.625 43.0951 205.418 42.8708 205.28 42.5431 205.107 42.3533 205.055 42.0945 204.986 41.991 204.797 41.9737 204.314 41.9565 203.624 40.8006 200.984 40.5246 200.984 40.4211 200.984 40.1623 201.122 39.9208 201.277 39.3687 201.64 39.2652 201.502 38.9719 199.966 38.5406 197.603 38.2128 197.465 38.2128 199.656L38.2128 201.07 38.8167 201.415C39.6275 201.898 40.076 202.623 40.6971 204.486 41.3354 206.367 41.922 207.315 42.6638 207.626 43.4057 207.954 43.5264 207.937 43.3884 207.592ZM79.6 199.328C80.0313 199.121 80.2038 198.897 80.2556 198.552 80.3591 197.913 80.2383 197.93 79.531 198.655 79.2032 198.983 78.841 199.259 78.7202 199.259 78.5994 199.259 78.4959 199.345 78.4959 199.431 78.4959 199.69 78.9272 199.638 79.6 199.328ZM83.0677 195.118C83.0677 194.808 82.4983 194.67 82.2568 194.911 82.1533 195.015 82.1361 195.17 82.2051 195.291 82.3776 195.567 83.0677 195.429 83.0677 195.118ZM54.4296 153.645C54.7574 153.507 55.1887 153.127 55.3784 152.817 55.8442 152.041 56.31 150.798 56.1893 150.66 56.1203 150.609 55.6717 150.764 55.1887 151.005 54.05 151.609 53.6878 151.609 53.5497 151.005 53.429 150.557 53.636 149.798 54.3433 148.107 54.6884 147.279 54.0673 145.64 51.5658 140.603 50.3754 138.187 49.2368 135.824 49.0643 135.341L48.7365 134.478 48.6847 135.789C48.6502 136.755 48.771 137.756 49.1505 139.498 49.4265 140.827 49.7371 142.863 49.8406 144.053 50.0131 146.296 50.1339 146.779 50.7204 147.503 50.9275 147.762 51.1862 148.521 51.3243 149.315 51.7728 151.644 52.1006 152.748 52.5491 153.334 53.0322 153.956 53.498 154.025 54.4296 153.645ZM110.964 152.144C111.033 151.816 111.016 151.212 110.912 150.781 110.757 150.091 110.791 149.867 111.205 148.883 111.809 147.4 111.93 145.192 111.55 141.862 111.395 140.516 111.274 138.774 111.274 137.98L111.257 136.548 110.377 135.945C109.877 135.617 108.462 134.357 107.22 133.167 105.116 131.131 104.926 130.993 104.184 130.907 102.873 130.752 101.631 130.062 99.7157 128.354 98.439 127.215 97.542 126.577 96.6794 126.18 96.0065 125.869 94.4539 124.869 93.229 123.955 90.0374 121.574 87.7602 120.521 85.0171 120.142L84.2235 120.038 84.1028 121.574C83.9302 123.903 83.6715 125.628 83.3782 126.249 83.1367 126.749 83.1367 126.887 83.3437 127.284 83.7405 128.078 85.7589 129.958 87.2081 130.924 87.9672 131.425 89.0195 132.27 89.5371 132.805 90.0546 133.34 91.4693 134.702 92.6769 135.824 94.0398 137.083 95.144 138.274 95.5925 138.964 96.1618 139.843 96.8174 140.499 98.6633 141.965 99.9572 143.001 101.199 144.036 101.424 144.294 101.665 144.536 101.976 144.743 102.114 144.743 102.269 144.726 102.976 145.019 103.718 145.381 104.995 146.02 105.047 146.071 105.236 146.848 105.564 148.142 106.358 149.142 108.342 150.798 109.359 151.644 110.239 152.455 110.308 152.61 110.481 153.041 110.826 152.8 110.964 152.144ZM89.4681 145.002C89.9684 144.346 90.0374 143.639 89.6924 142.983 89.2956 142.259 86.2937 138.912 85.5347 138.36 84.6893 137.739 83.844 137.566 83.0159 137.825 81.8428 138.17 81.8428 138.17 82.4638 139.757 84.189 144.225 85.0516 145.261 87.2771 145.588 88.4847 145.761 88.985 145.623 89.4681 145.002ZM36.7982 145.071C37.0742 144.95 37.2985 144.622 37.4193 144.191 37.54 143.794 37.9886 143.139 38.4716 142.638 39.1617 141.931 39.2825 141.707 39.1617 141.448 38.8857 140.948 38.9719 139.688 39.317 138.653 39.7138 137.532 39.7138 137.549 38.0748 137.583L36.919 137.618 36.3842 138.412C35.6941 139.464 34.0724 140.93 33.0718 141.431L32.261 141.827 32.261 143.449 32.261 145.054 32.9165 144.967C33.2616 144.933 33.8654 144.967 34.2449 145.054 35.211 145.295 36.3151 145.295 36.7982 145.071ZM7.86684 132.667C7.9531 132.373 8.33264 131.89 8.69493 131.614 9.03997 131.321 9.90256 130.32 10.6099 129.389 12.5076 126.887 12.9561 126.56 16.3548 125.404 18.8045 124.558 19.1668 124.369 20.1157 123.489 20.7367 122.919 21.2543 122.661 22.9105 122.126 25.3602 121.315 28.7588 119.642 32.6923 117.313 35.9701 115.38 39.5067 113.517 41.1112 112.931L42.1635 112.534 42.1118 110.74C42.0945 109.756 41.991 108.859 41.922 108.773 41.577 108.359 38.5234 107.824 36.4877 107.824 33.5203 107.824 31.0706 108.359 24.7737 110.412 22.4102 111.188 19.8741 111.947 19.115 112.137 17.8384 112.43 17.6831 112.534 16.6998 113.5 16.027 114.19 15.4059 114.621 14.9746 114.759 13.6807 115.139 12.7319 116.226 11.4035 118.865 10.7306 120.176 10.0061 121.47 9.7818 121.746 9.48852 122.091 9.33325 122.523 9.26424 123.264 9.21249 123.834 8.8847 125.197 8.52241 126.284 7.9531 128.026 7.86684 128.492 7.84959 130.079 7.83234 131.873 7.83234 131.873 7.34929 132.063 7.09051 132.184 6.81448 132.373 6.72822 132.494 6.62471 132.667 6.40044 132.598 5.74487 132.184 5.26181 131.873 4.83052 131.632 4.74426 131.632 4.53724 131.632 4.77876 133.046 5.02029 133.202 5.14105 133.271 5.77937 133.305 6.45219 133.271 7.64257 133.202 7.67707 133.184 7.86684 132.667ZM111.654 128.319C111.619 128.147 111.723 127.439 111.861 126.749 112.016 126.059 112.085 125.179 112.016 124.8 111.861 123.713 111.033 122.333 109.359 120.418 107.237 117.985 106.703 117.14 106.185 115.415 105.944 114.604 105.547 113.552 105.305 113.086L104.891 112.206 101.044 111.585C98.9394 111.223 96.5931 110.843 95.834 110.722 93.7466 110.395 88.8643 110.446 87.4151 110.809 86.0522 111.154 84.5341 111.775 84.5341 111.982 84.5341 112.31 85.7589 113.483 86.5698 113.914 87.0356 114.173 88.3122 114.725 89.4163 115.139 94.1261 116.968 98.6978 119.659 105.012 124.317 106.409 125.352 107.048 125.938 107.289 126.439 107.531 126.905 107.79 127.146 108.117 127.215 108.393 127.284 109.152 127.629 109.808 128.009 111.067 128.733 111.74 128.837 111.654 128.319ZM44.4235 103.166C44.4925 103.063 44.5615 102.2 44.596 101.217 44.6823 99.0429 45.0273 97.1107 45.7864 94.5401L46.3557 92.5562 45.4241 92.0731C44.0612 91.3658 42.5948 91.038 41.1284 91.1243 40.4383 91.1588 39.8345 91.2278 39.7655 91.2795 39.7138 91.3485 40.0588 92.6769 40.5246 94.2468 41.0076 95.8168 41.715 98.4218 42.1118 100.026 42.8191 102.925 42.8363 102.959 43.3711 103.132 44.0957 103.356 44.3027 103.373 44.4235 103.166ZM47.7704 87.0011C47.9774 86.7596 48.1844 86.3628 48.2189 86.1385 48.2707 85.9315 48.3397 85.5519 48.3914 85.3276 48.4604 84.9654 48.3914 84.8791 47.8221 84.6893 47.4771 84.5858 45.7864 83.982 44.0785 83.3782 40.9904 82.2568 38.1093 81.4287 37.3503 81.4287L36.9535 81.4287 37.678 84.2408 38.3854 87.0356 39.5067 87.0183C40.1278 87.0011 41.715 86.9666 43.0434 86.9321 44.9238 86.8976 45.6139 86.9493 46.1487 87.1563 47.1321 87.5359 47.3736 87.5186 47.7704 87.0011Z" fill="#000000" fill-rule="nonzero" fill-opacity="1" transform="matrix(-0.453407 0.891304 0.891304 0.453407 1603.05 1679.12)"/></g></g></g></g></g></svg>