<svg width="289" height="110" xmlns="http://www.w3.org/2000/svg" xmlns:xlink="http://www.w3.org/1999/xlink" xml:space="preserve" overflow="hidden"><g transform="translate(-2383 -742)"><g><g><g><g><path d="M21.3303 106.315C21.0838 105.778 20.815 104.366 20.4341 101.767 20.2772 100.647 20.2324 100.557 19.3362 100.154L18.3951 99.7505 18.2607 101.229C18.0815 103.089 17.6782 105.061 17.4541 105.218 17.0732 105.442 17.0284 104.814 17.3645 103.828 17.835 102.462 18.0815 99.4816 17.7454 99.4816 17.5885 99.4816 16.2442 98.6526 14.743 97.622 11.4045 95.359 7.66278 93.0512 4.41394 91.3035 1.9269 89.9592 1.12029 89.1526 1.12029 88.0323 1.12029 87.7634 0.918637 87.0912 0.672173 86.5759-0.403304 84.4026-0.0448116 81.7587 1.546 79.9662L2.41982 78.9804 1.97171 78.1289C1.72524 77.636 1.5684 77.2103 1.63562 77.1655 1.68043 77.1207 1.90449 77.4792 2.12855 77.9721 2.35261 78.465 2.57666 78.8683 2.62148 78.8683 2.66629 78.8683 3.00237 78.6667 3.33846 78.3978L3.96582 77.9273 3.45049 76.3589C2.7111 74.2079 2.80072 73.8942 3.54011 75.9108 4.16747 77.6136 4.21229 77.6584 4.90686 77.4568 5.31017 77.3671 5.31017 77.2775 4.81724 75.5971 4.54837 74.6112 4.2571 73.2669 4.18988 72.5947L4.07785 71.3624 4.39153 72.7067C5.4446 77.2775 6.27362 78.4426 6.27362 75.3506 6.27362 73.715 6.67692 70.6678 6.85617 70.8695 6.92338 70.9143 6.83376 71.9225 6.69933 73.0876 6.22881 76.9414 6.94579 78.0169 7.95405 74.9249 8.42457 73.4237 9.63448 70.735 9.76892 70.8695 9.81373 70.9143 9.50005 71.7433 9.07434 72.7291 8.64863 73.6926 8.24533 74.9473 8.1557 75.4851 7.99886 76.4261 8.02127 76.4485 8.49179 76.202 8.73825 76.0452 8.96231 75.8211 8.96231 75.6643 8.96231 75.1266 10.7996 71.8105 12.0543 70.0629 13.7571 67.6878 13.9588 67.643 12.4576 69.9732 11.1581 71.9449 9.63448 74.9249 9.63448 75.4627 9.63448 75.6643 9.76892 75.7315 10.0378 75.6195 10.2394 75.5299 10.934 75.261 11.5614 75.0145 12.8609 74.4992 12.9953 74.2976 14.7654 69.3459 15.2583 68.0015 15.6616 66.9709 15.6616 67.0829 15.684 67.3742 14.3397 71.9001 13.8692 73.0652 13.6451 73.6702 13.4883 74.1631 13.5555 74.1631 13.6003 74.1631 14.1156 73.9391 14.6758 73.6702 15.6168 73.1997 15.7289 73.0652 16.5131 71.0935 16.9612 69.9508 17.3645 69.0546 17.4093 69.077 17.4765 69.1442 16.6699 71.5864 16.2442 72.6619 16.0425 73.1549 17.7454 72.3483 21.7336 70.1077L24.0862 68.7857 25.0497 66.8812C26.3044 64.439 28.9259 60.2715 31.5473 56.597 32.69 55.0062 33.6087 53.5274 33.6087 53.3482 33.6087 53.1465 33.9223 51.8022 34.2808 50.3458 35.1098 47.0297 36.387 44.2962 37.7313 42.8398 38.2915 42.2573 39.2325 41.0026 39.8375 40.0839 41.1818 38.045 42.5262 36.5214 44.0049 35.3563 45.0356 34.5497 45.17 34.3032 45.8198 32.3091 46.7384 29.5308 47.2538 28.4105 48.262 26.9093 48.7102 26.2596 49.0686 25.6098 49.0686 25.4978 49.0686 24.8928 47.5002 22.4282 46.2455 21.0838 43.8481 18.5072 42.7278 17.7678 40.532 17.3645 38.157 16.9164 36.0957 16.3562 32.2643 15.1015L29.2395 14.1156 27.111 12.1887C25.1393 10.3963 22.1145 8.02127 19.6723 6.36324 18.3055 5.4222 17.6109 3.96582 17.5885 2.06133 17.5885 0.896231 17.6782 0.58255 18.0142 0.313681 18.6416-0.134435 19.4706-0.0672173 20.3668 0.470521 21.0838 0.896231 21.1735 0.896231 21.9801 0.58255 23.0107 0.15684 24.5791 0.112029 25.4754 0.492927 25.8115 0.627362 26.9093 0.739391 27.8952 0.761796 29.2843 0.784202 29.9341 0.896231 30.7407 1.29953 31.6818 1.77006 31.8834 1.79246 32.69 1.546 33.4518 1.32194 33.7431 1.34435 34.5945 1.65803 35.3339 1.9493 35.9389 1.99411 36.9023 1.90449 39.479 1.61322 42.5486 2.7335 46.6936 5.46701 48.7326 6.81136 49.1583 6.9906 52.2951 7.84202 59.2633 9.74651 64.6183 12.0543 69.2787 15.1687L71.8105 16.8491 72.8188 16.4907C85.6573 11.763 95.9639 9.67929 111.133 8.71585 117.429 8.31254 135.129 8.40217 139.028 8.82788 146.175 9.65689 155.406 11.5166 169.388 15.0343 172.973 15.9305 173.241 15.9529 178.35 16.1322 191.099 16.6027 201.495 18.7088 212.407 23.0107 218.68 25.4978 224.797 28.769 228.741 31.7938 230.331 33.0037 230.712 33.183 233.154 33.8327 238.017 35.1323 243.035 37.2608 248.704 40.4648 250.116 41.249 251.819 41.966 253.768 42.5486 256.591 43.4224 263.806 46.1783 265.576 47.0969 266.248 47.433 267.211 47.5675 269.721 47.7243 275.233 48.0828 278.123 48.6653 280.856 49.9649 282.335 50.6819 283.007 51.1972 284.733 52.9448 286.615 54.8717 286.794 55.1406 286.794 55.9248 286.794 57.0675 285.696 58.972 284.621 59.7114 284.15 60.0251 283.657 60.2715 283.5 60.2715 283.142 60.2715 283.142 60.4732 283.545 61.1678 284.038 62.0416 283.948 62.6465 283.209 63.2739 282.604 63.7668 282.537 63.9013 282.783 64.327 283.455 65.6041 282.873 68.136 281.82 68.472 281.103 68.6961 277.227 68.6065 275.434 68.3376 269.698 67.4414 265.128 65.5369 256.725 60.5404 250.295 56.709 248.502 55.9248 246.239 55.9472 245.567 55.9472 242.184 56.5746 238.734 57.3588 223.072 60.8093 219.957 61.3022 214.759 61.1005 212.922 61.0109 210.144 60.8093 208.598 60.63 201.764 59.8234 200.442 59.8906 191.121 61.5039 185.251 62.5345 185.072 62.5793 175.997 65.5369 166.049 68.7857 162.666 69.794 158.14 70.8022 156.46 71.2056 153.614 72.1018 151.441 72.9308 133.426 79.8542 115.166 84.1113 100.042 84.9179 97.5771 85.0523 93.2528 85.1419 90.4073 85.1419L85.254 85.0971 79.7646 86.2622C76.7398 86.8896 72.3034 87.741 69.8612 88.1443 67.4414 88.57 65.3352 88.9957 65.156 89.0854 64.9767 89.1974 63.6324 90.2057 62.176 91.3259 53.2809 98.0701 45.5061 102.103 39.2997 103.179 36.7903 103.604 31.973 103.604 29.4412 103.179 27.6935 102.865 23.907 101.946 22.9659 101.588 22.7643 101.498 22.6298 101.565 22.6298 101.745 22.6298 102.305 23.6829 104.344 24.2206 104.814 24.7584 105.33 24.6912 105.688 24.0862 105.464 23.5933 105.262 22.8987 104.03 22.4954 102.618 22.0921 101.229 22.0473 101.162 21.3303 100.938 20.7926 100.781 20.7926 100.781 20.9494 102.327 21.039 103.156 21.2855 104.411 21.5095 105.128 21.9128 106.45 21.7784 107.324 21.3303 106.315Z" fill="#000000" fill-rule="nonzero" fill-opacity="1" transform="matrix(1 0 0 -1.00841 2384.1 851)"/><path d="M6.9682 70.2197C6.9682 69.9732 7.03541 69.906 7.10263 70.0853 7.16985 70.2421 7.14744 70.4438 7.08022 70.511 7.01301 70.6006 6.94579 70.4662 6.9682 70.2197Z" fill="#000000" fill-rule="nonzero" fill-opacity="1" transform="matrix(1 0 0 -1.00841 2384.1 851)"/></g></g></g></g></g></svg>