<svg width="247" height="381" xmlns="http://www.w3.org/2000/svg" xmlns:xlink="http://www.w3.org/1999/xlink" xml:space="preserve" overflow="hidden"><defs><clipPath id="clip0"><rect x="1494" y="1232" width="247" height="381"/></clipPath><clipPath id="clip1"><rect x="1494" y="1232" width="247" height="381"/></clipPath><clipPath id="clip2"><rect x="1497" y="1233" width="244" height="380"/></clipPath><clipPath id="clip3"><rect x="1497" y="1233" width="244" height="380"/></clipPath><clipPath id="clip4"><rect x="1497" y="1233" width="244" height="380"/></clipPath></defs><g clip-path="url(#clip0)" transform="translate(-1494 -1232)"><g clip-path="url(#clip1)"><g clip-path="url(#clip2)"><g clip-path="url(#clip3)"><g clip-path="url(#clip4)"><path d="M95.5937 379.911C95.5046 379.822 93.7828 379.465 91.7343 379.139 87.6375 378.456 87.1031 378.219 80.8093 374.567 78.6125 373.29 71.7547 369.58 65.5203 366.284 59.2859 363.019 52.7844 359.515 51.0625 358.536 39.1875 351.767 33.1609 342.356 33.1609 330.57 33.1312 326.859 33.6359 324.514 35.0906 321.605 36.1297 319.497 38.9797 316.201 40.7312 315.103 42.4531 314.005 46.9359 312.105 50.7656 310.798 52.6359 310.175 54.2094 309.551 54.2687 309.403 54.2984 309.255 52.25 307.206 49.6672 304.861 23.4828 281.111 7.71875 258.726 2.375 237.678 0.207812 229.187-0.296875 222.151 0.682812 215.086 2.82031 200.005 9.61875 187.298 22.5625 174.206 26.6891 170.02 26.9859 169.783 29.7469 168.476 36.9609 165.122 44.3234 164.023 58.4547 164.201L66.589 164.32 68.014 159.867C68.8156 157.433 69.4687 155.058 69.4687 154.642 69.4687 153.366 68.4 150.278 65.3125 142.5 60.6812 130.833 59.4047 126.32 58.7218 119.284 58.0984 112.516 59.2562 104.945 61.9281 98.414 62.5218 96.9593 63.3234 94.9406 63.6797 93.9312 64.4515 91.9125 64.9265 87.6968 64.4515 86.9843 64.214 86.6281 63.4422 86.539 60.4734 86.5687 57.1781 86.6281 52.6359 87.0437 50.8547 87.4593 49.3406 87.8453 48.539 85.4703 49.9937 84.9062 50.9734 84.55 55.7531 84.0156 60.1172 83.7781L63.9765 83.5703 63.8875 82.6796C63.65 80.6609 61.6312 74.5156 58.9297 67.539 53.1406 52.5469 51.6265 48.0344 50.6172 42.5422 50.3203 41.1172 49.9937 39.7812 49.8453 39.5734 49.489 39.1578 45.4515 38.0594 42.1562 37.4953 40.7609 37.2875 37.2875 37.0203 34.4375 36.9015 28.6484 36.7234 27.7875 36.4859 27.9656 35.0906L28.0547 34.289 33.1015 34.3187C38.5937 34.3187 41.6219 34.675 46.1047 35.8031 50.0234 36.7531 49.875 36.7828 49.875 35.0609 49.875 22.4437 58.3656 13.5078 74.8422 8.75781 80.2156 7.18437 87.7859 5.72968 88.4093 6.11562 89.0328 6.53125 89.2109 7.80781 88.7062 8.22343 88.4984 8.40156 86.45 8.90625 84.164 9.32187 68.489 12.3203 58.6625 17.6641 54.9515 25.2641 54.2984 26.6297 53.5265 28.5594 53.289 29.539 52.7547 31.6172 52.3687 36.1 52.6359 37.1687 52.7844 37.7031 53.5859 38.3562 55.5453 39.514 61.2156 42.839 64.7484 47.0844 67.5093 53.8234L67.9843 54.9812 71.3093 51.5672C75.7031 47.114 79.2359 44.7687 84.9953 42.4828 90.3984 40.3453 96.3359 39.2172 103.847 38.9203 106.875 38.8312 108.983 38.6234 109.012 38.4453 109.102 37.9703 106.934 36.8719 103.966 35.9219 100.106 34.675 96.1281 34.2297 92.5359 34.675 89.4781 35.0609 88.8843 34.9719 88.6171 34.1406 88.1422 32.6859 89.3593 32.1219 93.664 31.8547 97.2859 31.6469 100.997 32.1219 104.648 33.2797 106.133 33.725 109.25 34.3781 111.595 34.7344L115.87 35.3281 116.969 34.7047C118.334 33.9328 119.077 34.0515 119.581 35.1203 119.789 35.5656 120.264 35.9812 120.62 36.0703 120.977 36.1594 122.877 36.5453 124.836 36.9609 133.089 38.7125 140.125 40.939 145.35 43.5219 147.161 44.4125 148.764 45.125 148.912 45.125 149.061 45.125 150.426 43.8781 151.941 42.364 154.167 40.1375 154.672 39.4547 154.672 38.7422 154.672 37.2281 152.356 32.864 148.022 26.2141 145.528 22.3547 145.35 20.9891 146.805 16.9516 147.191 15.8828 147.458 14.9328 147.398 14.8437 147.309 14.725 146.508 14.5469 145.558 14.4578 142.322 14.1016 141.075 13.4781 138.462 10.8656 135.167 7.54062 134.306 5.52187 135.078 2.79062 135.345 1.87031 135.791 1.21719 136.503 0.653125L137.512-0.11875 138.314 0.801562C138.73 1.30625 139.68 2.82031 140.422 4.18594 142.055 7.18437 144.964 10.2719 147.22 11.3703 148.556 12.0234 149.269 12.1719 151.139 12.1719 152.683 12.1719 153.514 12.2906 153.751 12.5578 153.93 12.7953 154.226 13.9828 154.434 15.2 154.82 17.7531 154.494 20.4844 153.484 23.3937 153.158 24.3141 152.891 25.2641 152.891 25.4719 152.891 25.7094 153.751 26.8375 154.791 28.025 158.65 32.3594 160.223 34.9422 160.52 37.3469 160.639 38.5344 160.461 39.2765 159.184 42.4531 158.353 44.5015 157.344 46.9359 156.928 47.8859 156.512 48.8359 156.156 49.7562 156.156 49.964 156.156 50.1719 157.997 51.1219 160.253 52.0718 164.795 54.0609 180.47 61.839 182.667 63.2047 183.676 63.8578 184.062 64.3031 184.062 64.8078 184.062 65.5797 183.558 66.2031 182.964 66.2031 182.726 66.2031 179.787 64.7484 176.403 62.9375 169.753 59.4047 159.689 54.625 158.917 54.625 158.412 54.625 158.442 54.7734 159.244 57.7422 161.203 64.9562 157.047 74.4562 147.487 84.4609L144.459 87.6375 145.558 92.1203C150.189 111.15 150.575 126.884 146.597 136.503 146.181 137.512 146.062 138.166 146.241 138.344 146.923 139.027 150.278 139.294 157.195 139.175L164.32 139.056 166.22 138.106C168.536 136.919 170.109 135.82 176.047 131.397 182.459 126.587 182.341 126.647 187.773 126.528 191.217 126.439 193.384 126.587 197.273 127.122 204.309 128.072 205.111 128.042 207.812 126.736 209.03 126.142 210.989 124.925 212.117 124.005L214.225 122.372 216.066 117.948C217.253 115.039 217.906 113.08 217.906 112.337 217.876 109.339 216.244 104.886 211.523 95.1484L208.644 89.2109 208.792 86.8359C208.881 85.4406 209.267 83.5703 209.712 82.264 210.662 79.5328 210.662 79.3547 209.712 77.9296 208.614 76.2078 206.833 74.9906 202.884 73.2093 198.876 71.3984 197.155 70.0031 195.047 67.0343 193.711 65.1343 188.516 55.0109 188.516 54.3281 188.516 54.15 191.573 57.1187 195.314 60.9187 201.548 67.2718 202.32 67.9547 204.725 69.2906 208.673 71.4281 212.176 73.8328 213.067 74.9906 214.017 76.2672 214.047 77.1875 213.216 80.275 212.384 83.3031 212.355 87.1031 213.126 89.5968 214.225 93.2187 217.461 98.325 220.162 100.789 221.231 101.769 221.558 102.303 221.944 103.906 222.597 106.37 222.597 110.378 221.973 112.427 221.706 113.317 221.617 114.059 221.766 114.148 221.914 114.237 222.894 113.555 223.903 112.605 226.278 110.378 228.742 108.627 233.195 106.014 235.125 104.856 236.936 103.698 237.262 103.431 239.608 101.294 234.412 96.5437 223.844 91.1703L219.539 89.0031 222.359 89.1812C230.494 89.6562 238.569 93.9609 241.805 99.5125 243.556 102.481 243.705 102.244 236.312 107.973 230.464 112.545 227.406 115.158 222.597 119.819L218.708 123.53 216.986 129.527C215.086 136.206 213.72 140.184 212.681 142.262 211.969 143.687 210.603 144.994 210.069 144.786 209.208 144.459 204.012 145.142 202.884 145.706 201.311 146.508 201.073 147.042 199.055 154.078 197.095 160.876 196.234 163.192 194.78 165.33 192.909 168.12 192.612 168.18 184.537 167.764 175.869 167.348 172.633 167.348 169.753 167.853 166.28 168.476 164.231 169.545 162.687 171.505 160.906 173.701 157.789 176.106 154.612 177.709 152.594 178.719 151.852 179.283 151.139 180.292 149.209 183.112 147.309 184.241 142.945 185.191 139.531 185.962 136.978 186.912 133.03 188.961 128.666 191.247 123.352 194.572 123.352 195.017 123.352 195.225 124.361 195.789 125.578 196.234 127.33 196.858 127.805 197.155 127.745 197.6 127.716 197.897 127.478 198.312 127.181 198.461 125.37 199.53 121.837 202.409 120.056 204.309 117.8 206.684 113.703 212.592 113.703 213.483 113.703 213.75 115.128 216.57 116.85 219.717 128.458 240.914 135.998 257.658 139.501 270.097 141.283 276.42 141.995 281.051 141.995 286.484 141.995 291.383 141.639 294.084 140.155 300.823 139.68 302.99 139.234 305.217 139.175 305.781L139.086 306.82 140.719 306.998C141.609 307.117 144.816 307.355 147.844 307.562 153.751 307.919 158.887 308.483 163.133 309.225 167.408 309.967 172.841 311.422 174.147 312.194 177.739 314.242 179.906 319.497 179.906 326.028 179.906 329.561 179.372 332.114 178.125 334.756 177.323 336.419 176.344 337.428 168.684 344.612 163.994 349.036 158.828 353.786 157.195 355.211 147.576 363.642 139.234 369.401 130.625 373.587 125.875 375.903 118.037 377.862 107.706 379.317 104.411 379.762 95.8906 380.178 95.5937 379.911ZM59.1968 308.364C59.7015 307.978 59.5531 307.77 57.1187 305.484 46.6687 295.687 37.9406 285.475 32.5375 276.836 30.1328 273.006 29.5094 272.116 27.2531 269.355 22.0281 262.942 18.6141 255.966 17.0109 248.455 16.2094 244.684 16.2984 236.906 17.1891 232.75 19.6531 221.142 26.2141 209.534 37.7625 196.294 45.5406 187.387 46.7875 186.051 52.2203 180.708 57.6531 175.364 59.9093 173.553 63.4422 171.772 65.2234 170.881 65.5203 170.466 65.6687 168.625L65.7578 167.289 62.1953 167.051C57.2968 166.725 46.1937 167.022 42.6015 167.586 38.0594 168.298 34.289 169.397 31.0234 170.97 28.1734 172.366 27.8172 172.633 24.0469 176.551 19.1781 181.539 16.8031 184.448 13.3297 189.673-4.48281 216.392 0.83125 246.495 29.3312 280.161 34.4375 286.187 41.1469 293.194 47.4406 299.072 53.675 304.89 58.039 308.75 58.425 308.75 58.5734 308.75 58.9 308.572 59.1968 308.364ZM65.4906 307.117C65.7281 306.494 64.2734 304 62.3437 301.684 59.9687 298.894 56.3172 295.717 42.9281 284.881 36.3078 279.537 48.1531 293.372 58.1875 302.723 62.7 306.909 63.5015 307.562 64.3625 307.562 64.9265 307.562 65.4015 307.384 65.4906 307.117ZM75.8812 306.405C78.5828 306.256 78.8203 306.167 78.9093 305.603 79.0578 304.594 75.8218 300.081 70.9234 294.47 65.3125 288.058 63.264 285.505 61.3047 282.476 58.2765 277.845 56.2578 272.976 55.3375 268.167 54.625 264.308 54.8922 257.123 55.9312 252.997 57.4156 247.089 60.1468 240.855 64.0062 234.62 65.3718 232.394 65.9062 231.266 65.9062 230.523 65.9062 229.87 65.2531 228.208 63.9765 225.714 60.3843 218.648 58.7218 213.601 58.7218 209.534 58.7218 207.397 58.8109 206.981 59.7609 205.141 60.889 203.033 62.7 198.075 63.8281 194.008 64.4515 191.841 64.4812 191.039 64.4812 183.498 64.4812 178.184 64.3625 175.275 64.1843 175.216 63.5015 175.008 49.1922 187.951 44.2937 193.236 34.6156 203.686 27.1344 217.194 24.6703 228.712 23.6609 233.492 23.3641 236.966 23.5422 242.22 23.8687 250.948 26.0953 259.112 30.6375 268.197 32.5672 272.026 38.2078 277.548 50.4687 287.523 57.9203 293.58 62.1062 297.29 63.9468 299.428 65.5203 301.239 67.9843 304.772 67.9843 305.187 67.9843 305.336 68.1328 305.811 68.2812 306.226 68.5781 307.028 68.6078 307.028 70.775 306.82 71.9922 306.701 74.2781 306.523 75.8812 306.405ZM123.737 305.87C123.945 304.505 119.225 296.964 118.364 297.261 118.037 297.35 117.859 298.864 117.533 304.445L117.414 306.226 119.492 306.405C122.966 306.701 123.648 306.612 123.737 305.87ZM134.306 306.405C134.633 305.9 132.08 302.545 129.942 300.586 127.359 298.24 119.195 292.333 118.75 292.481 118.542 292.54 119.611 294.055 121.066 295.895 123.945 299.458 125.43 301.922 126.469 304.831L127.152 306.672 130.655 306.672C132.584 306.672 134.217 306.553 134.306 306.405ZM96.1578 305.959C96.425 305.662 96.2765 304.742 95.6234 302.159 93.5156 294.055 89.3593 286.336 84.2234 280.992 82.3234 279.033 81.8781 277.905 81.9671 274.966L82.0265 272.383 79.414 268.523C76.2375 263.803 72.3484 255.936 70.5375 250.622 69.1718 246.644 67.5984 240.617 67.2125 238.005 67.1234 237.233 66.8859 236.52 66.7078 236.401 66.2031 236.105 65.164 237.678 62.9375 242.101 60.5328 246.941 58.7218 252.166 58.0093 256.322 57.3562 260.241 57.5343 266.326 58.4547 269.77 60.2953 276.836 63.4422 281.823 72.8828 292.63 77.8406 298.27 79.7406 300.823 81.2843 303.911L82.3531 306.078 87.5781 306.167C90.4281 306.197 93.4562 306.286 94.2875 306.315 95.2968 306.345 95.9203 306.226 96.1578 305.959ZM136.652 303.792C137.067 303.109 138.937 292.956 139.205 290.047 140.006 280.458 137.483 269.77 130.536 253.383 126.647 244.209 112.872 217.164 112.1 217.164 111.952 217.164 111.684 217.401 111.506 217.669 111.269 218.084 111.328 218.351 111.862 219.005 114.505 222.3 115.306 224.467 115.277 228.594 115.277 232.78 113.911 237.856 111.12 244.12L110.348 245.842 111.981 247.534C114 249.583 115.187 251.305 115.187 252.166 115.187 252.522 114.772 254.392 114.267 256.351 113.466 259.409 113.347 260.508 113.287 263.922L113.258 267.9 114.416 268.167 115.573 268.464 115.366 272.353C115.069 278.142 115.959 286.009 117.147 287.88 117.355 288.236 119.641 290.017 122.223 291.858 129.883 297.32 133.92 300.823 135.316 303.169 135.791 303.97 136.384 304.237 136.652 303.792ZM106.578 289.156 106.548 284.258 103.995 281.437C100.462 277.519 95.95 271.878 93.5156 268.226 92.3875 266.534 91.3187 265.08 91.1406 264.961 90.6062 264.634 90.814 266.505 91.7046 270.245 92.8921 275.084 93.8718 278.053 95.475 281.437 97.5234 285.772 98.414 286.959 100.522 288.295 102.748 289.72 104.203 291.264 105.272 293.342 105.836 294.5 106.103 294.797 106.311 294.47 106.459 294.233 106.578 291.858 106.578 289.156ZM107.617 276.391C107.884 275.173 108.152 273.837 108.241 273.422 108.359 272.828 108.241 272.591 107.558 272.175 105.272 270.839 103.55 268.434 101.947 264.367 100.67 261.101 100.7 260.686 102.541 258.608 103.698 257.301 103.847 256.945 104.173 254.837 104.797 250.8 104.886 246.495 104.411 243.883 103.936 241.33 104.084 240.825 105.064 241.359 105.569 241.626 105.717 241.597 105.866 241.241 106.103 240.617 104.975 231.681 103.877 225.625 102.956 220.459 100.997 212.117 100.225 209.92 99.275 207.308 99.7796 203.359 101.353 200.955 102.303 199.559 102.303 199.292 101.442 198.194L100.73 197.333 97.4937 200.331C89.2109 207.991 88.7359 208.495 88.439 209.742 87.875 212.206 87.7859 217.936 88.2609 221.469 89.1218 227.97 90.1015 231.533 92.0609 235.273 93.0109 237.144 93.8125 238.984 93.8125 239.4 93.8125 239.786 92.7437 242.606 91.4375 245.634 87.9937 253.62 88.0828 253.056 89.8937 256.678 90.725 258.341 92.6546 261.547 94.1687 263.803 98.5625 270.394 106.252 279.508 106.875 278.884 107.023 278.736 107.35 277.608 107.617 276.391ZM22.0875 252.611C21.7016 250.77 21.2562 247.95 21.0484 246.287 20.6031 242.576 20.8703 234.116 21.4937 230.672 21.7609 229.276 21.9687 227.881 21.9687 227.555 21.9391 226.189 21.1078 228.119 20.3656 231.236 18.9406 237.203 18.7031 241.27 19.4453 246.258 20.0687 250.473 21.9687 256.441 22.5625 256.055 22.6812 255.995 22.4734 254.422 22.0875 252.611ZM81.2547 254.214C81.3437 253.917 81.8187 252.789 82.3234 251.691L83.214 249.672 81.3437 245.605C80.3046 243.348 78.5828 239.251 77.4547 236.461 76.3562 233.7 75.3468 231.444 75.1984 231.503 74.5453 231.741 75.5843 237.886 77.8703 247.237 79.2953 253.205 79.889 254.719 80.7796 254.719 80.9281 254.719 81.1359 254.481 81.2547 254.214ZM85.2031 240.944C85.2031 238.212 84.6687 234.709 83.5406 230.226 82.4125 225.744 81.9078 224.348 81.5812 224.675 80.7203 225.536 83.9265 243.437 84.9062 243.437 85.0843 243.437 85.2031 242.339 85.2031 240.944ZM79.0281 228.92C78.8203 227.02 78.6125 224.378 78.4937 223.042 78.4047 221.676 78.1968 220.578 78.0781 220.578 77.5734 220.578 75.7031 223.012 75.7031 223.666 75.7031 224.378 78.0781 231.325 78.7312 232.542 79.2953 233.611 79.3843 232.661 79.0281 228.92ZM76.8609 217.401C78.4937 215.591 78.6125 215.116 78.4047 211.226 78.3453 209.594 79.7406 199.5 80.9281 193.266 81.7 189.169 84.2234 178.926 84.9953 176.789 85.3218 175.898 85.3812 174.681 85.2625 171.92L85.114 168.239 83.6 168.417C80.0672 168.803 79.1765 169.159 77.0984 171.03 73.8031 173.998 70.9828 179.342 69.914 184.567 69.3203 187.536 69.4093 189.08 70.2109 189.525 73.5359 191.276 75.05 192.939 75.5547 195.255 75.7922 196.442 75.4359 197.155 73.4765 199.203 71.7843 201.014 70.8047 202.647 70.5078 204.28 70.2406 205.675 71.4578 210.336 73.1797 214.492 73.8922 216.303 74.5156 217.966 74.5156 218.233 74.5156 218.737 74.7828 219.094 75.139 219.094 75.2578 219.094 76.0297 218.322 76.8609 217.401ZM95.4156 198.55C97.375 196.709 99.0968 195.076 99.2156 194.898 99.4531 194.572 97.3453 190.534 96.8703 190.386 96.6921 190.326 96.4843 190.98 96.3656 191.841 96.0687 193.948 95.2968 195.641 93.8718 197.184 92.8921 198.253 91.1406 201.162 91.1406 201.726 91.1406 202.291 92.239 201.459 95.4156 198.55ZM106.311 196.561C107.202 196.086 108.894 195.403 110.111 195.076 111.566 194.661 112.456 194.245 112.753 193.8 116.642 188.248 120.62 185.131 125.43 183.914 126.558 183.617 128.577 183.469 131.219 183.469 135.256 183.469 138.611 182.934 141.134 181.866 142.678 181.212 149.358 174.562 152 171.03 153.276 169.367 154.969 166.784 155.77 165.33 156.78 163.43 157.462 162.569 158.086 162.272 160.253 161.203 167.586 160.966 179.401 161.5 186.705 161.856 186.912 161.797 188.961 159.214 190.208 157.641 193.117 152.089 196.145 145.469 198.105 141.253 199.648 140.006 204.042 139.056 206.655 138.492 207.516 137.661 209.267 134.039 211.078 130.387 210.989 130.269 207.842 132.228 204.814 134.098 203.686 134.336 200.806 133.801 192.82 132.258 186.556 132.169 182.489 133.564 181.331 133.98 179.609 135.048 177.145 136.948 172.573 140.451 169.516 142.5 166.784 143.925L164.617 145.023 156.156 145.053C147.428 145.083 145.825 145.231 143.747 146.359 141.075 147.784 139.798 149.447 137.453 154.701 135.969 157.997 135.434 158.917 134.187 160.075 132.911 161.292 132.703 161.648 132.703 162.628 132.703 165.419 130.833 170.109 128.428 173.286 126.38 175.987 121.422 180.589 117.266 183.617 110.942 188.248 103.312 194.75 103.312 195.522 103.312 196.026 104.173 197.422 104.47 197.422 104.589 197.422 105.42 197.036 106.311 196.561ZM86.6578 189.881C89.0328 187.031 89.1218 186.734 88.1422 183.736 87.4296 181.628 87.014 180.945 86.6578 181.301 86.3906 181.569 84.0156 191.009 84.0156 191.841 84.0156 192.791 84.4906 192.434 86.6578 189.881ZM106.519 188.634C108.923 186.586 112.1 184.062 113.555 183.023 119.937 178.481 124.717 174.028 127.092 170.406 129.378 166.962 130.773 161.856 129.556 161.381 129.289 161.292 127.33 161.203 125.192 161.203 121.541 161.203 121.066 161.292 118.008 162.242 113.941 163.548 107.884 164.825 101.027 165.805 98.1171 166.22 95.564 166.755 95.3859 166.933 94.139 168.18 94.139 175.809 95.3859 179.966 96.514 183.706 100.967 192.375 101.769 192.375 101.977 192.375 104.144 190.683 106.519 188.634ZM86.8656 163.133C87.0734 162.48 87.3703 161.411 87.5484 160.758 87.964 159.155 89.389 157.076 90.6953 156.156 91.2593 155.741 91.764 155.266 91.8531 155.058 92.3281 153.93 90.1609 145.617 89.389 145.617 88.8546 145.617 86.925 149.447 86.064 152.119 85.4406 154.137 85.4406 154.256 85.8859 156.72 86.4203 159.541 86.2421 161.114 85.1734 162.925 84.4015 164.291 84.4609 164.528 85.589 164.409 86.4203 164.32 86.5687 164.172 86.8656 163.133ZM108.745 161.767C109.369 161.589 109.784 161.351 109.695 161.203 109.398 160.728 106.489 160.847 105.747 161.381 104.233 162.42 105.48 162.598 108.745 161.767ZM99.5421 152.119C106.905 149.536 110.972 147.695 114.445 145.38 117.147 143.598 117.533 143.153 118.156 141.075 119.106 138.047 119.017 137.691 116.702 134.959 113.614 131.278 108.656 126.023 108.181 125.934 107.469 125.756 96.6625 135.939 92.8328 140.362 91.5265 141.847 91.5265 141.966 93.0703 146.953 93.6046 148.675 94.139 150.753 94.2578 151.555 94.3765 152.386 94.525 153.128 94.614 153.276 94.8515 153.662 95.5937 153.484 99.5421 152.119ZM112.486 151.525C113.139 150.605 113.614 149.744 113.555 149.595 113.466 149.477 112.041 150.011 110.348 150.783 108.686 151.584 107.083 152.297 106.816 152.386 105.539 152.831 106.4 153.187 108.775 153.187L111.298 153.187 112.486 151.525ZM128.131 152.772C128.458 151.881 123.292 142.797 122.431 142.797 121.719 142.797 119.611 144.934 118.839 146.478 118.423 147.309 117.414 149.031 116.642 150.308 115.841 151.584 115.187 152.772 115.187 152.92 115.187 153.069 117.889 153.187 121.57 153.187 126.766 153.187 128.012 153.098 128.131 152.772ZM134.425 147.25C138.551 141.728 139.977 140.066 141.431 139.086 142.53 138.373 142.975 137.75 143.836 135.88 147.161 128.636 147.517 116.642 144.845 101.531 143.866 95.8609 142.5 90.5171 141.995 90.339 141.728 90.25 141.194 90.5468 140.63 91.0812L139.739 92.0015 140.362 94.1687C141.253 97.0781 141.194 99.1859 140.125 104.411 137.097 119.017 132.881 129.378 126.558 137.661 125.519 139.027 124.687 140.244 124.687 140.422 124.687 140.57 125.489 141.936 126.469 143.42 127.448 144.934 128.814 147.28 129.497 148.645 130.358 150.367 130.862 151.109 131.189 151.05 131.456 150.991 132.911 149.298 134.425 147.25ZM74.1593 144.727C78.1375 136.77 83.3031 128.606 91.1109 117.859 92.9515 115.336 94.4062 113.08 94.3468 112.812 94.2578 112.337 90.5765 108.983 82.9172 102.362 81.2843 100.908 79.6812 99.75 79.414 99.75 79.1171 99.75 76.9797 100.106 74.6343 100.552 69.4687 101.502 68.5781 101.353 66.5593 99.2156 65.7281 98.325 65.1937 97.9687 64.9859 98.1765 64.4812 98.6812 62.7 104.262 62.0172 107.469 61.5125 109.873 61.364 111.625 61.3343 115.187 61.3047 123.381 62.6109 128.547 68.2812 142.648 69.7953 146.419 71.0718 149.595 71.1609 149.714 71.4281 150.13 71.6953 149.655 74.1593 144.727ZM80.0672 142.619C80.6906 141.876 83.3922 139.323 86.0937 136.948 91.764 131.991 94.7031 128.814 96.514 125.667 97.939 123.144 99.75 118.898 99.75 118.008 99.75 117.325 98.0281 115.484 97.375 115.484 96.425 115.484 84.7281 132.317 80.4828 139.798 79.325 141.847 78.375 143.598 78.375 143.747 78.375 144.311 79.0281 143.895 80.0672 142.619ZM124.955 135.316C128.487 130.447 131.397 124.717 133.712 117.919 135.969 111.298 138.344 101.086 138.344 97.939 138.344 96.3359 137.691 94.4062 137.156 94.4062 136.562 94.4062 120.145 108.181 116.316 111.862L114.92 113.198 115.959 115.009C118.512 119.403 120.68 125.014 121.422 129.141 121.6 130.18 121.808 132.436 121.867 134.158 121.956 137.067 122.164 137.72 122.966 137.75 123.084 137.75 123.975 136.652 124.955 135.316ZM118.928 131.011C118.483 127.122 116.612 121.808 114.208 117.473 113.466 116.167 112.902 115.484 112.545 115.484 111.803 115.484 107.766 119.73 107.766 120.502 107.766 120.887 108.864 122.312 110.586 124.183 112.13 125.845 114.505 128.428 115.87 129.942 117.206 131.456 118.483 132.673 118.72 132.703 119.047 132.703 119.077 132.347 118.928 131.011ZM101.234 113.228C101.798 111.773 103.402 109.844 105.005 108.745 105.866 108.152 106.578 107.528 106.578 107.35 106.578 106.934 104.47 104.797 104.055 104.797 103.847 104.797 103.55 105.153 103.342 105.569 103.164 105.984 102.155 107.706 101.086 109.398 100.017 111.091 99.1562 112.664 99.1562 112.931 99.1562 113.406 99.9281 113.97 100.581 114 100.789 114 101.086 113.644 101.234 113.228ZM110.378 113.347C110.586 113.139 110.734 112.783 110.734 112.545 110.734 112.219 110.616 112.248 110.141 112.664 109.517 113.228 109.369 113.703 109.784 113.703 109.903 113.703 110.17 113.555 110.378 113.347ZM98.2062 107.825C99.0375 106.548 100.077 104.708 100.552 103.787L101.383 102.066 100.047 100.908C99.3046 100.255 98.0281 99.275 97.2265 98.7109L95.7125 97.6718 92.1796 97.9687C86.3312 98.4734 83.9859 98.8593 84.075 99.364 84.1937 99.9578 95.6531 110.081 96.2468 110.111 96.5437 110.141 97.3156 109.25 98.2062 107.825ZM111.209 106.044C111.417 105.925 111.981 105.094 112.516 104.203 114.712 100.462 117.355 98.1765 120.739 97.0484 121.867 96.6921 122.847 96.2468 122.966 96.0687 123.084 95.8906 123.47 94.8812 123.827 93.8125 124.687 91.2296 126.766 86.539 127.745 84.9953 128.191 84.2828 128.547 83.4812 128.547 83.1843 128.547 82.8875 126.677 80.8984 124.034 78.464 118.037 72.9125 111.536 66.2625 109.606 63.6797 107.855 61.3343 105.628 56.9703 105.123 54.8625 104.292 51.3 105.005 47.0547 106.994 43.9375 108.627 41.3844 108.745 41.4437 103.55 41.6515 90.9625 42.1265 81.0172 45.8078 74.1297 52.4875 71.6953 54.8625 69.1718 58.2765 69.1125 59.2562 69.1125 59.5531 69.2609 61.4828 69.4687 63.5312 69.8843 67.6281 69.7359 73.4172 69.0234 79.6515 68.8156 81.7593 68.6672 83.6296 68.7562 83.8375 68.8453 84.0453 70.6265 84.55 72.8828 84.9953 80.0672 86.4203 88.1422 89.5968 94.3468 93.4562 96.1281 94.5546 97.4046 95.1187 98.8593 95.4156 99.9578 95.6531 101.264 96.039 101.769 96.3062 103.164 97.0187 104.411 98.6812 104.648 100.106 104.827 101.175 105.212 101.739 107.261 103.847 109.577 106.162 110.348 106.608 111.209 106.044ZM72.5562 97.9984C74.1593 97.6718 75.5843 97.3156 75.7328 97.1671 75.9109 96.989 75.1093 96.0984 73.8328 94.9109 72.6156 93.8421 70.9828 92.15 70.1812 91.1703 69.3797 90.1609 68.5781 89.3593 68.4 89.3593 67.7468 89.3593 67.45 94.3765 67.9843 96.6328 68.2218 97.6421 68.9047 98.5625 69.439 98.5625 69.5281 98.5625 70.9234 98.2953 72.5562 97.9984ZM86.539 95.7125C90.4281 95.2375 90.8437 95.1484 90.8437 94.7625 90.8437 93.9312 81.225 89.864 75.9703 88.4687 72.2297 87.489 71.25 87.3703 71.25 87.964 71.25 88.6468 75.3765 92.8625 77.8703 94.7328 80.2156 96.4546 80.364 96.5437 81.6406 96.3656 82.3828 96.2468 84.5797 95.9796 86.539 95.7125ZM133.772 93.4562C135.731 91.8234 136.117 90.9921 135.227 90.25 134.633 89.775 133.95 90.339 132.376 92.6843 130.447 95.5046 130.922 95.7718 133.772 93.4562ZM139.917 88.0828C141.283 86.8359 141.283 86.8062 140.956 85.5593 140.748 84.7578 140.481 84.3125 140.184 84.3125 139.561 84.3125 136.859 86.9547 136.859 87.5484 136.859 87.9937 137.987 89.3593 138.344 89.3593 138.462 89.3593 139.175 88.7953 139.917 88.0828ZM150.664 76.6234C155.622 70.0328 157.759 63.8281 156.78 59.0187 156.275 56.6734 154.791 53.7344 154.078 53.7344 153.217 53.7344 150.842 56.2875 149.981 58.1281 149.209 59.7609 149.18 60.0578 149.031 66.5 148.883 72.8828 148.853 73.239 148.111 74.8125 147.666 75.7625 146.389 77.4547 145.023 78.9093 142.856 81.225 142.737 81.4328 142.886 82.4125 142.975 83.0062 143.242 83.689 143.45 83.9265 143.777 84.3421 144.162 84.0453 146.33 81.7593 147.695 80.3046 149.655 77.989 150.664 76.6234ZM132.703 78.5234C133.772 77.4547 135.137 76.2078 135.761 75.7922 137.186 74.8125 137.156 74.6343 134.93 69.7062 130.18 59.3156 123.292 49.2515 117.236 43.9375 115.009 41.9484 114.802 41.8594 113.406 41.8594 111.981 41.8594 111.892 41.9187 110.705 43.4328 107.261 47.7375 106.637 52.1015 108.716 57 109.666 59.1968 112.308 62.9078 115.247 66.114 118.394 69.5578 129.942 80.4531 130.447 80.4531 130.625 80.4531 131.664 79.5921 132.703 78.5234ZM66.7672 70.1515C66.7968 67.1531 66.4406 66.1734 66.0547 68.014 65.7578 69.4093 65.7578 73.7437 66.0547 74.2187 66.5 74.9312 66.7375 73.5359 66.7672 70.1515ZM141.491 72.2593C142.203 71.8437 142.945 71.25 143.094 70.9531 143.747 69.7359 144.044 67.1234 144.281 60.4734 144.489 54.2687 144.608 53.1406 145.201 51.4781 145.617 50.2906 145.766 49.4594 145.587 49.3109 145.142 48.8953 137.067 46.3422 132.258 45.125 126.469 43.6406 121.125 42.6312 120.798 42.9578 120.68 43.0765 121.57 44.3234 122.817 45.7187 125.608 48.8062 128.814 53.0812 131.1 56.7625 133.148 60.0578 137.008 67.5093 138.373 70.7453 138.937 72.0812 139.501 73.0312 139.739 73.0312 139.977 73.0312 140.748 72.675 141.491 72.2593ZM63.65 66.114C63.9172 64.689 64.5406 62.5218 65.0156 61.3047 65.5203 60.0578 65.9062 58.6625 65.9062 58.1578 65.9062 56.8812 64.2734 52.1609 63.175 50.1719 61.275 46.7875 58.8406 44.2047 55.6343 42.1859 54.2687 41.2953 53.1406 40.9984 53.1406 41.5031 53.1406 42.275 55.0703 49.4 56.0797 52.3094 57.3562 55.9609 61.8687 67.7172 62.4031 68.6672 62.8484 69.4984 63.0859 68.9937 63.65 66.114ZM133.03 41.9484C131.516 41.2953 124.777 39.6328 120.472 38.8609 117.503 38.3265 116.583 38.2672 116.316 38.5344 115.722 39.1281 116.375 39.3656 120.086 39.9 122.045 40.1672 125.786 40.8203 128.398 41.3844 133.712 42.5125 134.514 42.6015 133.03 41.9484Z" fill="#000000" fill-rule="nonzero" fill-opacity="1" transform="matrix(1.00053 0 0 -1 1497.01 1613)"/></g></g></g></g></g></svg>