<svg width="481" height="412" xmlns="http://www.w3.org/2000/svg" xmlns:xlink="http://www.w3.org/1999/xlink" xml:space="preserve" overflow="hidden"><defs><clipPath id="clip0"><path d="M2705.83 1562.8 2598.55 1326.72 2966.23 1159.65 3073.51 1395.72Z" fill-rule="nonzero" clip-rule="nonzero"/></clipPath><clipPath id="clip1"><path d="M2705.83 1562.8 2598.55 1326.72 2966.23 1159.65 3073.51 1395.72Z" fill-rule="evenodd" clip-rule="evenodd"/></clipPath><clipPath id="clip2"><path d="M2705.83 1562.8 2598.55 1326.72 2966.23 1159.65 3073.51 1395.72Z" fill-rule="evenodd" clip-rule="evenodd"/></clipPath></defs><g transform="translate(-2594 -1155)"><g><g clip-path="url(#clip0)"><g clip-path="url(#clip1)"><g clip-path="url(#clip2)"><path d="M134.194 402.489C132.586 401.763 130.188 399.429 129.463 397.946 129.179 397.315 128.516 396.495 128.011 396.116 127.507 395.738 126.56 394.981 125.961 394.413 125.33 393.845 124.541 393.309 124.163 393.183 123.816 393.056 123.343 392.773 123.185 392.52 122.996 392.268 122.176 391.668 121.387 391.227 118.548 389.586 116.497 388.072 115.835 387.157 115.488 386.653 114.573 385.959 113.816 385.643 113.059 385.296 112.049 384.728 111.576 384.318 111.072 383.908 110.535 383.593 110.378 383.593 110.22 383.593 109.116 382.899 107.949 382.047 105.93 380.596 103.185 379.176 102.365 379.176 102.144 379.176 101.45 378.766 100.788 378.23 100.125 377.725 99.4313 377.284 99.2105 377.284 98.9897 377.284 97.9802 376.432 96.9708 375.359 95.9298 374.318 94.8257 373.309 94.4471 373.183 93.1222 372.647 90.22 370.628 88.3904 368.924 87.3494 367.978 86.403 367.189 86.3084 367.189 86.2138 367.189 85.362 366.558 84.4157 365.801 83.5008 365.044 82.3652 364.35 81.9551 364.255 81.5135 364.129 80.2201 362.994 79.0529 361.7 77.9173 360.438 76.6239 359.271 76.1823 359.177 75.6145 359.019 75.3306 358.64 75.0782 357.662 74.7943 356.621 73.8795 355.517 70.7249 352.3 68.5167 350.06 66.0562 347.757 65.2676 347.221 64.4789 346.653 63.154 345.36 62.3023 344.319 60.2834 341.764 52.4917 333.94 49.4002 331.29 46.8766 329.177 45.5832 327.947 43.5643 325.77 42.9649 325.139 42.3656 324.603 42.2078 324.603 41.6716 324.603 36.7505 321.196 36.3719 320.533 36.1511 320.186 35.2994 319.524 34.4792 319.051 33.659 318.578 32.271 317.6 31.3877 316.874 30.536 316.149 29.3057 315.392 28.7064 315.139 28.107 314.918 26.6875 314.067 25.5518 313.246 24.4162 312.426 23.1544 311.575 22.7443 311.354 21.0408 310.47 18.0125 307.726 13.8485 303.278 13.0598 302.426 11.3248 300.691 9.99991 299.461 8.70655 298.199 7.50782 296.843 7.41318 296.464 7.16082 295.707 6.246 294.13 4.54255 291.543 2.93373 289.083 1.92427 286.717 1.76655 284.824 1.67191 283.878 1.51418 282.837 1.388 282.521 1.16718 281.953 1.82964 278.294 2.23973 277.758 2.36591 277.569 2.71291 276.307 2.99682 274.982 3.28073 273.594 3.84855 272.048 4.29018 271.386 4.82646 270.597 5.04727 269.871 4.98418 269.177 4.95264 268.578 5.11037 267.947 5.45737 267.569 5.74127 267.253 5.99364 266.875 5.99364 266.748 5.99364 266.622 6.34064 265.991 6.78227 265.36 7.22391 264.73 7.57091 263.846 7.57091 263.405 7.60246 262.963 7.79173 262.269 8.01255 261.859 8.23337 261.449 8.35955 260.818 8.26491 260.502 7.981 259.43 11.6403 248.042 14.0062 242.585 14.7948 240.755 15.4573 239.146 15.4573 238.957 15.4573 238.799 16.1828 237.79 17.0345 236.749 17.9178 235.708 18.8642 234.225 19.1481 233.436 19.432 232.648 20.126 231.449 20.6623 230.755 21.2301 230.061 22.0503 228.768 22.4919 227.853 22.9651 226.97 23.7222 225.96 24.2269 225.613 25.0156 225.045 27.1291 221.323 27.1291 220.503 27.1291 220.314 27.8546 219.209 28.7064 218.011 29.5896 216.812 30.2836 215.739 30.2836 215.613 30.2836 215.456 30.8515 214.888 31.5455 214.288 32.2395 213.689 32.8073 212.932 32.8073 212.616 32.8073 212.301 33.1543 211.607 33.5959 211.102 34.0376 210.566 34.3846 209.967 34.3846 209.714 34.3846 209.052 35.4886 208.169 36.0249 208.358 36.4666 208.547 37.5391 207.506 38.8956 205.55 39.211 205.109 39.7473 204.73 40.0627 204.73 40.4728 204.73 40.7567 204.446 40.8829 203.878 41.2615 202.112 41.3561 201.923 42.2078 201.639 42.681 201.449 43.6905 200.724 44.4476 200.03 45.2047 199.304 46.5296 198.326 47.3813 197.853 48.2015 197.38 48.8955 196.907 48.8955 196.781 48.8955 195.992 60.5673 189.904 62.0499 189.904 62.3023 189.904 62.9332 189.683 63.501 189.399 65.1414 188.547 68.359 187.979 72.87 187.759L77.1287 187.538 77.2233 186.308C77.3495 184.667 77.1287 183.815 76.2138 182.743 75.8037 182.27 75.299 181.292 75.0782 180.598 74.8574 179.904 74.1949 178.484 73.6271 177.443 72.6492 175.677 72.3968 174.667 71.6397 169.778 71.4505 168.674 70.9457 166.97 70.5041 166.024 69.5893 163.973 69.4316 160.693 70.1571 158.358 70.4095 157.57 70.7565 156.245 70.9142 155.361 71.5451 152.238 71.8921 151.292 72.7754 150.472 74.6681 148.642 76.3085 149.147 76.687 151.639 77.1917 154.951 77.381 155.708 78.0119 156.371 78.6428 157.065 79.7785 159.967 79.81 160.913 79.81 161.197 80.0308 161.607 80.3148 161.86 80.9772 162.396 81.3873 161.765 81.3873 160.251 81.3873 159.494 81.7658 158.548 82.4914 157.412 83.0908 156.465 83.5955 155.456 83.5955 155.172 83.5955 154.857 84.0371 153.689 84.5418 152.585 85.0781 151.45 85.4882 150.409 85.4882 150.251 85.4882 149.399 88.8636 143.721 90.5355 141.734 90.6932 141.513 90.8509 141.134 90.8509 140.882 90.8509 140.598 91.2926 140.188 91.7973 139.904 92.3336 139.62 92.7437 139.273 92.7437 139.084 92.7437 138.895 94.6679 136.813 97.0338 134.478 99.3682 132.144 101.923 129.368 102.712 128.295 103.501 127.254 104.415 126.182 104.731 125.961 107.16 124.258 111.608 122.87 113.564 123.185 114.352 123.311 114.952 123.185 115.74 122.712 116.75 122.049 116.781 122.018 116.592 120.409 116.466 119.431 116.56 117.822 116.844 116.403 117.097 115.109 117.381 112.68 117.507 111.04 117.696 107.696 118.422 103.185 119.116 100.788 120.157 97.1285 122.081 90.914 122.523 89.7468 122.775 89.0528 122.996 88.2327 123.027 87.9488 123.027 87.6648 123.374 87.0339 123.784 86.5292 124.194 86.056 124.668 85.1412 124.888 84.5103 125.078 83.8794 125.614 82.9015 126.024 82.3337 126.466 81.7343 126.813 81.0403 126.813 80.7564 126.813 80.4725 127.097 79.9678 127.444 79.6523 127.791 79.3368 128.705 77.7911 129.526 76.1507 130.567 74.0372 131.481 72.7438 132.743 71.482 133.753 70.5357 134.983 69.1792 135.488 68.4537 137.191 66.1193 138.201 65.0152 138.8 64.8259 139.147 64.6997 139.526 64.195 139.683 63.6272 139.904 62.807 140.22 62.4916 141.544 61.9868 142.428 61.6083 143.532 60.8827 144.005 60.3149 144.478 59.7471 145.645 58.7692 146.56 58.2014 147.507 57.602 148.264 57.0027 148.264 56.8449 148.264 56.7187 148.926 56.1825 149.715 55.6777 150.503 55.173 151.355 54.479 151.607 54.132 152.112 53.3749 155.109 51.7346 155.898 51.7346 156.213 51.7346 156.718 51.1983 157.096 50.4727 157.822 49.0532 158.484 48.7062 160.503 48.6431 161.576 48.58 162.175 48.3277 163.09 47.5706 163.753 47.0027 164.983 46.2772 165.835 45.9617 166.655 45.6463 167.633 45.2047 167.98 45.0154 168.327 44.8261 169.399 44.5737 170.346 44.416 173.5 44.0059 174.068 43.7851 175.267 42.5548 176.213 41.5769 176.686 41.3246 177.601 41.3246 178.8 41.3246 179.904 40.6936 180.85 39.5265 181.166 39.1479 181.67 38.7378 182.017 38.6432 182.838 38.3908 185.267 34.8577 185.74 33.1858 185.961 32.4287 186.812 31.0723 187.632 30.1259 188.453 29.1796 189.431 28.0124 189.809 27.5392 190.44 26.6875 190.629 26.6559 193.752 26.4982L197.001 26.3405 197.096 25.2364C197.191 24.1323 197.412 23.5014 198.705 20.82 199.052 20.0314 199.367 19.2427 199.367 19.0219 199.367 18.8011 199.557 18.1702 199.809 17.6024 200.061 17.0345 200.345 16.2144 200.44 15.7727 200.535 15.3311 200.976 14.574 201.449 14.0377 201.891 13.533 202.427 12.7128 202.585 12.2396 202.806 11.6403 203.121 11.3564 203.594 11.3564 204.604 11.3564 205.424 10.3469 205.708 8.73809 206.087 6.65609 207.569 1.45109 207.853 1.16718 208.011 1.00945 208.673 0.946364 209.336 1.00945L210.566 1.10409 210.661 5.52046C210.755 10.757 210.345 14.6686 209.493 15.8043 208.957 16.5298 208.516 18.5803 208.516 20.5676 208.516 21.4825 207.38 24.6686 206.118 27.2868 205.708 28.1701 205.361 28.9903 205.361 29.148 205.361 29.5581 203.563 32.3656 202.364 33.9114 201.796 34.6054 201.102 35.741 200.787 36.435 199.777 38.6116 196.56 42.3971 195.456 42.681 194.162 43.028 193.689 43.4697 193.689 44.2898 193.658 45.0785 192.175 46.7819 190.913 47.4444 190.408 47.6967 189.683 48.4223 189.336 49.0217 188.831 49.8734 188.326 50.2204 187.065 50.5989 186.024 50.9144 184.793 51.6399 183.595 52.6809 182.585 53.5327 181.639 54.2582 181.481 54.2582 181.323 54.2582 180.629 54.7629 179.935 55.3938 179.273 56.0247 177.79 56.9711 176.655 57.5074 175.519 58.0437 174.131 58.8007 173.532 59.2108 172.932 59.6209 171.986 59.9364 171.418 59.9364 170.661 59.9364 170.188 60.1887 169.588 60.9143 169.147 61.4506 168.768 62.0184 168.768 62.1761 168.768 62.3338 168.232 62.7124 167.601 62.9963 166.939 63.3117 165.835 64.0688 165.109 64.6997 164.415 65.3307 162.869 66.3717 161.639 67.0657 159.305 68.359 154.51 72.8385 154.131 74.0372 154.005 74.4473 153.342 75.3621 152.648 76.0877 151.986 76.8132 151.418 77.6018 151.418 77.8227 151.418 78.0435 150.913 78.769 150.314 79.463 149.715 80.1255 149.21 80.7879 149.21 80.9457 149.21 81.1034 148.705 81.9236 148.106 82.7753 147.507 83.627 147.002 84.668 147.002 85.0781 147.002 85.8668 145.582 90.2516 144.951 91.4818 143.753 93.7216 143.374 95.8351 142.585 105.204 142.018 111.797 142.018 112.68 142.428 114.952 142.68 116.308 142.901 118.295 142.901 119.368 142.932 121.071 143.027 121.418 143.942 122.459 144.51 123.09 146.592 124.794 148.579 126.213 150.566 127.633 152.491 129.052 152.838 129.399 154.794 131.229 157.538 133.437 157.917 133.437 158.137 133.437 158.863 134.1 159.525 134.951 160.188 135.772 160.85 136.497 160.977 136.529 161.103 136.592 161.576 137.317 161.986 138.169 163.216 140.598 168.043 144.32 171.387 145.393 172.648 145.803 173.185 146.497 173.185 147.696 173.185 148.137 173.595 148.863 174.163 149.399 175.33 150.503 178.295 156.465 178.547 158.201 178.768 159.967 179.683 160.03 181.45 158.421 182.459 157.507 183.248 157.096 184.541 156.844 185.487 156.686 186.434 156.497 186.591 156.434 187.349 156.276 189.304 157.475 189.778 158.453 190.061 158.989 190.566 159.778 190.913 160.156 191.576 160.85 191.576 161.324 190.913 163.248 190.724 163.784 190.44 164.92 190.282 165.771 190.093 166.655 189.809 167.853 189.62 168.453 188.043 173.752 187.601 175.014 187.096 175.708 186.781 176.15 186.434 176.844 186.339 177.286 185.109 182.175 184.667 183.689 184.036 185.077 183.311 186.623 182.901 189.336 183.342 189.746 183.437 189.841 184.699 190.061 186.15 190.219 187.601 190.345 190.061 190.85 191.607 191.292 193.153 191.733 194.856 192.08 195.393 192.08 196.497 192.049 202.837 193.658 205.456 194.636 206.434 195.014 208.799 196.339 210.724 197.632 213.563 199.525 214.383 199.935 214.825 199.683 215.329 199.43 215.424 199.525 215.613 200.314 215.803 201.229 217.064 202.206 218.042 202.206 218.263 202.206 219.146 202.964 219.998 203.91 220.85 204.856 221.922 205.803 222.427 205.992 222.9 206.213 223.784 206.875 224.383 207.506 224.982 208.169 225.866 208.926 226.339 209.273 226.812 209.588 227.38 210.314 227.601 210.881 227.853 211.418 228.578 212.364 229.241 212.963 229.903 213.563 231.007 214.856 231.67 215.866 232.364 216.844 232.995 217.664 233.121 217.664 233.373 217.664 236.055 221.071 237.253 222.869 237.727 223.563 238.547 224.572 239.083 225.077 240.471 226.37 243.216 230.093 243.216 230.66 243.216 230.944 243.499 231.512 243.878 231.985 244.73 233.058 246.686 237.127 247.79 240.061 248.074 240.85 248.484 241.701 248.704 241.954 248.894 242.206 249.272 242.995 249.493 243.689 249.935 244.982 250.723 246.749 252.585 250.597 253.152 251.796 253.626 253.152 253.626 253.594 253.626 254.067 253.973 254.919 254.383 255.487 255.077 256.402 255.14 256.78 255.045 259.241 255.014 260.913 255.108 262.364 255.361 262.963 255.581 263.499 255.708 264.288 255.613 264.698 255.455 265.739 256.717 272.269 257.569 274.603 258.42 276.938 258.736 281.827 258.515 288.326L258.263 294.445 255.329 297.442C253.689 299.083 252.301 300.66 252.174 300.944 252.08 301.196 251.07 302.206 249.935 303.152 248.799 304.098 247.632 305.108 247.348 305.36 247.064 305.612 246.433 306.117 245.897 306.433 245.392 306.748 244.54 307.411 244.036 307.884 243.499 308.357 241.985 309.713 240.692 310.849 239.399 312.016 237.821 313.215 237.222 313.562 236.623 313.877 235.487 314.792 234.698 315.612 233.91 316.433 232.774 317.347 232.175 317.663 230.913 318.357 229.619 319.524 227.033 322.489 225.96 323.688 224.856 324.634 224.351 324.761 223.5 324.95 222.932 325.423 219.462 328.956 218.105 330.344 217.348 331.417 217.033 332.426 216.686 333.562 216.055 334.382 214.478 335.833 213.342 336.874 212.206 337.883 211.922 338.041 211.639 338.199 210.913 339.145 210.282 340.186 209.683 341.196 208.61 342.521 207.916 343.088 207.096 343.814 206.497 344.697 206.15 345.707 205.613 347.379 204.415 348.893 203.658 348.893 203.216 348.893 201.449 351.069 200.124 353.215 199.746 353.814 199.083 354.571 198.642 354.855 198.2 355.139 196.781 356.495 195.55 357.883 194.289 359.271 192.743 360.722 192.143 361.132 191.513 361.574 189.935 362.994 188.642 364.319 187.317 365.643 185.677 367 184.983 367.347 182.964 368.293 180.692 370.028 178.705 372.142 177.569 373.341 176.56 374.129 176.15 374.129 175.803 374.129 175.014 374.665 174.383 375.328 173.784 375.959 172.081 377.189 170.598 378.009 169.115 378.829 167.57 379.87 167.191 380.281 166.781 380.722 165.866 381.227 165.172 381.416 164.32 381.637 163.437 382.236 162.617 383.12 161.923 383.877 160.724 384.792 159.936 385.17 159.147 385.58 158.011 386.306 157.412 386.779 156.718 387.378 155.961 387.694 155.298 387.694 154.194 387.694 152.333 388.609 151.103 389.744 145.298 395.202 142.996 397.599 142.743 398.482 142.491 399.239 142.175 399.555 141.45 399.744 140.882 399.902 140.093 400.47 139.62 401.101 138.674 402.362 137.286 403.151 136.213 403.119 135.803 403.119 134.888 402.836 134.194 402.489Z" fill="#000000" fill-rule="nonzero" fill-opacity="1" transform="matrix(-0.413705 -0.910411 -0.910411 0.413705 3073.47 1395.73)"/></g></g></g></g></g></svg>