<svg width="101" height="50" xmlns="http://www.w3.org/2000/svg" xmlns:xlink="http://www.w3.org/1999/xlink" xml:space="preserve" overflow="hidden"><g transform="translate(-477 -330)"><g><g><g><g><path d="M71.926 39.02C71.653 41.017 69.683 42.548 68.097 43.637 66.193 44.326 64.223 44.999 62.353 45.705 58.468 46.875 54.246 47.477 50.175 47.97 46.193 48.183 41.838 48.494 37.921 47.838 37.254 48.571 36.422 49.129 35.416 49.168 34.157 49.025 32.845 48.971 31.707 48.555 31.783 48.238 32.243 48.227 32.494 47.97 32.822 47.697 33.381 47.45 33.424 47.051 31.105 46.734 28.709 46.591 26.51 45.973L25.854 46.493C25.241 46.821 25.011 47.697 24.278 47.664 21.597 46.476 18.84 45.443 16.018 44.644 15.865 44.141 16.433 43.911 16.466 43.495 15.032 43.353 13.775 42.691 12.297 42.752 12.035 42.866 11.926 43.124 11.609 43.124 10.361 43.955 9.355 45.273 7.965 45.848 5.427 46.724 2.91 47.796 0.055 47.698-0.23 46.992 0.678 46.779 1.018 46.363 2.429 44.185 4.694 42.507 6.565 40.717 4.913 39.552 3.129 38.49 1.773 36.904 1.116 35.712 0.11 34.677 0.121 33.217 0.1 33.118 0.165 32.959 0.296 33.003 0.384 33.047 0.351 33.129 0.373 33.217 1.04 33.835 1.86 34.092 2.703 34.321 2.724 34.278 2.791 34.266 2.779 34.207 2.736 34.306 2.834 34.321 2.878 34.382 5.361 35.126 7.725 36.111 9.935 37.517L13.885 37.177 21.281 36.313 21.554 36.171C21.838 36.215 22.297 36.258 22.582 36.1 25.35 36.012 28.063 35.367 30.81 35.011L30.941 34.897C30.569 34.191 30.055 33.535 29.497 32.905 29.552 32.829 29.673 32.774 29.738 32.703 30.384 32.747 30.668 31.959 31.336 32.041 31.599 31.544 32.2 31.669 32.594 31.357 33.513 31.084 34.181 30.394 34.947 29.803 35.297 29.677 35.702 29.464 35.898 29.092 36.522 29.163 36.566 28.184 37.211 28.43 38.929 30.093 39.892 32.057 41.063 33.934 44.213 33.737 47.496 33.419 50.658 33.934L57.529 34.792C59.739 35.355 62.048 35.64 64.279 36.144 65.418 36.373 66.577 36.647 67.682 36.833 68.71 37.533 70.199 37.101 71.194 37.861 71.303 38.189 71.118 38.621 71.162 38.965L71.808 38.965 71.926 39.02ZM99.901 56.542 99.333 56.542C99.3 56.241 99.464 55.863 99.365 55.573 98.49 54.911 97.188 55.289 96.291 54.676 95.328 54.512 94.311 54.278 93.315 54.074 91.356 53.632 89.343 53.385 87.407 52.892L81.389 52.137C78.632 51.689 75.754 51.968 72.997 52.137 71.969 50.496 71.126 48.779 69.627 47.324 69.058 47.11 69.025 47.964 68.479 47.904 68.315 48.226 67.954 48.418 67.647 48.527 66.98 49.042 66.389 49.643 65.59 49.883 65.251 50.156 64.726 50.047 64.485 50.486 63.906 50.409 63.654 51.098 63.095 51.06 63.03 51.125 62.931 51.174 62.876 51.241 63.369 51.788 63.817 52.362 64.146 52.98L64.037 53.084C61.619 53.396 59.256 53.96 56.838 54.036 56.586 54.173 56.182 54.135 55.93 54.097L55.69 54.223 49.223 54.978 45.766 55.273C43.829 54.047 41.762 53.183 39.584 52.533 39.551 52.478 39.464 52.467 39.508 52.38 39.519 52.435 39.453 52.44 39.442 52.479 38.699 52.282 37.987 52.057 37.396 51.516 37.385 51.439 37.408 51.368 37.331 51.329 37.222 51.291 37.156 51.428 37.178 51.516 37.167 52.79 38.054 53.699 38.622 54.738 39.814 56.128 41.368 57.057 42.812 58.075 41.182 59.639 39.202 61.111 37.965 63.015 37.669 63.381 36.871 63.567 37.122 64.185 39.617 64.267 41.827 63.331 44.037 62.566 45.263 62.063 46.138 60.909 47.231 60.181 47.504 60.181 47.603 59.956 47.834 59.858 49.125 59.803 50.219 60.383 51.477 60.509 51.456 60.87 50.953 61.072 51.094 61.51 53.556 62.21 55.963 63.118 58.316 64.153 58.95 64.185 59.158 63.42 59.694 63.13L60.274 62.676C62.189 63.218 64.29 63.344 66.313 63.617 66.281 63.967 65.789 64.185 65.503 64.421 65.284 64.646 64.88 64.656 64.814 64.936 65.81 65.297 66.959 65.346 68.053 65.472 68.939 65.439 69.661 64.952 70.252 64.307 73.676 64.881 77.494 64.613 80.974 64.421 84.54 63.994 88.228 63.464 91.63 62.441 93.272 61.823 94.989 61.238 96.652 60.63 98.042 59.679 99.759 58.338 100 56.593L99.901 56.542Z" fill="#000000" fill-rule="nonzero" fill-opacity="1" transform="matrix(1 0 0 1.00765 478 308.344)"/></g></g></g></g></g></svg>