<svg width="115" height="101" xmlns="http://www.w3.org/2000/svg" xmlns:xlink="http://www.w3.org/1999/xlink" xml:space="preserve" overflow="hidden"><g transform="translate(-3767 -2264)"><g><path d="M40.3101 49.5778 37.7691 52.4518 36.845 54.0325 36.383 55.9007 35.3435 57.194 34.304 58.4874 33.0335 59.4933 32.5715 60.6429 31.4164 62.9422 30.3769 63.9481 27.7204 65.8162 25.9879 67.1096 24.4863 68.2592 21.5988 68.9777 21.1368 70.7022 20.2128 70.7022 18.3648 71.8518 15.7082 71.9955 13.0517 72.8577 10.0487 73.4325 7.39211 74.151 5.19759 74.151 4.04257 74.151 2.42555 74.151 4.15806 75.157 1.96354 75.5881 0 77.0251 4.50458 78.7496 7.96963 78.1748 10.7417 78.7496 16.0547 78.6059 19.6353 78.3185 15.1307 81.3362 12.5897 83.2044 9.93314 85.0725 6.6991 88.6651 5.77508 90.3896 11.2037 87.0844 16.8632 83.2044 22.4073 79.4681 25.0639 77.5999 28.0669 76.3066 29.2219 76.0192 31.4164 74.7259 32.3405 72.1392 33.0335 75.0133 33.7265 76.8814 33.611 79.6118 34.073 80.9051 33.38 81.911 32.456 83.9229 32.1095 85.0725 31.8785 86.2221 30.4924 88.234 30.2614 89.5273 29.3374 91.5392 28.9909 93.2636 28.9909 94.9881 29.1064 96.9999 30.6079 95.2755 31.8785 91.9703 32.687 89.3836 33.842 85.7911 35.228 83.2044 36.383 81.1925 36.7295 79.8992 37.1915 77.8873 37.4225 76.8814 39.2706 77.1688 42.6201 75.4444 44.4681 73.5762 50.2432 68.5466 51.2827 66.3911 51.2827 65.0977 53.4773 65.0977 54.7478 63.0859 57.0578 62.6548 63.8724 62.3674 69.532 60.3555 74.0366 57.9126 76.2311 58.3437 80.3891 60.9303 88.1278 63.3733 91.3618 63.3733 95.0579 62.7985 97.5989 61.7925 100.14 60.4992 101.988 59.3496 103.258 58.4874 104.182 57.7688 104.991 56.6192 105.337 56.0444 104.529 55.6133 103.258 56.9066 102.219 57.6252 101.295 58.7748 99.9089 59.2059 98.4074 60.2118 95.2889 61.5051 94.0183 61.6488 90.8998 61.7925 88.8208 61.7925 87.0882 60.6429 84.7782 59.4933 79.2341 56.9066 77.6171 56.0444 76.0001 55.0385 77.1551 54.6074 78.1946 54.1763 80.8512 56.4755 83.1612 57.4814 84.0852 58.0562 86.1642 59.2059 89.9758 60.9303 91.5928 61.5051 96.0974 60.4992 99.9089 58.6311 101.757 57.194 103.374 55.6133 105.568 54.6074 106.031 53.314 108.341 49.7214 106.146 51.1585 104.991 52.5955 104.76 52.1644 103.143 53.6015 101.41 55.0385 98.9849 56.3318 96.6749 57.3377 95.0579 58.2 92.0548 58.6311 89.7448 57.4814 87.2038 56.3318 82.5837 53.4577 80.6201 51.5896 79.1186 50.44 77.7326 49.8652 76.8086 48.7155 79.3496 49.5778 80.3891 49.2903 81.4287 47.8533 83.3922 49.434 85.3557 51.877 86.9727 53.7451 89.1673 56.9066 92.2858 57.9126 94.7113 57.7688 97.4834 56.6192 99.7934 55.0385 102.565 53.4577 104.067 51.877 105.106 51.0148 103.489 46.1289 100.833 43.3985 102.45 46.1289 103.72 49.1466 102.565 50.7274 99.9089 52.5955 96.9059 54.6074 94.2493 55.0385 92.8633 55.757 91.2463 55.757 90.0913 51.7333 88.5898 50.1526 86.9727 49.2903 86.0487 47.4222 84.6627 46.4163 83.2767 44.4044 83.3922 43.3985 85.4712 45.1229 87.5502 45.2666 89.7448 46.7037 91.1308 46.1289 95.8664 48.7155 97.1369 48.8592 93.7873 51.4459 94.1339 53.1703 96.7904 51.4459 98.2919 48.7155 94.2493 53.7451 94.5959 54.7511 98.6384 51.7333 99.6779 49.1466 100.486 46.9911 99.1004 45.1229 97.0214 43.6859 94.0183 42.2489 90.7843 41.3866 90.3223 40.9555 90.2068 38.9437 92.8633 39.3748 93.6718 40.5244 96.6749 41.674 98.8694 42.5363 100.602 45.5541 100.024 43.3985 98.9849 41.674 98.4074 40.6681 101.064 42.9674 100.14 40.5244 98.8694 38.3689 97.2524 38.2252 95.8664 38.2252 95.5199 37.2192 99.2159 34.6326 99.1004 31.7585 99.5624 29.6029 100.486 30.8963 102.681 32.0459 103.027 29.6029 103.374 28.597 112.152 32.7644 114 32.7644 104.182 27.5911 103.143 25.5792 102.45 25.0044 102.796 22.5615 102.681 21.6993 109.496 27.5911 105.106 20.4059 101.988 17.1007 101.526 15.0889 102.796 14.6578 103.374 13.3644 103.836 11.3526 104.644 9.34075 105.222 7.61631 106.146 5.46074 107.07 2.58666 108.11 0 105.8 3.16148 104.067 6.32296 103.027 9.48444 101.988 11.4963 100.833 11.9274 100.14 12.0711 100.14 10.6341 100.024 9.19703 98.9849 7.61631 97.8299 6.17927 96.6749 4.74223 95.1734 3.73629 92.8633 2.15557 91.7083 2.15557 90.0913 2.15557 88.5898 2.58666 87.5502 3.5926 86.9727 3.73629 86.9727 2.73038 86.5107 1.58075 85.1247 1.58075 84.4317 2.01185 83.9697 2.58666 83.5077 3.3052 81.3132 3.3052 79.9271 3.5926 78.0791 3.88001 75.0761 4.74223 73.8056 5.74814 71.611 6.61036 71.4955 7.47259 69.8785 7.3289 68.4925 7.90371 67.453 9.05334 64.7964 10.6341 63.5259 11.9274 62.1399 13.077 61.1004 14.083 59.8298 15.3763 58.5593 16.5259 56.7113 19.1126 55.6718 21.2681 54.4013 22.9926 53.1308 24.1422 51.7447 27.0163 51.1672 28.3096 50.4742 30.6089 49.2037 33.3392 48.1642 34.7763 46.8937 37.0755 46.3162 39.3748 45.5076 41.5303 43.4286 43.6859 42.7356 45.8415 40.3101 49.5778Z" fill="#FF9999" fill-rule="evenodd" fill-opacity="1" transform="matrix(-1 0 0 1 3882 2265)"/></g></g></svg>