<svg width="96" height="97" xmlns="http://www.w3.org/2000/svg" xmlns:xlink="http://www.w3.org/1999/xlink" xml:space="preserve" overflow="hidden"><g transform="translate(-840 -556)"><g><g><g><g><path d="M918 627.79C915.942 627.87 913.913 628.299 912 629.06 910.726 629.587 909.375 629.905 908 630 906.625 629.905 905.274 629.587 904 629.06 902.087 628.299 900.058 627.87 898 627.79 895.942 627.87 893.913 628.299 892 629.06 890.726 629.587 889.375 629.905 888 630 886.625 629.905 885.274 629.587 884 629.06 882.087 628.299 880.058 627.87 878 627.79 875.942 627.87 873.913 628.299 872 629.06 870.726 629.587 869.375 629.905 868 630 866.625 629.905 865.274 629.587 864 629.06 862.087 628.299 860.058 627.87 858 627.79 855.942 627.87 853.913 628.299 852 629.06 850.726 629.587 849.375 629.905 848 630L848 636C850.058 635.92 852.087 635.491 854 634.73 855.27 634.182 856.621 633.845 858 633.73 859.379 633.845 860.73 634.182 862 634.73 863.913 635.491 865.942 635.92 868 636 870.058 635.92 872.087 635.491 874 634.73 875.27 634.182 876.621 633.845 878 633.73 879.375 633.825 880.726 634.143 882 634.67 883.908 635.456 885.938 635.906 888 636 890.058 635.92 892.087 635.491 894 634.73 895.27 634.182 896.621 633.845 898 633.73 899.379 633.845 900.73 634.182 902 634.73 903.913 635.491 905.942 635.92 908 636 910.058 635.92 912.087 635.491 914 634.73 915.27 634.182 916.621 633.845 918 633.73 919.375 633.825 920.726 634.143 922 634.67 923.908 635.456 925.938 635.906 928 636L928 630C926.625 629.905 925.274 629.587 924 629.06 922.087 628.299 920.058 627.87 918 627.79Z" fill="#ADB9CA" fill-rule="nonzero" fill-opacity="1"/><path d="M924 617.06C922.087 616.299 920.058 615.87 918 615.79 915.942 615.87 913.913 616.299 912 617.06 910.726 617.587 909.375 617.905 908 618 906.625 617.905 905.274 617.587 904 617.06 903.305 616.788 902.594 616.561 901.87 616.38 893.53 612.59 889.27 604.96 889.87 599.06 890.37 593.97 893.43 588.24 898.97 587.67 904.31 587.073 909.2 590.714 910.16 596 910.294 596.898 911.095 597.542 912 597.48 912.48 597.436 912.923 597.202 913.23 596.83 913.527 596.454 913.661 595.975 913.6 595.5 911.81 582.15 899.91 573.18 886 574.61 878.45 575.39 871.36 580.11 864.92 588.61 864.06 589.74 863.22 590.88 862.38 592.02 857.91 598.02 853.65 603.82 848.04 607.74L848.04 624C850.098 623.92 852.127 623.491 854.04 622.73 855.31 622.182 856.661 621.845 858.04 621.73 859.419 621.845 860.77 622.182 862.04 622.73 863.941 623.486 865.956 623.916 868 624 870.058 623.92 872.087 623.491 874 622.73 875.27 622.182 876.621 621.845 878 621.73 879.375 621.825 880.726 622.143 882 622.67 883.908 623.456 885.938 623.906 888 624 890.058 623.92 892.087 623.491 894 622.73 895.27 622.182 896.621 621.845 898 621.73 899.379 621.845 900.73 622.182 902 622.73 903.913 623.491 905.942 623.92 908 624 910.058 623.92 912.087 623.491 914 622.73 915.27 622.182 916.621 621.845 918 621.73 919.375 621.825 920.726 622.143 922 622.67 923.908 623.456 925.938 623.906 928 624L928 618C926.625 617.905 925.274 617.587 924 617.06Z" fill="#ADB9CA" fill-rule="nonzero" fill-opacity="1"/></g></g></g></g></g></svg>